<?xml version="1.0" encoding="utf-8"?>
<!-- Generator: Adobe Illustrator 18.0.0, SVG Export Plug-In . SVG Version: 6.00 Build 0)  -->
<!DOCTYPE svg PUBLIC "-//W3C//DTD SVG 1.1//EN" "http://www.w3.org/Graphics/SVG/1.1/DTD/svg11.dtd">
<svg version="1.1" id="Layer_1" xmlns="http://www.w3.org/2000/svg" xmlns:xlink="http://www.w3.org/1999/xlink" x="0px" y="0px"
	 viewBox="0 0 1994.9 1648.4" enable-background="new 0 0 1994.9 1648.4" xml:space="preserve">
<circle fill="#6B85DD" stroke="#4266D5" stroke-width="3" cx="1714.7" cy="107.8" r="10.8"/>
<path fill="#252525" d="M1706,160.2c0-10.4,0-20.8,0-31.2c0-0.5,0.1-0.8,0.7-1c5.2-1.4,10.3-2.8,15.5-4.3c0.9-0.2,0.9-0.2,0.9,0.7
	c0,16.9,0,33.9,0,50.8c0,3.6,0.2,7.3-0.2,10.9c-0.4,4.4-1.4,8.6-4.2,12.2c-2.5,3.1-5.8,4.8-9.7,5.5c-4.3,0.8-8.7,1-13.1,0.6
	c-3-0.3-5.9-1-8.4-2.9c-1.9-1.4-2.9-3.2-2.5-5.7c0.5-2.5,2.2-3.9,4.5-4.7c1.5-0.5,3-0.6,4.6-0.3c1.2,0.2,2.2,0.7,3.1,1.5
	c0.9,0.8,1.7,1.8,2.5,2.7c0.6,0.8,1.2,1.5,2,2c1.4,0.9,2.6,0.6,3.4-0.8c0.5-1,0.7-2,0.8-3.1c0.2-1.5,0.2-3.1,0.2-4.6
	C1706,179.1,1706,169.7,1706,160.2z"/>
<path fill="#252525" d="M1764.1,176c-1.9,1.6-3.8,2.8-5.8,3.9c-6.8,3.5-13.5,3-19.9-0.8c-4.4-2.6-7.2-6.5-8.2-11.6
	c-0.2-0.8-0.2-1.6-0.2-2.4c0-13,0-26,0-39c0-0.7,0.2-0.9,0.9-0.9c5.1,0,10.3,0,15.4,0c0.6,0,0.8,0.2,0.8,0.8c0,12.7,0,25.5,0,38.2
	c0,4.2,2.4,7.2,6.4,8.2c1.4,0.3,2.8,0.3,4.1-0.4c2.8-1.4,4.9-3.6,6.7-6.1c0.2-0.3,0.1-0.7,0.1-1c0-12.9,0-25.8,0-38.7
	c0-0.7,0.2-0.9,0.9-0.9c5.2,0,10.3,0,15.5,0c0.6,0,0.7,0.2,0.7,0.7c0,18.2,0,36.4,0,54.6c0,0.6-0.2,0.7-0.7,0.7
	c-5.2,0-10.4,0-15.6,0c-0.5,0-0.7-0.1-0.7-0.7C1764.1,179.1,1764.1,177.6,1764.1,176z"/>
<path fill="#252525" d="M1868.1,176.8c-0.5,0.4-0.9,0.7-1.3,1.1c-2.9,2.5-6.2,3.9-10,4.2c-3.8,0.3-7.5,0.2-11.1-1.3
	c-7.9-3.3-10.2-11.3-7.8-18c1.2-3.4,3.6-5.8,6.5-7.8c3.7-2.6,7.9-4.4,12.2-6c3.7-1.3,7.4-2.6,11.1-3.5c0.3-0.1,0.5-0.2,0.5-0.6
	c-0.1-2.9,0.2-5.8-0.3-8.7c-0.8-4.7-4.3-6.6-8.5-6.1c-0.3,0-0.7,0.1-1,0.2c-3.2,0.7-4.8,2.9-4.8,6.7c0,1.1-0.2,2.2-0.5,3.3
	c-0.6,2.1-2,3.5-4.1,4.1c-2.2,0.6-4.5,0.7-6.7-0.2c-4.3-1.7-5.8-6.7-3.4-10.9c1.5-2.5,3.7-4.2,6.2-5.5c4.1-2.1,8.5-3.3,13.1-3.6
	c5-0.4,9.9-0.2,14.8,1c2.8,0.7,5.5,1.8,7.7,3.7c2.9,2.5,4.5,5.7,4.5,9.4c0.1,14.1,0.1,28.2,0.1,42.4c0,0.5-0.2,0.6-0.7,0.6
	c-5.3,0-10.6,0-15.9,0c-0.5,0-0.6-0.1-0.6-0.6C1868.1,179.4,1868.1,178.2,1868.1,176.8z M1868.1,152.3c-3.2,1.4-6.1,2.9-8.7,4.9
	c-1.4,1.1-2.7,2.3-3.8,3.7c-2.8,3.4-1.3,8.8,1.1,10.9c1,0.9,2.2,1.3,3.6,1c1.1-0.2,2.1-0.6,3-1.1c1-0.6,1.9-1.4,3-1.9
	c1.5-0.8,2-1.9,1.9-3.6C1868,161.6,1868.1,157,1868.1,152.3z"/>
<g>
	<g>
		<line fill="#6BAB5B" x1="664.5" y1="765.7" x2="631.2" y2="754.6"/>
		<polygon fill="#3B972E" points="664.1,768.7 630.9,757.6 631.5,751.6 664.8,762.7 		"/>
	</g>
	<g>
		<line fill="#AA7DC0" x1="632.9" y1="775.3" x2="666.8" y2="781.1"/>
		<polygon fill="#945BB0" points="666.6,784.1 632.6,778.3 633.1,772.2 667,778 		"/>
	</g>
	<g>
		<line fill="#D66661" x1="663.2" y1="798" x2="646.4" y2="796.9"/>
		<polygon fill="#C93D39" points="663.1,801 646.3,799.9 646.6,793.8 663.4,794.9 		"/>
	</g>
	<g>
		<line fill="#6BAB5B" x1="662" y1="829.9" x2="643.4" y2="832"/>
		<polygon fill="#3B972E" points="643.4,835 643.4,828.9 662,826.8 662,832.9 		"/>
	</g>
	<g>
		<line fill="#AA7DC0" x1="633.9" y1="851.7" x2="667.9" y2="846.5"/>
		<polygon fill="#945BB0" points="634,854.8 633.9,848.7 667.8,843.5 667.9,849.6 		"/>
	</g>
	<g>
		<line fill="#D66661" x1="628.5" y1="871.1" x2="666.3" y2="865.4"/>
		<polygon fill="#C93D39" points="628.6,874.2 628.5,868.1 666.3,862.4 666.3,868.5 		"/>
	</g>
	<g>
		<line fill="#6B85DD" x1="652.9" y1="885.4" x2="632.5" y2="888.2"/>
		<polygon fill="#4266D5" points="632.6,891.2 632.5,885.1 652.9,882.4 652.9,888.5 		"/>
	</g>
	<g>
		<line fill="#6BAB5B" x1="632.1" y1="918.7" x2="652.6" y2="922.2"/>
		<polygon fill="#945BB0" points="652.4,925.2 631.9,921.8 632.3,915.7 652.8,919.1 		"/>
	</g>
	<g>
		<line fill="#C93D39" x1="661.6" y1="942.1" x2="627.8" y2="936.3"/>
		<polygon fill="#C93D39" points="661.4,945.1 627.5,939.4 628,933.3 661.9,939 		"/>
	</g>
	<g>
		<line fill="#4266D5" x1="628.5" y1="948.8" x2="664.1" y2="962.6"/>
		<polygon fill="#4266D5" points="663.7,965.6 628.1,951.8 628.9,945.8 664.5,959.6 		"/>
	</g>
	<path fill="#252525" d="M668.6,973.7l-6-1.3c1.8-22.3-11.5-45.5-22.2-64.1c-7.7-13.3-13.7-23.8-14.6-33.9
		c-2.2-24.3,10.5-40.4,21.6-54.7c8.4-10.7,17.1-21.8,18.1-33.9c0.5-6-2.7-15.1-4.3-18.5l4.5-8.7c0.7,1.5,6.9,15.1,5.8,28.5
		c-1.5,17.8-11.4,30.5-21,42.8c-10.3,13.2-20.1,25.7-18.7,41.6c0.5,6,7,17.3,12.8,27.3C656.2,919.4,670.9,944.8,668.6,973.7z"/>
	<path fill="#252525" d="M625.6,953.8c-2.8-13.3-0.4-27.9,7.1-43.3c5.9-12.1,14-23.2,20.6-32.1c4.5-6.1,9.5-12.9,10.5-16
		c1.6-5.3,3.1-14-2.9-28.6c-4.5-11-11.7-21.8-18.1-31.3c-8.2-12.3-14.7-22-15.9-31.6c-1.2-9.8,0.3-22,0.4-23.4l5.9,2.4l-2.9-1.2
		l2.9,1.2c-0.4,2.9-1.2,11.6-0.4,17.4c0.7,5.7,7.7,16.1,13.8,25.3c6.6,9.9,14.2,21.2,19.1,33.2c6.2,15.2,7.3,29.6,3.2,42.7
		c-1.6,5.2-5.5,10.7-12.4,19.9c-11.7,15.9-29.5,40-25.3,60.1L625.6,953.8z"/>
</g>
<g>
	<g>
		<line fill="#6BAB5B" x1="478.3" y1="1126.8" x2="485.4" y2="1105.5"/>
		<polygon fill="#3B972E" points="476.3,1126.5 483.4,1105.2 487.3,1105.7 480.2,1127 		"/>
	</g>
	<g>
		<line fill="#AA7DC0" x1="472.1" y1="1106.5" x2="468.4" y2="1128.3"/>
		<polygon fill="#945BB0" points="466.4,1128.1 470.2,1106.4 474.1,1106.7 470.3,1128.4 		"/>
	</g>
	<g>
		<line fill="#D66661" x1="457.6" y1="1126" x2="458.3" y2="1115.2"/>
		<polygon fill="#C93D39" points="455.6,1125.9 456.3,1115.1 460.2,1115.3 459.5,1126.1 		"/>
	</g>
	<g>
		<line fill="#6BAB5B" x1="437.1" y1="1125.2" x2="435.8" y2="1113.3"/>
		<polygon fill="#3B972E" points="433.9,1113.3 437.8,1113.3 439.1,1125.2 435.2,1125.2 		"/>
	</g>
	<g>
		<line fill="#AA7DC0" x1="423.2" y1="1107.2" x2="426.5" y2="1128.9"/>
		<polygon fill="#945BB0" points="421.2,1107.2 425.1,1107.2 428.4,1128.9 424.5,1129 		"/>
	</g>
	<g>
		<line fill="#D66661" x1="410.7" y1="1103.8" x2="414.4" y2="1127.9"/>
		<polygon fill="#C93D39" points="408.8,1103.8 412.7,1103.8 416.3,1127.9 412.4,1128 		"/>
	</g>
	<g>
		<line fill="#6B85DD" x1="401.6" y1="1119.4" x2="399.8" y2="1106.3"/>
		<polygon fill="#4266D5" points="397.9,1106.3 401.8,1106.3 403.5,1119.4 399.6,1119.4 		"/>
	</g>
	<g>
		<line fill="#6BAB5B" x1="380.2" y1="1106" x2="378" y2="1119.2"/>
		<polygon fill="#945BB0" points="376.1,1119.1 378.3,1105.9 382.2,1106.2 380,1119.3 		"/>
	</g>
	<g>
		<line fill="#C93D39" x1="365.3" y1="1125" x2="369" y2="1103.3"/>
		<polygon fill="#C93D39" points="363.3,1124.8 367,1103.1 370.9,1103.4 367.2,1125.1 		"/>
	</g>
	<g>
		<line fill="#4266D5" x1="361" y1="1103.7" x2="352.2" y2="1126.5"/>
		<polygon fill="#4266D5" points="350.2,1126.3 359.1,1103.5 362.9,1104 354.1,1126.8 		"/>
	</g>
	<path fill="#252525" d="M345,1129.4l0.8-3.8c14.3,1.2,29.1-7.4,41-14.2c8.5-4.9,15.3-8.8,21.7-9.4c15.6-1.4,25.9,6.7,35,13.9
		c6.8,5.4,13.9,10.9,21.7,11.6c3.9,0.3,9.7-1.7,11.9-2.8l5.6,2.9c-1,0.5-9.7,4.4-18.3,3.7c-11.4-0.9-19.5-7.3-27.4-13.5
		c-8.5-6.6-16.4-12.9-26.7-12c-3.9,0.3-11.1,4.5-17.5,8.2C379.8,1121.5,363.5,1130.9,345,1129.4z"/>
	<path fill="#252525" d="M357.8,1101.9c8.5-1.8,17.9-0.3,27.7,4.5c7.8,3.8,14.9,9,20.6,13.2c3.9,2.9,8.3,6.1,10.2,6.7
		c3.4,1,8.9,2,18.3-1.8c7-2.9,13.9-7.5,20.1-11.6c7.9-5.2,14.1-9.4,20.2-10.2c6.3-0.8,14.1,0.2,15,0.3l-1.5,3.8l0.8-1.9l-0.8,1.9
		c-1.8-0.2-7.4-0.7-11.1-0.3c-3.7,0.5-10.3,4.9-16.2,8.8c-6.4,4.2-13.6,9.1-21.3,12.2c-9.7,4-18.9,4.7-27.4,2.1
		c-3.3-1-6.8-3.6-12.8-7.9c-10.2-7.5-25.6-18.9-38.5-16.2L357.8,1101.9z"/>
</g>
<g>
	<g>
		<line fill="#6BAB5B" x1="1863" y1="871.2" x2="1879.4" y2="822.2"/>
		<polygon fill="#3B972E" points="1858.6,870.7 1874.9,821.7 1883.8,822.7 1867.5,871.7 		"/>
	</g>
	<g>
		<line fill="#AA7DC0" x1="1848.9" y1="824.6" x2="1840.3" y2="874.7"/>
		<polygon fill="#945BB0" points="1835.8,874.4 1844.4,824.3 1853.4,824.9 1844.8,875 		"/>
	</g>
	<g>
		<line fill="#D66661" x1="1815.4" y1="869.4" x2="1817" y2="844.6"/>
		<polygon fill="#C93D39" points="1810.9,869.2 1812.5,844.4 1821.5,844.8 1819.9,869.6 		"/>
	</g>
	<g>
		<line fill="#6BAB5B" x1="1768.4" y1="867.6" x2="1765.3" y2="840.2"/>
		<polygon fill="#3B972E" points="1760.8,840.2 1769.8,840.2 1772.9,867.6 1763.9,867.6 		"/>
	</g>
	<g>
		<line fill="#AA7DC0" x1="1736.2" y1="826.2" x2="1743.8" y2="876.2"/>
		<polygon fill="#945BB0" points="1731.7,826.2 1740.7,826.2 1748.3,876.2 1739.3,876.3 		"/>
	</g>
	<g>
		<line fill="#D66661" x1="1707.6" y1="818.3" x2="1716" y2="873.9"/>
		<polygon fill="#C93D39" points="1703.1,818.3 1712.1,818.2 1720.5,873.9 1711.5,874 		"/>
	</g>
	<g>
		<line fill="#6B85DD" x1="1686.4" y1="854.2" x2="1682.4" y2="824.2"/>
		<polygon fill="#4266D5" points="1677.9,824.2 1686.9,824.1 1690.9,854.2 1681.9,854.2 		"/>
	</g>
	<g>
		<line fill="#6BAB5B" x1="1637.3" y1="823.5" x2="1632.3" y2="853.8"/>
		<polygon fill="#945BB0" points="1627.8,853.5 1632.8,823.2 1641.8,823.8 1636.8,854.1 		"/>
	</g>
	<g>
		<line fill="#C93D39" x1="1602.9" y1="867.1" x2="1611.4" y2="817.1"/>
		<polygon fill="#C93D39" points="1598.4,866.8 1606.9,816.8 1615.9,817.4 1607.4,867.4 		"/>
	</g>
	<g>
		<line fill="#4266D5" x1="1593.1" y1="818.2" x2="1572.7" y2="870.7"/>
		<polygon fill="#4266D5" points="1568.3,870.1 1588.6,817.7 1597.5,818.7 1577.1,871.2 		"/>
	</g>
	<path fill="#252525" d="M1556.3,877.3l1.9-8.8c32.9,2.7,67.1-17,94.5-32.8c19.6-11.3,35.1-20.3,50-21.6
		c35.8-3.2,59.6,15.5,80.6,31.9c15.8,12.4,32.1,25.2,49.9,26.6c8.9,0.7,22.3-4,27.3-6.4l12.8,6.7c-2.2,1-22.2,10.2-42.1,8.5
		c-26.3-2.2-45-16.8-63.1-31c-19.5-15.3-37.8-29.7-61.4-27.6c-8.9,0.8-25.5,10.4-40.2,18.8C1636.4,859.1,1598.9,880.7,1556.3,877.3z
		"/>
	<path fill="#252525" d="M1585.6,813.9c19.6-4.1,41.1-0.6,63.9,10.4c17.9,8.7,34.2,20.7,47.4,30.4c8.9,6.6,19.1,14.1,23.6,15.4
		c7.8,2.4,20.6,4.6,42.2-4.3c16.2-6.6,32.1-17.3,46.2-26.7c18.1-12.1,32.4-21.6,46.6-23.4c14.5-1.8,32.5,0.4,34.5,0.7l-3.6,8.7
		l1.8-4.3l-1.8,4.3c-4.2-0.5-17.1-1.7-25.6-0.6c-8.4,1.1-23.7,11.3-37.3,20.3c-14.6,9.8-31.2,20.9-48.9,28.1
		c-22.4,9.2-43.6,10.8-63,4.7c-7.6-2.4-15.7-8.2-29.4-18.3c-23.5-17.3-59-43.5-88.7-37.2L1585.6,813.9z"/>
</g>
<g>
	<g>
		<line fill="#6BAB5B" x1="1679.6" y1="532.8" x2="1661.7" y2="526.8"/>
		<polygon fill="#3B972E" points="1679.4,534.4 1661.5,528.4 1661.8,525.2 1679.8,531.2 		"/>
	</g>
	<g>
		<line fill="#AA7DC0" x1="1662.6" y1="538" x2="1680.8" y2="541.1"/>
		<polygon fill="#945BB0" points="1680.7,542.7 1662.4,539.6 1662.7,536.3 1681,539.5 		"/>
	</g>
	<g>
		<line fill="#D66661" x1="1678.9" y1="550.2" x2="1669.9" y2="549.6"/>
		<polygon fill="#C93D39" points="1678.8,551.8 1669.8,551.2 1669.9,547.9 1679,548.5 		"/>
	</g>
	<g>
		<line fill="#6BAB5B" x1="1678.3" y1="567.4" x2="1668.2" y2="568.5"/>
		<polygon fill="#3B972E" points="1668.2,570.1 1668.2,566.8 1678.3,565.7 1678.3,569 		"/>
	</g>
	<g>
		<line fill="#AA7DC0" x1="1663.1" y1="579.1" x2="1681.4" y2="576.3"/>
		<polygon fill="#945BB0" points="1663.1,580.8 1663.1,577.5 1681.4,574.7 1681.4,578 		"/>
	</g>
	<g>
		<line fill="#D66661" x1="1660.2" y1="589.6" x2="1680.6" y2="586.5"/>
		<polygon fill="#C93D39" points="1660.3,591.2 1660.2,587.9 1680.6,584.9 1680.6,588.2 		"/>
	</g>
	<g>
		<line fill="#6B85DD" x1="1673.4" y1="597.3" x2="1662.4" y2="598.8"/>
		<polygon fill="#4266D5" points="1662.4,600.4 1662.4,597.1 1673.4,595.7 1673.4,598.9 		"/>
	</g>
	<g>
		<line fill="#6BAB5B" x1="1662.1" y1="615.2" x2="1673.2" y2="617.1"/>
		<polygon fill="#945BB0" points="1673.1,618.7 1662,616.9 1662.3,613.6 1673.3,615.4 		"/>
	</g>
	<g>
		<line fill="#C93D39" x1="1678.1" y1="627.8" x2="1659.8" y2="624.7"/>
		<polygon fill="#C93D39" points="1677.9,629.5 1659.7,626.3 1659.9,623.1 1678.2,626.2 		"/>
	</g>
	<g>
		<line fill="#4266D5" x1="1660.2" y1="631.4" x2="1679.4" y2="638.9"/>
		<polygon fill="#4266D5" points="1679.2,640.5 1660,633 1660.4,629.8 1679.6,637.2 		"/>
	</g>
	<path fill="#252525" d="M1681.8,644.8l-3.2-0.7c1-12-6.2-24.5-12-34.5c-4.1-7.2-7.4-12.8-7.9-18.2c-1.2-13.1,5.6-21.8,11.7-29.4
		c4.5-5.8,9.2-11.7,9.7-18.2c0.3-3.3-1.5-8.1-2.3-10l2.4-4.7c0.4,0.8,3.7,8.1,3.1,15.4c-0.8,9.6-6.1,16.4-11.3,23
		c-5.6,7.1-10.8,13.8-10.1,22.4c0.3,3.2,3.8,9.3,6.9,14.7C1675.1,615.6,1683.1,629.3,1681.8,644.8z"/>
	<path fill="#252525" d="M1658.6,634.1c-1.5-7.2-0.2-15,3.8-23.3c3.2-6.5,7.6-12.5,11.1-17.3c2.4-3.3,5.1-7,5.6-8.6
		c0.9-2.8,1.7-7.5-1.6-15.4c-2.4-5.9-6.3-11.7-9.8-16.9c-4.4-6.6-7.9-11.8-8.6-17c-0.7-5.3,0.1-11.9,0.2-12.6l3.2,1.3l-1.6-0.7
		l1.6,0.6c-0.2,1.5-0.6,6.2-0.2,9.4c0.4,3.1,4.1,8.7,7.4,13.6c3.6,5.3,7.6,11.4,10.3,17.9c3.4,8.2,3.9,15.9,1.7,23
		c-0.9,2.8-3,5.7-6.7,10.7c-6.3,8.6-15.9,21.6-13.6,32.4L1658.6,634.1z"/>
</g>
<g>
	<g>
		<line fill="#6BAB5B" x1="1806.9" y1="83.2" x2="1788.9" y2="77.2"/>
		<polygon fill="#3B972E" points="1806.7,84.8 1788.8,78.8 1789.1,75.6 1807,81.5 		"/>
	</g>
	<g>
		<line fill="#AA7DC0" x1="1789.8" y1="88.3" x2="1808.1" y2="91.5"/>
		<polygon fill="#945BB0" points="1808,93.1 1789.7,90 1789.9,86.7 1808.2,89.8 		"/>
	</g>
	<g>
		<line fill="#D66661" x1="1806.2" y1="100.5" x2="1797.1" y2="100"/>
		<polygon fill="#C93D39" points="1806.1,102.2 1797.1,101.6 1797.2,98.3 1806.3,98.9 		"/>
	</g>
	<g>
		<line fill="#6BAB5B" x1="1805.5" y1="117.7" x2="1795.5" y2="118.9"/>
		<polygon fill="#3B972E" points="1795.5,120.5 1795.5,117.2 1805.5,116.1 1805.5,119.4 		"/>
	</g>
	<g>
		<line fill="#AA7DC0" x1="1790.4" y1="129.5" x2="1808.7" y2="126.7"/>
		<polygon fill="#945BB0" points="1790.4,131.1 1790.4,127.9 1808.7,125.1 1808.7,128.4 		"/>
	</g>
	<g>
		<line fill="#D66661" x1="1787.5" y1="139.9" x2="1807.8" y2="136.9"/>
		<polygon fill="#C93D39" points="1787.5,141.6 1787.5,138.3 1807.8,135.2 1807.9,138.5 		"/>
	</g>
	<g>
		<line fill="#6B85DD" x1="1800.6" y1="147.7" x2="1789.7" y2="149.1"/>
		<polygon fill="#4266D5" points="1789.7,150.8 1789.7,147.5 1800.6,146 1800.6,149.3 		"/>
	</g>
	<g>
		<line fill="#6BAB5B" x1="1789.4" y1="165.6" x2="1800.5" y2="167.4"/>
		<polygon fill="#945BB0" points="1800.4,169.1 1789.3,167.2 1789.5,164 1800.6,165.8 		"/>
	</g>
	<g>
		<line fill="#C93D39" x1="1805.3" y1="178.2" x2="1787.1" y2="175.1"/>
		<polygon fill="#C93D39" points="1805.2,179.8 1787,176.7 1787.2,173.4 1805.5,176.5 		"/>
	</g>
	<g>
		<line fill="#4266D5" x1="1787.5" y1="181.8" x2="1806.7" y2="189.2"/>
		<polygon fill="#4266D5" points="1806.5,190.8 1787.3,183.4 1787.7,180.2 1806.9,187.6 		"/>
	</g>
	<path fill="#252525" d="M1809.1,195.2l-3.2-0.7c1-12-6.2-24.5-12-34.5c-4.1-7.2-7.4-12.8-7.9-18.2c-1.2-13.1,5.6-21.8,11.7-29.4
		c4.5-5.8,9.2-11.7,9.7-18.2c0.3-3.3-1.5-8.1-2.3-10l2.4-4.7c0.4,0.8,3.7,8.1,3.1,15.4c-0.8,9.6-6.1,16.4-11.3,23
		c-5.6,7.1-10.8,13.8-10.1,22.4c0.3,3.2,3.8,9.3,6.9,14.7C1802.4,165.9,1810.3,179.6,1809.1,195.2z"/>
	<path fill="#252525" d="M1785.9,184.5c-1.5-7.2-0.2-15,3.8-23.3c3.2-6.5,7.6-12.5,11.1-17.3c2.4-3.3,5.1-7,5.6-8.6
		c0.9-2.8,1.7-7.5-1.6-15.4c-2.4-5.9-6.3-11.7-9.8-16.9c-4.4-6.6-7.9-11.8-8.6-17c-0.7-5.3,0.1-11.9,0.2-12.6l3.2,1.3l-1.6-0.6
		l1.6,0.6c-0.2,1.5-0.6,6.2-0.2,9.4c0.4,3.1,4.1,8.7,7.4,13.6c3.6,5.3,7.6,11.4,10.3,17.9c3.4,8.2,3.9,15.9,1.7,23
		c-0.9,2.8-3,5.7-6.7,10.7c-6.3,8.6-15.9,21.6-13.6,32.4L1785.9,184.5z"/>
</g>
<g>
	<g>
		<line fill="#6BAB5B" x1="1808.5" y1="237.4" x2="1790.6" y2="231.4"/>
		<polygon fill="#3B972E" points="1808.3,239 1790.4,233 1790.8,229.8 1808.7,235.8 		"/>
	</g>
	<g>
		<line fill="#AA7DC0" x1="1791.5" y1="242.6" x2="1809.8" y2="245.7"/>
		<polygon fill="#945BB0" points="1809.7,247.3 1791.4,244.2 1791.6,240.9 1809.9,244.1 		"/>
	</g>
	<g>
		<line fill="#D66661" x1="1807.8" y1="254.8" x2="1798.8" y2="254.2"/>
		<polygon fill="#C93D39" points="1807.8,256.4 1798.7,255.8 1798.9,252.5 1807.9,253.1 		"/>
	</g>
	<g>
		<line fill="#6BAB5B" x1="1807.2" y1="272" x2="1797.2" y2="273.1"/>
		<polygon fill="#3B972E" points="1797.2,274.7 1797.2,271.4 1807.2,270.3 1807.2,273.6 		"/>
	</g>
	<g>
		<line fill="#AA7DC0" x1="1792.1" y1="283.7" x2="1810.3" y2="280.9"/>
		<polygon fill="#945BB0" points="1792.1,285.4 1792,282.1 1810.3,279.3 1810.4,282.6 		"/>
	</g>
	<g>
		<line fill="#D66661" x1="1789.2" y1="294.2" x2="1809.5" y2="291.1"/>
		<polygon fill="#C93D39" points="1789.2,295.8 1789.2,292.5 1809.5,289.5 1809.5,292.8 		"/>
	</g>
	<g>
		<line fill="#6B85DD" x1="1802.3" y1="301.9" x2="1791.3" y2="303.4"/>
		<polygon fill="#4266D5" points="1791.3,305 1791.3,301.7 1802.3,300.3 1802.3,303.5 		"/>
	</g>
	<g>
		<line fill="#6BAB5B" x1="1791.1" y1="319.8" x2="1802.1" y2="321.7"/>
		<polygon fill="#945BB0" points="1802,323.3 1791,321.5 1791.2,318.2 1802.3,320 		"/>
	</g>
	<g>
		<line fill="#C93D39" x1="1807" y1="332.4" x2="1788.7" y2="329.3"/>
		<polygon fill="#C93D39" points="1806.9,334.1 1788.6,330.9 1788.9,327.7 1807.1,330.8 		"/>
	</g>
	<g>
		<line fill="#4266D5" x1="1789.1" y1="336" x2="1808.3" y2="343.4"/>
		<polygon fill="#4266D5" points="1808.1,345.1 1788.9,337.6 1789.3,334.4 1808.5,341.8 		"/>
	</g>
	<path fill="#252525" d="M1810.7,349.4l-3.2-0.7c1-12-6.2-24.5-12-34.5c-4.1-7.2-7.4-12.8-7.9-18.2c-1.2-13.1,5.6-21.8,11.7-29.4
		c4.5-5.8,9.2-11.7,9.7-18.2c0.3-3.3-1.5-8.1-2.3-10l2.4-4.7c0.4,0.8,3.7,8.1,3.1,15.4c-0.8,9.6-6.1,16.4-11.3,23
		c-5.6,7.1-10.8,13.8-10.1,22.4c0.3,3.2,3.8,9.3,6.9,14.7C1804.1,320.2,1812,333.9,1810.7,349.4z"/>
	<path fill="#252525" d="M1787.6,338.7c-1.5-7.2-0.2-15,3.8-23.3c3.2-6.5,7.6-12.5,11.1-17.3c2.4-3.3,5.1-7,5.6-8.6
		c0.9-2.8,1.7-7.5-1.6-15.4c-2.4-5.9-6.3-11.7-9.8-16.9c-4.4-6.6-7.9-11.8-8.6-17c-0.7-5.3,0.1-11.9,0.2-12.6l3.2,1.3l-1.6-0.6
		l1.6,0.6c-0.2,1.5-0.6,6.2-0.2,9.4c0.4,3.1,4.1,8.7,7.4,13.6c3.6,5.3,7.6,11.4,10.3,17.9c3.4,8.2,3.9,15.9,1.7,23
		c-0.9,2.8-3,5.7-6.7,10.7c-6.3,8.6-15.9,21.6-13.6,32.4L1787.6,338.7z"/>
</g>
<circle fill="#D66661" stroke="#C93D39" stroke-width="3" cx="1638.7" cy="107.3" r="10.8"/>
<circle fill="#6BAB5B" stroke="#3B972E" stroke-width="3" cx="1652.7" cy="83.4" r="10.8"/>
<circle fill="#AA7DC0" stroke="#945BB0" stroke-width="3" cx="1666.9" cy="107.2" r="10.8"/>
<circle fill="#4C4C4C" stroke="#3A3A3A" stroke-width="3" stroke-miterlimit="10" cx="1825.1" cy="109.3" r="10.8"/>
<path fill="#252525" d="M1832.4,152.9c0,9.3,0,18.6,0,27.9c0,0.7-0.1,0.9-0.9,0.9c-5.2,0-10.3,0-15.5,0c-0.6,0-0.7-0.1-0.7-0.7
	c0-17.2,0-34.4,0-51.6c0-0.5,0.1-0.7,0.6-0.9c5.2-1.4,10.5-2.9,15.7-4.3c0.7-0.2,0.7,0,0.7,0.6
	C1832.4,134.2,1832.4,143.5,1832.4,152.9z"/>
<circle fill="#6B85DD" stroke="#4266D5" stroke-width="3" cx="1715.8" cy="263.1" r="10.8"/>
<path fill="#252525" d="M1707.1,315.6c0-10.4,0-20.8,0-31.2c0-0.5,0.1-0.8,0.7-1c5.2-1.4,10.3-2.8,15.5-4.3c0.9-0.2,0.9-0.2,0.9,0.7
	c0,16.9,0,33.9,0,50.8c0,3.6,0.2,7.3-0.2,10.9c-0.4,4.4-1.4,8.6-4.2,12.2c-2.5,3.1-5.8,4.8-9.7,5.5c-4.3,0.8-8.7,1-13.1,0.6
	c-3-0.3-5.9-1-8.4-2.9c-1.9-1.4-2.9-3.2-2.5-5.7c0.5-2.5,2.2-3.9,4.5-4.7c1.5-0.5,3-0.6,4.6-0.3c1.2,0.2,2.2,0.7,3.1,1.5
	c0.9,0.8,1.7,1.8,2.5,2.7c0.6,0.8,1.2,1.5,2,2c1.4,0.9,2.6,0.6,3.4-0.8c0.5-1,0.7-2,0.8-3.1c0.2-1.5,0.2-3.1,0.2-4.6
	C1707.1,334.4,1707.1,325,1707.1,315.6z"/>
<path fill="#252525" d="M1765.2,331.4c-1.9,1.6-3.8,2.8-5.8,3.9c-6.8,3.5-13.5,3-19.9-0.8c-4.4-2.6-7.2-6.5-8.2-11.6
	c-0.2-0.8-0.2-1.6-0.2-2.4c0-13,0-26,0-39c0-0.7,0.2-0.9,0.9-0.9c5.1,0,10.3,0,15.4,0c0.6,0,0.8,0.2,0.8,0.8c0,12.7,0,25.5,0,38.2
	c0,4.2,2.4,7.2,6.4,8.2c1.4,0.3,2.8,0.3,4.1-0.4c2.8-1.4,4.9-3.6,6.7-6.1c0.2-0.3,0.1-0.7,0.1-1c0-12.9,0-25.8,0-38.7
	c0-0.7,0.2-0.9,0.9-0.9c5.2,0,10.3,0,15.5,0c0.6,0,0.7,0.2,0.7,0.7c0,18.2,0,36.4,0,54.6c0,0.6-0.2,0.7-0.7,0.7
	c-5.2,0-10.4,0-15.6,0c-0.5,0-0.7-0.1-0.7-0.7C1765.2,334.4,1765.2,333,1765.2,331.4z"/>
<path fill="#252525" d="M1869.2,332.1c-0.5,0.4-0.9,0.7-1.3,1.1c-2.9,2.5-6.2,3.9-10,4.2c-3.8,0.3-7.5,0.2-11.1-1.3
	c-7.9-3.3-10.2-11.3-7.8-18c1.2-3.4,3.6-5.8,6.5-7.8c3.7-2.6,7.9-4.4,12.2-6c3.7-1.3,7.4-2.6,11.1-3.5c0.3-0.1,0.5-0.2,0.5-0.6
	c-0.1-2.9,0.2-5.8-0.3-8.7c-0.8-4.7-4.3-6.6-8.5-6.1c-0.3,0-0.7,0.1-1,0.2c-3.2,0.7-4.8,2.9-4.8,6.7c0,1.1-0.2,2.2-0.5,3.3
	c-0.6,2.1-2,3.5-4.1,4.1c-2.2,0.6-4.5,0.7-6.7-0.2c-4.3-1.7-5.8-6.7-3.4-10.9c1.5-2.5,3.7-4.2,6.2-5.5c4.1-2.1,8.5-3.3,13.1-3.6
	c5-0.4,9.9-0.2,14.8,1c2.8,0.7,5.5,1.8,7.7,3.7c2.9,2.5,4.5,5.7,4.5,9.4c0.1,14.1,0.1,28.2,0.1,42.4c0,0.5-0.2,0.6-0.7,0.6
	c-5.3,0-10.6,0-15.9,0c-0.5,0-0.6-0.1-0.6-0.6C1869.2,334.7,1869.2,333.5,1869.2,332.1z M1869.2,307.6c-3.2,1.4-6.1,2.9-8.7,4.9
	c-1.4,1.1-2.7,2.3-3.8,3.7c-2.8,3.4-1.3,8.8,1.1,10.9c1,0.9,2.2,1.3,3.6,1c1.1-0.2,2.1-0.6,3-1.1c1-0.6,1.9-1.4,3-1.9
	c1.5-0.8,2-1.9,1.9-3.6C1869.1,316.9,1869.2,312.3,1869.2,307.6z"/>
<circle fill="#D66661" stroke="#C93D39" stroke-width="3" cx="1827.3" cy="263.6" r="10.8"/>
<circle fill="#6BAB5B" stroke="#3B972E" stroke-width="3" cx="1841.3" cy="239.7" r="10.8"/>
<circle fill="#AA7DC0" stroke="#945BB0" stroke-width="3" cx="1855.5" cy="263.4" r="10.8"/>
<circle fill="#4C4C4C" stroke="#3A3A3A" stroke-width="3" stroke-miterlimit="10" cx="1638.4" cy="263.8" r="10.8"/>
<path fill="#252525" d="M1646.8,1002.7c0,9.3,0,18.6,0,27.9c0,0.7-0.1,0.9-0.9,0.9c-5.2,0-10.3,0-15.5,0c-0.6,0-0.7-0.1-0.7-0.7
	c0-17.2,0-34.4,0-51.6c0-0.5,0.1-0.7,0.6-0.9c5.2-1.4,10.5-2.9,15.7-4.3c0.7-0.2,0.7,0,0.7,0.6
	C1646.8,984,1646.8,993.4,1646.8,1002.7z"/>
<circle fill="#4C4C4C" stroke="#3A3A3A" stroke-width="3" stroke-miterlimit="10" cx="1638.3" cy="958.3" r="10.8"/>
<circle fill="#4C4C4C" stroke="#3A3A3A" stroke-width="3" stroke-miterlimit="10" cx="417.5" cy="1013.4" r="10.8"/>
<circle fill="#4C4C4C" stroke="#3A3A3A" stroke-width="3" stroke-miterlimit="10" cx="939.3" cy="477.3" r="10.8"/>
<path fill="#252525" d="M456.3,1031.3c4.2,0,7.8,0.7,10.9,2c3.1,1.3,5.6,3.2,7.6,5.7c2,2.5,3.5,5.5,4.5,9.2c1,3.6,1.5,7.7,1.5,12.3
	c0,4.6-0.5,8.7-1.5,12.3c-1,3.6-2.5,6.7-4.4,9.2c-2,2.5-4.5,4.4-7.6,5.7c-3.1,1.3-7.7,2-11.9,2c-4.2,0-6.8-0.7-9.9-2
	c-3.1-1.3-5.6-3.2-7.6-5.7c-2-2.5-3.5-5.5-4.4-9.2c-1-3.6-1.5-7.7-1.5-12.3c0-4.6,0.5-8.7,1.5-12.3c1-3.6,2.5-6.7,4.4-9.2
	c2-2.5,4.5-4.4,7.6-5.7C448.5,1031.9,452.2,1031.3,456.3,1031.3z M456.8,1039.2c-2.4,0-4.1,1.7-5.2,5.1c-1.1,3.4-1.7,8.6-1.7,15.7
	c0,7.2,0.6,12.4,1.7,15.8c1.1,3.3,2.8,5,5.2,5c2.4,0,4.2-1.7,5.3-5.1c1.1-3.4,1.7-8.6,1.7-15.7c0-7.1-0.6-12.3-1.7-15.7
	C460.9,1040.9,459.2,1039.2,456.8,1039.2z"/>
<path fill="#252525" d="M1678.6,973.4c4.2,0,7.8,0.7,10.9,2c3.1,1.3,5.6,3.2,7.6,5.7c2,2.5,3.5,5.5,4.5,9.2c1,3.6,1.5,7.7,1.5,12.3
	s-0.5,8.7-1.5,12.3c-1,3.6-2.5,6.7-4.4,9.2c-2,2.5-4.5,4.4-7.6,5.7c-3.1,1.3-7.7,2-11.9,2c-4.2,0-6.8-0.7-9.9-2
	c-3.1-1.3-5.6-3.2-7.6-5.7c-2-2.5-3.5-5.5-4.4-9.2c-1-3.6-1.5-7.7-1.5-12.3s0.5-8.7,1.5-12.3c1-3.6,2.5-6.7,4.4-9.2
	c2-2.5,4.5-4.4,7.6-5.7C1670.8,974.1,1674.4,973.4,1678.6,973.4z M1679,981.3c-2.4,0-4.1,1.7-5.2,5.1c-1.1,3.4-1.7,8.6-1.7,15.7
	c0,7.2,0.6,12.4,1.7,15.8c1.1,3.3,2.8,5,5.2,5c2.4,0,4.2-1.7,5.3-5.1c1.1-3.4,1.7-8.6,1.7-15.7c0-7.1-0.6-12.3-1.7-15.7
	C1683.2,983,1681.5,981.3,1679,981.3z"/>
<path fill="#252525" d="M426,1058.4c0,9.3,0,18.6,0,27.9c0,0.7-0.1,0.9-0.9,0.9c-5.2,0-10.3,0-15.5,0c-0.6,0-0.7-0.1-0.7-0.7
	c0-17.2,0-34.4,0-51.6c0-0.5,0.1-0.7,0.6-0.9c5.2-1.4,10.5-2.9,15.7-4.3c0.7-0.2,0.7,0,0.7,0.6C426,1039.7,426,1049.1,426,1058.4z"
	/>
<path fill="#252525" d="M1833.5,308.2c0,9.3,0,18.6,0,27.9c0,0.7-0.1,0.9-0.9,0.9c-5.2,0-10.3,0-15.5,0c-0.6,0-0.7-0.1-0.7-0.7
	c0-17.2,0-34.4,0-51.6c0-0.5,0.1-0.7,0.6-0.9c5.2-1.4,10.5-2.9,15.7-4.3c0.7-0.2,0.7,0,0.7,0.6
	C1833.5,289.5,1833.5,298.9,1833.5,308.2z"/>
<g>
	<g>
		<line fill="#6BAB5B" x1="1809.6" y1="383.3" x2="1791.6" y2="377.3"/>
		<polygon fill="#3B972E" points="1809.4,384.9 1791.5,378.9 1791.8,375.7 1809.7,381.6 		"/>
	</g>
	<g>
		<line fill="#AA7DC0" x1="1792.5" y1="388.4" x2="1810.8" y2="391.6"/>
		<polygon fill="#945BB0" points="1810.7,393.2 1792.4,390.1 1792.6,386.8 1810.9,389.9 		"/>
	</g>
	<g>
		<line fill="#D66661" x1="1808.9" y1="400.7" x2="1799.8" y2="400.1"/>
		<polygon fill="#C93D39" points="1808.8,402.3 1799.8,401.7 1799.9,398.4 1809,399 		"/>
	</g>
	<g>
		<line fill="#6BAB5B" x1="1808.2" y1="417.9" x2="1798.2" y2="419"/>
		<polygon fill="#3B972E" points="1798.2,420.6 1798.2,417.3 1808.2,416.2 1808.2,419.5 		"/>
	</g>
	<g>
		<line fill="#AA7DC0" x1="1793.1" y1="429.6" x2="1811.4" y2="426.8"/>
		<polygon fill="#945BB0" points="1793.1,431.2 1793.1,428 1811.4,425.2 1811.4,428.5 		"/>
	</g>
	<g>
		<line fill="#D66661" x1="1790.2" y1="440.1" x2="1810.5" y2="437"/>
		<polygon fill="#C93D39" points="1790.2,441.7 1790.2,438.4 1810.5,435.3 1810.6,438.6 		"/>
	</g>
	<g>
		<line fill="#6B85DD" x1="1803.3" y1="447.8" x2="1792.4" y2="449.2"/>
		<polygon fill="#4266D5" points="1792.4,450.9 1792.4,447.6 1803.3,446.1 1803.3,449.4 		"/>
	</g>
	<g>
		<line fill="#6BAB5B" x1="1792.1" y1="465.7" x2="1803.2" y2="467.6"/>
		<polygon fill="#945BB0" points="1803.1,469.2 1792,467.4 1792.2,464.1 1803.3,465.9 		"/>
	</g>
	<g>
		<line fill="#C93D39" x1="1808" y1="478.3" x2="1789.8" y2="475.2"/>
		<polygon fill="#C93D39" points="1807.9,479.9 1789.7,476.8 1789.9,473.5 1808.2,476.6 		"/>
	</g>
	<g>
		<line fill="#4266D5" x1="1790.2" y1="481.9" x2="1809.4" y2="489.3"/>
		<polygon fill="#4266D5" points="1809.2,490.9 1790,483.5 1790.4,480.3 1809.6,487.7 		"/>
	</g>
	<path fill="#252525" d="M1811.8,495.3l-3.2-0.7c1-12-6.2-24.5-12-34.5c-4.1-7.2-7.4-12.8-7.9-18.2c-1.2-13.1,5.6-21.8,11.7-29.4
		c4.5-5.8,9.2-11.7,9.7-18.2c0.3-3.3-1.5-8.1-2.3-10l2.4-4.7c0.4,0.8,3.7,8.1,3.1,15.4c-0.8,9.6-6.1,16.4-11.3,23
		c-5.6,7.1-10.8,13.8-10.1,22.4c0.3,3.2,3.8,9.3,6.9,14.7C1805.1,466,1813,479.8,1811.8,495.3z"/>
	<path fill="#252525" d="M1788.6,484.6c-1.5-7.2-0.2-15,3.8-23.3c3.2-6.5,7.6-12.5,11.1-17.3c2.4-3.3,5.1-7,5.6-8.6
		c0.9-2.8,1.7-7.5-1.6-15.4c-2.4-5.9-6.3-11.7-9.8-16.9c-4.4-6.6-7.9-11.8-8.6-17c-0.7-5.3,0.1-11.9,0.2-12.6l3.2,1.3l-1.6-0.6
		l1.6,0.6c-0.2,1.5-0.6,6.2-0.2,9.4c0.4,3.1,4.1,8.7,7.4,13.6c3.6,5.3,7.6,11.4,10.3,17.9c3.4,8.2,3.9,15.9,1.7,23
		c-0.9,2.8-3,5.7-6.7,10.7c-6.3,8.6-15.9,21.6-13.6,32.4L1788.6,484.6z"/>
</g>
<circle fill="#6B85DD" stroke="#4266D5" stroke-width="3" cx="1716.9" cy="409" r="10.8"/>
<path fill="#252525" d="M1708.1,461.4c0-10.4,0-20.8,0-31.2c0-0.5,0.1-0.8,0.7-1c5.2-1.4,10.3-2.8,15.5-4.3c0.9-0.2,0.9-0.2,0.9,0.7
	c0,16.9,0,33.9,0,50.8c0,3.6,0.2,7.3-0.2,10.9c-0.4,4.4-1.4,8.6-4.2,12.2c-2.5,3.1-5.9,4.8-9.7,5.5c-4.3,0.8-8.7,1-13.1,0.6
	c-3-0.3-5.9-1-8.4-2.9c-1.9-1.4-2.9-3.2-2.5-5.7c0.5-2.5,2.2-3.9,4.5-4.7c1.5-0.5,3-0.6,4.6-0.3c1.2,0.2,2.2,0.7,3.1,1.5
	c0.9,0.8,1.7,1.8,2.5,2.7c0.6,0.8,1.2,1.5,2,2c1.4,0.9,2.6,0.6,3.4-0.8c0.5-1,0.7-2,0.8-3.1c0.2-1.5,0.2-3.1,0.2-4.6
	C1708.1,480.3,1708.1,470.9,1708.1,461.4z"/>
<path fill="#252525" d="M1766.2,477.3c-1.9,1.6-3.8,2.8-5.8,3.9c-6.8,3.5-13.5,3-19.9-0.8c-4.4-2.6-7.2-6.5-8.2-11.6
	c-0.2-0.8-0.2-1.6-0.2-2.4c0-13,0-26,0-39c0-0.7,0.2-0.9,0.9-0.9c5.1,0,10.3,0,15.4,0c0.6,0,0.8,0.2,0.8,0.8c0,12.7,0,25.5,0,38.2
	c0,4.2,2.4,7.2,6.4,8.2c1.4,0.3,2.8,0.3,4.1-0.4c2.8-1.4,4.9-3.6,6.7-6.1c0.2-0.3,0.1-0.7,0.1-1c0-12.9,0-25.8,0-38.7
	c0-0.7,0.2-0.9,0.9-0.9c5.2,0,10.3,0,15.5,0c0.6,0,0.7,0.2,0.7,0.7c0,18.2,0,36.4,0,54.6c0,0.6-0.2,0.7-0.7,0.7
	c-5.2,0-10.4,0-15.6,0c-0.5,0-0.7-0.1-0.7-0.7C1766.2,480.3,1766.2,478.9,1766.2,477.3z"/>
<path fill="#252525" d="M1870.2,478c-0.5,0.4-0.9,0.7-1.3,1.1c-2.9,2.5-6.2,3.9-10,4.2c-3.8,0.3-7.5,0.2-11.1-1.3
	c-7.9-3.3-10.2-11.3-7.8-18c1.2-3.4,3.6-5.8,6.5-7.8c3.7-2.6,7.9-4.4,12.2-6c3.7-1.3,7.4-2.6,11.1-3.5c0.3-0.1,0.5-0.2,0.5-0.6
	c-0.1-2.9,0.2-5.8-0.3-8.7c-0.8-4.7-4.3-6.6-8.5-6.1c-0.3,0-0.7,0.1-1,0.2c-3.2,0.7-4.8,2.9-4.8,6.7c0,1.1-0.2,2.2-0.5,3.3
	c-0.6,2.1-2,3.5-4.1,4.1c-2.2,0.6-4.5,0.7-6.7-0.2c-4.3-1.7-5.8-6.7-3.4-10.9c1.5-2.5,3.7-4.2,6.2-5.5c4.1-2.1,8.5-3.3,13.1-3.6
	c5-0.4,9.9-0.2,14.8,1c2.8,0.7,5.5,1.8,7.7,3.7c2.9,2.5,4.5,5.7,4.5,9.4c0.1,14.1,0.1,28.2,0.1,42.4c0,0.5-0.2,0.6-0.7,0.6
	c-5.3,0-10.6,0-15.9,0c-0.5,0-0.6-0.1-0.6-0.6C1870.3,480.6,1870.2,479.4,1870.2,478z M1870.2,453.5c-3.2,1.4-6.1,2.9-8.7,4.9
	c-1.4,1.1-2.7,2.3-3.8,3.7c-2.8,3.4-1.3,8.8,1.1,10.9c1,0.9,2.2,1.3,3.6,1c1.1-0.2,2.1-0.6,3-1.1c1-0.6,1.9-1.4,3-1.9
	c1.5-0.8,2-1.9,1.9-3.6C1870.1,462.8,1870.2,458.2,1870.2,453.5z"/>
<circle fill="#D66661" stroke="#C93D39" stroke-width="3" cx="1828.3" cy="409.5" r="10.8"/>
<circle fill="#6BAB5B" stroke="#3B972E" stroke-width="3" cx="1842.4" cy="385.5" r="10.8"/>
<circle fill="#AA7DC0" stroke="#945BB0" stroke-width="3" cx="1856.6" cy="409.3" r="10.8"/>
<circle fill="#D66661" stroke="#C93D39" stroke-width="3" cx="1641.9" cy="410.4" r="10.8"/>
<circle fill="#6BAB5B" stroke="#3B972E" stroke-width="3" cx="1655.9" cy="386.5" r="10.8"/>
<circle fill="#AA7DC0" stroke="#945BB0" stroke-width="3" cx="1670.1" cy="410.2" r="10.8"/>
<circle fill="#D66661" stroke="#C93D39" stroke-width="3" cx="1646.2" cy="712.3" r="10.8"/>
<circle fill="#6BAB5B" stroke="#3B972E" stroke-width="3" cx="1660.2" cy="688.3" r="10.8"/>
<circle fill="#AA7DC0" stroke="#945BB0" stroke-width="3" cx="1674.4" cy="712.1" r="10.8"/>
<path fill="#252525" d="M1834.5,454.1c0,9.3,0,18.6,0,27.9c0,0.7-0.1,0.9-0.9,0.9c-5.2,0-10.3,0-15.5,0c-0.6,0-0.7-0.1-0.7-0.7
	c0-17.2,0-34.4,0-51.6c0-0.5,0.1-0.7,0.6-0.9c5.2-1.4,10.5-2.9,15.7-4.3c0.7-0.2,0.7,0,0.7,0.6
	C1834.5,435.4,1834.5,444.7,1834.5,454.1z"/>
<circle fill="#6B85DD" stroke="#4266D5" stroke-width="3" cx="1656" cy="1481" r="10.8"/>
<circle fill="#D66661" stroke="#C93D39" stroke-width="3" cx="1762.5" cy="1482" r="10.8"/>
<circle fill="#6BAB5B" stroke="#3B972E" stroke-width="3" cx="1776.6" cy="1458.1" r="10.8"/>
<circle fill="#AA7DC0" stroke="#945BB0" stroke-width="3" cx="1790.8" cy="1481.8" r="10.8"/>
<path fill="#252525" d="M1647.3,1533.4c0-10.4,0-20.8,0-31.2c0-0.5,0.1-0.8,0.7-1c5.2-1.4,10.3-2.8,15.5-4.3
	c0.9-0.2,0.9-0.2,0.9,0.7c0,16.9,0,33.9,0,50.8c0,3.6,0.2,7.3-0.2,10.9c-0.4,4.4-1.4,8.6-4.2,12.2c-2.5,3.1-5.8,4.8-9.7,5.5
	c-4.3,0.8-8.7,1-13.1,0.6c-3-0.3-5.9-1-8.4-2.9c-1.9-1.4-2.9-3.2-2.5-5.7c0.5-2.5,2.2-3.9,4.5-4.7c1.5-0.5,3-0.6,4.6-0.3
	c1.2,0.2,2.2,0.7,3.1,1.5c0.9,0.8,1.7,1.8,2.5,2.7c0.6,0.8,1.2,1.5,2,2c1.4,0.9,2.6,0.6,3.4-0.8c0.5-1,0.7-2,0.8-3.1
	c0.2-1.5,0.2-3.1,0.2-4.6C1647.3,1552.3,1647.3,1542.8,1647.3,1533.4z"/>
<path fill="#252525" d="M1705.4,1549.2c-1.9,1.6-3.8,2.8-5.8,3.9c-6.8,3.5-13.5,3-19.9-0.8c-4.4-2.6-7.2-6.5-8.2-11.6
	c-0.2-0.8-0.2-1.6-0.2-2.4c0-13,0-26,0-39c0-0.7,0.2-0.9,0.9-0.9c5.1,0,10.3,0,15.4,0c0.6,0,0.8,0.2,0.8,0.8c0,12.7,0,25.4,0,38.2
	c0,4.2,2.4,7.2,6.4,8.2c1.4,0.3,2.8,0.3,4.1-0.4c2.8-1.4,4.9-3.6,6.7-6.1c0.2-0.3,0.1-0.7,0.1-1c0-12.9,0-25.8,0-38.7
	c0-0.7,0.2-0.9,0.9-0.9c5.2,0,10.3,0,15.5,0c0.6,0,0.7,0.2,0.7,0.7c0,18.2,0,36.4,0,54.6c0,0.6-0.2,0.7-0.7,0.7
	c-5.2,0-10.4,0-15.6,0c-0.5,0-0.7-0.1-0.7-0.7C1705.4,1552.3,1705.4,1550.8,1705.4,1549.2z"/>
<path fill="#252525" d="M1746.1,1512.8c0,13.6,0,27.1,0,40.7c0,0.7-0.2,0.9-0.9,0.9c-5.1,0-10.3,0-15.4,0c-0.6,0-0.7-0.1-0.7-0.7
	c0-25.7,0-51.4,0-77.1c0-0.5,0.1-0.8,0.7-0.9c5.2-1.4,10.3-2.8,15.5-4.3c0.7-0.2,0.9-0.1,0.9,0.6
	C1746.1,1485.6,1746.1,1499.2,1746.1,1512.8z"/>
<path fill="#252525" d="M1769.8,1525.5c0,9.3,0,18.6,0,27.9c0,0.7-0.1,0.9-0.9,0.9c-5.2,0-10.3,0-15.5,0c-0.6,0-0.7-0.1-0.7-0.7
	c0-17.2,0-34.4,0-51.6c0-0.5,0.1-0.7,0.6-0.9c5.2-1.4,10.5-2.9,15.7-4.3c0.7-0.2,0.7,0,0.7,0.6
	C1769.7,1506.8,1769.8,1516.2,1769.8,1525.5z"/>
<path fill="#252525" d="M1805.4,1549.9c-0.5,0.4-0.9,0.7-1.3,1.1c-2.9,2.5-6.2,3.9-10,4.2c-3.8,0.3-7.5,0.2-11.1-1.3
	c-7.9-3.3-10.2-11.3-7.8-18c1.2-3.4,3.6-5.8,6.5-7.8c3.7-2.6,7.9-4.4,12.2-6c3.7-1.3,7.4-2.6,11.1-3.5c0.3-0.1,0.5-0.2,0.5-0.6
	c-0.1-2.9,0.2-5.8-0.3-8.7c-0.8-4.7-4.3-6.6-8.5-6.1c-0.3,0-0.7,0.1-1,0.2c-3.2,0.7-4.8,2.9-4.8,6.7c0,1.1-0.2,2.2-0.5,3.3
	c-0.6,2.1-2,3.5-4.1,4.1c-2.2,0.6-4.5,0.7-6.7-0.2c-4.3-1.7-5.8-6.7-3.4-10.9c1.5-2.5,3.7-4.2,6.2-5.5c4.1-2.1,8.5-3.3,13.1-3.6
	c5-0.4,9.9-0.2,14.8,1c2.8,0.7,5.5,1.8,7.7,3.7c2.9,2.5,4.5,5.7,4.5,9.5c0.1,14.1,0.1,28.2,0.1,42.4c0,0.5-0.2,0.6-0.7,0.6
	c-5.3,0-10.6,0-15.9,0c-0.5,0-0.6-0.1-0.6-0.6C1805.4,1552.6,1805.4,1551.3,1805.4,1549.9z M1805.4,1525.5c-3.2,1.4-6.1,2.9-8.7,4.9
	c-1.4,1.1-2.7,2.3-3.8,3.7c-2.8,3.4-1.3,8.8,1.1,10.9c1,0.9,2.2,1.3,3.6,1c1.1-0.2,2.1-0.6,3-1.1c1-0.6,1.9-1.4,3-1.9
	c1.5-0.8,2-1.9,1.9-3.6C1805.3,1534.8,1805.4,1530.2,1805.4,1525.5z"/>
<g>
	<circle fill="#6B85DD" stroke="#4266D5" stroke-width="3" cx="1702.6" cy="564.8" r="10.8"/>
	<circle fill="#D66661" stroke="#C93D39" stroke-width="3" cx="1809.1" cy="565.9" r="10.8"/>
	<circle fill="#6BAB5B" stroke="#3B972E" stroke-width="3" cx="1823.1" cy="542" r="10.8"/>
	<circle fill="#AA7DC0" stroke="#945BB0" stroke-width="3" cx="1837.4" cy="565.7" r="10.8"/>
	<path fill="#252525" d="M1693.9,617.3c0-10.4,0-20.8,0-31.2c0-0.5,0.1-0.8,0.7-1c5.2-1.4,10.3-2.8,15.5-4.3
		c0.9-0.2,0.9-0.2,0.9,0.7c0,16.9,0,33.9,0,50.8c0,3.6,0.2,7.3-0.2,10.9c-0.4,4.4-1.4,8.6-4.2,12.2c-2.5,3.1-5.8,4.8-9.7,5.5
		c-4.3,0.8-8.7,1-13.1,0.6c-3-0.3-5.9-1-8.4-2.9c-1.9-1.4-2.9-3.2-2.5-5.7c0.5-2.5,2.2-3.9,4.5-4.7c1.5-0.5,3-0.6,4.6-0.3
		c1.2,0.2,2.2,0.7,3.1,1.5c0.9,0.8,1.7,1.8,2.5,2.7c0.6,0.8,1.2,1.5,2,2c1.4,0.9,2.6,0.6,3.4-0.8c0.5-1,0.7-2,0.8-3.1
		c0.2-1.5,0.2-3.1,0.2-4.6C1693.9,636.2,1693.9,626.7,1693.9,617.3z"/>
	<path fill="#252525" d="M1752,633.1c-1.9,1.6-3.8,2.8-5.8,3.9c-6.8,3.5-13.5,3-19.9-0.8c-4.4-2.6-7.2-6.5-8.2-11.6
		c-0.2-0.8-0.2-1.6-0.2-2.4c0-13,0-26,0-39c0-0.7,0.2-0.9,0.9-0.9c5.1,0,10.3,0,15.4,0c0.6,0,0.8,0.2,0.8,0.8c0,12.7,0,25.5,0,38.2
		c0,4.2,2.4,7.2,6.4,8.2c1.4,0.3,2.8,0.3,4.1-0.4c2.8-1.4,4.9-3.6,6.7-6.1c0.2-0.3,0.1-0.7,0.1-1c0-12.9,0-25.8,0-38.7
		c0-0.7,0.2-0.9,0.9-0.9c5.2,0,10.3,0,15.5,0c0.6,0,0.7,0.2,0.7,0.7c0,18.2,0,36.4,0,54.6c0,0.6-0.2,0.7-0.7,0.7
		c-5.2,0-10.4,0-15.6,0c-0.5,0-0.7-0.1-0.7-0.7C1752,636.1,1752,634.7,1752,633.1z"/>
	<path fill="#252525" d="M1792.6,596.7c0,13.6,0,27.1,0,40.7c0,0.7-0.2,0.9-0.9,0.9c-5.1,0-10.3,0-15.4,0c-0.6,0-0.7-0.1-0.7-0.7
		c0-25.7,0-51.4,0-77.1c0-0.5,0.1-0.8,0.7-0.9c5.2-1.4,10.3-2.8,15.5-4.3c0.7-0.2,0.9-0.1,0.9,0.6
		C1792.6,569.5,1792.6,583.1,1792.6,596.7z"/>
	<path fill="#252525" d="M1816.3,609.4c0,9.3,0,18.6,0,27.9c0,0.7-0.1,0.9-0.9,0.9c-5.2,0-10.3,0-15.5,0c-0.6,0-0.7-0.1-0.7-0.7
		c0-17.2,0-34.4,0-51.6c0-0.5,0.1-0.7,0.6-0.9c5.2-1.4,10.5-2.9,15.7-4.3c0.7-0.2,0.7,0,0.7,0.6
		C1816.3,590.7,1816.3,600.1,1816.3,609.4z"/>
	<path fill="#252525" d="M1852,633.8c-0.5,0.4-0.9,0.7-1.3,1.1c-2.9,2.5-6.2,3.9-10,4.2c-3.8,0.3-7.5,0.2-11.1-1.3
		c-7.9-3.3-10.2-11.3-7.8-18c1.2-3.4,3.6-5.8,6.5-7.8c3.7-2.6,7.9-4.4,12.2-6c3.7-1.3,7.4-2.6,11.1-3.5c0.3-0.1,0.5-0.2,0.5-0.6
		c-0.1-2.9,0.2-5.8-0.3-8.7c-0.8-4.7-4.3-6.6-8.5-6.1c-0.3,0-0.7,0.1-1,0.2c-3.2,0.7-4.8,2.9-4.8,6.7c0,1.1-0.2,2.2-0.5,3.3
		c-0.6,2.1-2,3.5-4.1,4.1c-2.2,0.6-4.5,0.7-6.7-0.2c-4.3-1.7-5.8-6.7-3.4-10.9c1.5-2.5,3.7-4.2,6.2-5.5c4.1-2.1,8.5-3.3,13.1-3.6
		c5-0.4,9.9-0.2,14.8,1c2.8,0.7,5.5,1.8,7.7,3.7c2.9,2.5,4.5,5.7,4.5,9.4c0.1,14.1,0.1,28.2,0.1,42.4c0,0.5-0.2,0.6-0.7,0.6
		c-5.3,0-10.6,0-15.9,0c-0.5,0-0.6-0.1-0.6-0.6C1852,636.4,1852,635.2,1852,633.8z M1852,609.4c-3.2,1.4-6.1,2.9-8.7,4.9
		c-1.4,1.1-2.7,2.3-3.8,3.7c-2.8,3.4-1.3,8.8,1.1,10.9c1,0.9,2.2,1.3,3.6,1c1.1-0.2,2.1-0.6,3-1.1c1-0.6,1.9-1.4,3-1.9
		c1.5-0.8,2-1.9,1.9-3.6C1851.9,618.6,1852,614.1,1852,609.4z"/>
</g>
<g>
	<g>
		<line fill="#6BAB5B" x1="1680" y1="1279.8" x2="1686" y2="1261.8"/>
		<polygon fill="#3B972E" points="1678.4,1279.6 1684.4,1261.7 1687.6,1262 1681.6,1279.9 		"/>
	</g>
	<g>
		<line fill="#AA7DC0" x1="1674.8" y1="1262.7" x2="1671.7" y2="1281"/>
		<polygon fill="#945BB0" points="1670.1,1280.9 1673.2,1262.6 1676.5,1262.9 1673.3,1281.1 		"/>
	</g>
	<g>
		<line fill="#D66661" x1="1662.6" y1="1279.1" x2="1663.2" y2="1270"/>
		<polygon fill="#C93D39" points="1661,1279 1661.6,1270 1664.9,1270.1 1664.3,1279.2 		"/>
	</g>
	<g>
		<line fill="#6BAB5B" x1="1645.4" y1="1278.4" x2="1644.3" y2="1268.4"/>
		<polygon fill="#3B972E" points="1642.7,1268.4 1646,1268.4 1647.1,1278.4 1643.8,1278.4 		"/>
	</g>
	<g>
		<line fill="#AA7DC0" x1="1633.7" y1="1263.3" x2="1636.5" y2="1281.6"/>
		<polygon fill="#945BB0" points="1632,1263.3 1635.3,1263.3 1638.1,1281.6 1634.8,1281.6 		"/>
	</g>
	<g>
		<line fill="#D66661" x1="1623.2" y1="1260.4" x2="1626.3" y2="1280.7"/>
		<polygon fill="#C93D39" points="1621.6,1260.4 1624.9,1260.4 1627.9,1280.7 1624.6,1280.8 		"/>
	</g>
	<g>
		<line fill="#6B85DD" x1="1615.5" y1="1273.5" x2="1614" y2="1262.6"/>
		<polygon fill="#4266D5" points="1612.4,1262.6 1615.7,1262.6 1617.1,1273.5 1613.9,1273.5 		"/>
	</g>
	<g>
		<line fill="#6BAB5B" x1="1597.6" y1="1262.3" x2="1595.7" y2="1273.4"/>
		<polygon fill="#945BB0" points="1594.1,1273.3 1595.9,1262.2 1599.2,1262.4 1597.4,1273.5 		"/>
	</g>
	<g>
		<line fill="#C93D39" x1="1585" y1="1278.2" x2="1588.1" y2="1260"/>
		<polygon fill="#C93D39" points="1583.3,1278.1 1586.5,1259.9 1589.7,1260.1 1586.6,1278.4 		"/>
	</g>
	<g>
		<line fill="#4266D5" x1="1581.4" y1="1260.4" x2="1573.9" y2="1279.6"/>
		<polygon fill="#4266D5" points="1572.3,1279.4 1579.8,1260.2 1583,1260.6 1575.6,1279.8 		"/>
	</g>
	<path fill="#252525" d="M1568,1282l0.7-3.2c12,1,24.5-6.2,34.5-12c7.2-4.1,12.8-7.4,18.2-7.9c13.1-1.2,21.8,5.6,29.4,11.7
		c5.8,4.5,11.7,9.2,18.2,9.7c3.3,0.3,8.1-1.5,10-2.3l4.7,2.4c-0.8,0.4-8.1,3.7-15.4,3.1c-9.6-0.8-16.4-6.1-23-11.3
		c-7.1-5.6-13.8-10.8-22.4-10.1c-3.2,0.3-9.3,3.8-14.7,6.9C1597.2,1275.3,1583.5,1283.2,1568,1282z"/>
	<path fill="#252525" d="M1578.7,1258.8c7.2-1.5,15-0.2,23.3,3.8c6.5,3.2,12.5,7.6,17.3,11.1c3.3,2.4,7,5.1,8.6,5.6
		c2.8,0.9,7.5,1.7,15.4-1.6c5.9-2.4,11.7-6.3,16.9-9.8c6.6-4.4,11.8-7.9,17-8.6c5.3-0.7,11.9,0.1,12.6,0.2l-1.3,3.2l0.7-1.6
		l-0.6,1.6c-1.5-0.2-6.2-0.6-9.4-0.2c-3.1,0.4-8.7,4.1-13.6,7.4c-5.3,3.6-11.4,7.6-17.9,10.3c-8.2,3.4-15.9,3.9-23,1.7
		c-2.8-0.9-5.7-3-10.7-6.7c-8.6-6.3-21.6-15.9-32.4-13.6L1578.7,1258.8z"/>
</g>
<g>
	<circle fill="#6B85DD" stroke="#4266D5" stroke-width="3" cx="1705.5" cy="1204.4" r="10.8"/>
	<circle fill="#D66661" stroke="#C93D39" stroke-width="3" cx="1812" cy="1205.4" r="10.8"/>
	<circle fill="#6BAB5B" stroke="#3B972E" stroke-width="3" cx="1826" cy="1181.5" r="10.8"/>
	<circle fill="#AA7DC0" stroke="#945BB0" stroke-width="3" cx="1840.3" cy="1205.3" r="10.8"/>
	<path fill="#252525" d="M1696.8,1256.8c0-10.4,0-20.8,0-31.2c0-0.5,0.1-0.8,0.7-1c5.2-1.4,10.3-2.8,15.5-4.3
		c0.9-0.2,0.9-0.2,0.9,0.7c0,16.9,0,33.9,0,50.8c0,3.6,0.2,7.3-0.2,10.9c-0.4,4.4-1.4,8.6-4.2,12.2c-2.5,3.1-5.8,4.8-9.7,5.5
		c-4.3,0.8-8.7,1-13.1,0.6c-3-0.3-5.9-1-8.4-2.9c-1.9-1.4-2.9-3.2-2.5-5.7c0.5-2.5,2.2-3.9,4.5-4.7c1.5-0.5,3-0.6,4.6-0.3
		c1.2,0.2,2.2,0.7,3.1,1.5c0.9,0.8,1.7,1.8,2.5,2.7c0.6,0.8,1.2,1.5,2,2c1.4,0.9,2.6,0.6,3.4-0.8c0.5-1,0.7-2,0.8-3.1
		c0.2-1.5,0.2-3.1,0.2-4.6C1696.8,1275.7,1696.8,1266.3,1696.8,1256.8z"/>
	<path fill="#252525" d="M1754.8,1272.6c-1.9,1.6-3.8,2.8-5.8,3.9c-6.8,3.5-13.5,3-19.9-0.8c-4.4-2.6-7.2-6.5-8.2-11.6
		c-0.2-0.8-0.2-1.6-0.2-2.4c0-13,0-26,0-39c0-0.7,0.2-0.9,0.9-0.9c5.1,0,10.3,0,15.4,0c0.6,0,0.8,0.2,0.8,0.8c0,12.7,0,25.5,0,38.2
		c0,4.2,2.4,7.2,6.4,8.2c1.4,0.3,2.8,0.3,4.1-0.4c2.8-1.4,4.9-3.6,6.7-6.1c0.2-0.3,0.1-0.7,0.1-1c0-12.9,0-25.8,0-38.7
		c0-0.7,0.2-0.9,0.9-0.9c5.2,0,10.3,0,15.5,0c0.6,0,0.7,0.2,0.7,0.7c0,18.2,0,36.4,0,54.6c0,0.6-0.2,0.7-0.7,0.7
		c-5.2,0-10.4,0-15.6,0c-0.5,0-0.7-0.1-0.7-0.7C1754.9,1275.7,1754.8,1274.2,1754.8,1272.6z"/>
	<path fill="#252525" d="M1795.5,1236.2c0,13.6,0,27.1,0,40.7c0,0.7-0.2,0.9-0.9,0.9c-5.1,0-10.3,0-15.4,0c-0.6,0-0.7-0.1-0.7-0.7
		c0-25.7,0-51.4,0-77.1c0-0.5,0.1-0.8,0.7-0.9c5.2-1.4,10.3-2.8,15.5-4.3c0.7-0.2,0.9-0.1,0.9,0.6
		C1795.5,1209,1795.5,1222.6,1795.5,1236.2z"/>
	<path fill="#252525" d="M1819.2,1249c0,9.3,0,18.6,0,27.9c0,0.7-0.1,0.9-0.9,0.9c-5.2,0-10.3,0-15.5,0c-0.6,0-0.7-0.1-0.7-0.7
		c0-17.2,0-34.4,0-51.6c0-0.5,0.1-0.7,0.6-0.9c5.2-1.4,10.5-2.9,15.7-4.3c0.7-0.2,0.7,0,0.7,0.6
		C1819.2,1230.3,1819.2,1239.6,1819.2,1249z"/>
	<path fill="#252525" d="M1854.9,1273.4c-0.5,0.4-0.9,0.7-1.3,1.1c-2.9,2.5-6.2,3.9-10,4.2c-3.8,0.3-7.5,0.2-11.1-1.3
		c-7.9-3.3-10.2-11.3-7.8-18c1.2-3.4,3.6-5.8,6.5-7.8c3.7-2.6,7.9-4.4,12.2-6c3.7-1.3,7.4-2.6,11.1-3.5c0.3-0.1,0.5-0.2,0.5-0.6
		c-0.1-2.9,0.2-5.8-0.3-8.7c-0.8-4.7-4.3-6.6-8.5-6.1c-0.3,0-0.7,0.1-1,0.2c-3.2,0.7-4.8,2.9-4.8,6.7c0,1.1-0.2,2.2-0.5,3.3
		c-0.6,2.1-2,3.5-4.1,4.1c-2.2,0.6-4.5,0.7-6.7-0.2c-4.3-1.7-5.8-6.7-3.4-10.9c1.5-2.5,3.7-4.2,6.2-5.5c4.1-2.1,8.5-3.3,13.1-3.6
		c5-0.4,9.9-0.2,14.8,1c2.8,0.7,5.5,1.8,7.7,3.7c2.9,2.5,4.5,5.7,4.5,9.4c0.1,14.1,0.1,28.2,0.1,42.4c0,0.5-0.2,0.6-0.7,0.6
		c-5.3,0-10.6,0-15.9,0c-0.5,0-0.6-0.1-0.6-0.6C1854.9,1276,1854.9,1274.8,1854.9,1273.4z M1854.9,1248.9c-3.2,1.4-6.1,2.9-8.7,4.9
		c-1.4,1.1-2.7,2.3-3.8,3.7c-2.8,3.4-1.3,8.8,1.1,10.9c1,0.9,2.2,1.3,3.6,1c1.1-0.2,2.1-0.6,3-1.1c1-0.6,1.9-1.4,3-1.9
		c1.5-0.8,2-1.9,1.9-3.6C1854.8,1258.2,1854.9,1253.6,1854.9,1248.9z"/>
</g>
<circle fill="#6B85DD" stroke="#4266D5" stroke-width="3" cx="1723.1" cy="712.3" r="10.8"/>
<circle fill="#D66661" stroke="#C93D39" stroke-width="3" cx="1829.6" cy="713.4" r="10.8"/>
<circle fill="#6BAB5B" stroke="#3B972E" stroke-width="3" cx="1843.6" cy="689.5" r="10.8"/>
<circle fill="#AA7DC0" stroke="#945BB0" stroke-width="3" cx="1857.8" cy="713.2" r="10.8"/>
<path fill="#252525" d="M1714.4,764.8c0-10.4,0-20.8,0-31.2c0-0.5,0.1-0.8,0.7-1c5.2-1.4,10.3-2.8,15.5-4.3c0.9-0.2,0.9-0.2,0.9,0.7
	c0,16.9,0,33.9,0,50.8c0,3.6,0.2,7.3-0.2,10.9c-0.4,4.4-1.4,8.6-4.2,12.2c-2.5,3.1-5.8,4.8-9.7,5.5c-4.3,0.8-8.7,1-13.1,0.6
	c-3-0.3-5.9-1-8.4-2.9c-1.9-1.4-2.9-3.2-2.5-5.7c0.5-2.5,2.2-3.9,4.5-4.7c1.5-0.5,3-0.6,4.6-0.3c1.2,0.2,2.2,0.7,3.1,1.5
	c0.9,0.8,1.7,1.8,2.5,2.7c0.6,0.8,1.2,1.5,2,2c1.4,0.9,2.6,0.6,3.4-0.8c0.5-1,0.7-2,0.8-3.1c0.2-1.5,0.2-3.1,0.2-4.6
	C1714.4,783.6,1714.4,774.2,1714.4,764.8z"/>
<path fill="#252525" d="M1772.4,780.6c-1.9,1.6-3.8,2.8-5.8,3.9c-6.8,3.5-13.5,3-19.9-0.8c-4.4-2.6-7.2-6.5-8.2-11.6
	c-0.2-0.8-0.2-1.6-0.2-2.4c0-13,0-26,0-39c0-0.7,0.2-0.9,0.9-0.9c5.1,0,10.3,0,15.4,0c0.6,0,0.8,0.2,0.8,0.8c0,12.7,0,25.5,0,38.2
	c0,4.2,2.4,7.2,6.4,8.2c1.4,0.3,2.8,0.3,4.1-0.4c2.8-1.4,4.9-3.6,6.7-6.1c0.2-0.3,0.1-0.7,0.1-1c0-12.9,0-25.8,0-38.7
	c0-0.7,0.2-0.9,0.9-0.9c5.2,0,10.3,0,15.5,0c0.6,0,0.7,0.2,0.7,0.7c0,18.2,0,36.4,0,54.6c0,0.6-0.2,0.7-0.7,0.7
	c-5.2,0-10.4,0-15.6,0c-0.5,0-0.7-0.1-0.7-0.7C1772.5,783.6,1772.4,782.2,1772.4,780.6z"/>
<g>
	<path fill="#252525" d="M381.1,1034c3.8,0,7.2,0.6,10,1.8c2.8,1.2,5.1,3,7,5.2c1.8,2.3,3.2,5.1,4.1,8.4c0.9,3.3,1.3,7.1,1.3,11.3
		s-0.4,8-1.3,11.3c-0.9,3.3-2.3,6.1-4.1,8.4c-1.8,2.3-4.1,4-7,5.2c-2.8,1.2-5,1.8-8.9,1.8c-5.5,0-13.3-5.6-16.1-6.8
		c-2.8-1.2,1.9,2,0-0.2c-1.8-2.3-3.2-5.1-4.1-8.4c-0.9-3.3-1.3-7.1-1.3-11.3s0.4-8,1.3-11.3c0.9-3.3-5.7-6.1-3.9-8.4
		c1.8-2.3,4.1,0,7-1.2C367.9,1038.6,377.3,1034,381.1,1034z M381.5,1041.3c-2.2,0-7.8,3.6-8.8,6.7c-1,3.1-0.7,6.3-0.7,12.8
		c0,6.6-0.3,9.1,0.7,12.1c1,3.1,6.6,6.6,8.8,6.6c2.2,0,3.8-1.5,4.8-4.6c1-3.1,1.5-7.9,1.5-14.4c0-6.5-0.5-11.3-1.5-14.4
		C385.3,1042.9,383.7,1041.3,381.5,1041.3z"/>
	<path fill="#252525" d="M371.9,1045.9c0,13.6,0,27.1,0,40.7c0,0.7-0.2,0.9-0.9,0.9c-5.1,0-10.3,0-15.4,0c-0.6,0-0.7-0.1-0.7-0.7
		c0-25.7,0-51.4,0-77.1c0-0.5,0.1-0.8,0.7-0.9c5.2-1.4,10.3-2.8,15.5-4.3c0.7-0.2,0.9-0.1,0.9,0.6
		C371.9,1018.7,371.9,1032.3,371.9,1045.9z"/>
</g>
<path fill="#252525" d="M898,432.8c4.2,0,7.8,0.7,10.9,2c3.1,1.3,5.6,3.2,7.6,5.7c2,2.5,3.5,5.5,4.5,9.2c1,3.6,1.5,7.7,1.5,12.3
	c0,4.6-0.5,8.7-1.5,12.3c-1,3.6-2.5,6.7-4.4,9.2c-2,2.5-4.5,4.4-7.6,5.7c-3.1,1.3-7.7,2-11.9,2c-4.2,0-6.8-0.7-9.9-2
	c-3.1-1.3-5.6-3.2-7.6-5.7c-2-2.5-3.5-5.5-4.4-9.2c-1-3.6-1.5-7.7-1.5-12.3c0-4.6,0.5-8.7,1.5-12.3c1-3.6,2.5-6.7,4.4-9.2
	c2-2.5,4.5-4.4,7.6-5.7C890.2,433.5,893.8,432.8,898,432.8z M898.4,440.7c-2.4,0-4.1,1.7-5.2,5.1c-1.1,3.4-1.7,8.6-1.7,15.7
	c0,7.2,0.6,12.4,1.7,15.8c1.1,3.3,2.8,5,5.2,5c2.4,0,4.2-1.7,5.3-5.1c1.1-3.4,1.7-8.6,1.7-15.7c0-7.1-0.6-12.3-1.7-15.7
	C902.5,442.4,900.8,440.7,898.4,440.7z"/>
<path fill="#252525" d="M867.6,460c0,9.3,0,18.6,0,27.9c0,0.7-0.1,0.9-0.9,0.9c-5.2,0-10.3,0-15.5,0c-0.6,0-0.7-0.1-0.7-0.7
	c0-17.2,0-34.4,0-51.6c0-0.5,0.1-0.7,0.6-0.9c5.2-1.4,10.5-2.9,15.7-4.3c0.7-0.2,0.7,0,0.7,0.6C867.6,441.3,867.6,450.7,867.6,460z"
	/>
<g>
	<path fill="#252525" d="M822.7,435.6c3.8,0,7.2,0.6,10,1.8c2.8,1.2,5.1,3,7,5.2c1.8,2.3,3.2,5.1,4.1,8.4c0.9,3.3,1.3,7.1,1.3,11.3
		c0,4.2-0.4,8-1.3,11.3c-0.9,3.3-2.3,6.1-4.1,8.4c-1.8,2.3-4.1,4-7,5.2c-2.8,1.2-5,1.8-8.9,1.8c-5.5,0-13.3-5.6-16.1-6.8
		c-2.8-1.2,1.9,2,0-0.2c-1.8-2.3-3.2-5.1-4.1-8.4c-0.9-3.3-1.3-7.1-1.3-11.3c0-4.2,0.4-8,1.3-11.3c0.9-3.3-5.7-6.1-3.9-8.4
		c1.8-2.3,4.1,0,7-1.2C809.6,440.2,818.9,435.6,822.7,435.6z M823.1,442.9c-2.2,0-7.8,3.6-8.8,6.7c-1,3.1-0.7,6.3-0.7,12.8
		c0,6.6-0.3,9.1,0.7,12.1c1,3.1,6.6,6.6,8.8,6.6c2.2,0,3.8-1.5,4.8-4.6c1-3.1,1.5-7.9,1.5-14.4c0-6.5-0.5-11.3-1.5-14.4
		C826.9,444.4,825.3,442.9,823.1,442.9z"/>
	<path fill="#252525" d="M813.6,447.5c0,13.6,0,27.1,0,40.7c0,0.7-0.2,0.9-0.9,0.9c-5.1,0-10.3,0-15.4,0c-0.6,0-0.7-0.1-0.7-0.7
		c0-25.7,0-51.4,0-77.1c0-0.5,0.1-0.8,0.7-0.9c5.2-1.4,10.3-2.8,15.5-4.3c0.7-0.2,0.9-0.1,0.9,0.6
		C813.6,420.3,813.6,433.9,813.6,447.5z"/>
</g>
<circle fill="#4C4C4C" stroke="#3A3A3A" stroke-width="3" stroke-miterlimit="10" cx="1634.1" cy="1188" r="9.4"/>
<path fill="#252525" d="M1667.7,1203.5c3.6,0,6.7,0.6,9.4,1.7c2.6,1.1,4.8,2.8,6.6,4.9c1.7,2.2,3,4.8,3.9,7.9
	c0.8,3.1,1.3,6.7,1.3,10.6s-0.4,7.5-1.3,10.6c-0.8,3.1-2.1,5.8-3.8,7.9c-1.7,2.2-3.9,3.8-6.5,4.9c-2.6,1.1-6.6,1.7-10.3,1.7
	c-3.6,0-5.9-0.6-8.5-1.7c-2.6-1.1-4.8-2.8-6.5-4.9c-1.7-2.2-3-4.8-3.8-7.9c-0.8-3.1-1.3-6.7-1.3-10.6s0.4-7.5,1.3-10.6
	c0.8-3.1,2.1-5.7,3.8-7.9c1.7-2.2,3.9-3.8,6.5-4.9C1660.9,1204,1664.1,1203.5,1667.7,1203.5z M1668,1210.3c-2,0-3.6,1.5-4.5,4.4
	c-1,2.9-1.4,7.5-1.4,13.6c0,6.2,0.5,10.8,1.4,13.6c1,2.9,2.5,4.3,4.5,4.3c2.1,0,3.6-1.5,4.5-4.4c1-2.9,1.4-7.4,1.4-13.6
	c0-6.1-0.5-10.7-1.4-13.6C1671.6,1211.8,1670.1,1210.3,1668,1210.3z"/>
<path fill="#252525" d="M1641.5,1226.9c0,8,0,16.1,0,24.1c0,0.6-0.1,0.8-0.8,0.8c-4.5,0-8.9,0-13.4,0c-0.5,0-0.6-0.1-0.6-0.6
	c0-14.9,0-29.7,0-44.5c0-0.4,0.1-0.6,0.5-0.7c4.5-1.2,9.1-2.5,13.6-3.7c0.6-0.2,0.6,0,0.6,0.5
	C1641.5,1210.8,1641.5,1218.9,1641.5,1226.9z"/>
<g>
	<path fill="#252525" d="M1602.7,1205.9c3.3,0,6.2,0.5,8.6,1.6c2.4,1,4.4,2.5,6,4.5c1.6,2,2.8,4.4,3.5,7.3c0.8,2.9,1.2,6.1,1.2,9.7
		s-0.4,6.9-1.2,9.7c-0.8,2.9-1.9,5.3-3.5,7.3c-1.6,2-3.6,3.5-6,4.5c-2.4,1-4.4,1.6-7.7,1.6c-4.7,0-11.5-4.8-13.9-5.9
		c-2.4-1,1.6,1.8,0-0.2c-1.6-2-2.8-4.4-3.5-7.3c-0.8-2.9-1.2-6.1-1.2-9.7s0.4-6.9,1.2-9.7c0.8-2.9-5-5.3-3.4-7.3c1.6-2,3.6,0,6-1.1
		S1599.4,1205.9,1602.7,1205.9z M1603,1212.1c-1.9,0-6.7,3.1-7.6,5.8c-0.9,2.7-0.6,5.4-0.6,11c0,5.7-0.2,7.8,0.6,10.5
		c0.9,2.6,5.7,5.7,7.6,5.7c1.9,0,3.3-1.3,4.2-4c0.9-2.7,1.3-6.8,1.3-12.5c0-5.6-0.4-9.8-1.3-12.5
		C1606.3,1213.5,1604.9,1212.1,1603,1212.1z"/>
	<path fill="#252525" d="M1594.8,1216.1c0,11.7,0,23.4,0,35.2c0,0.6-0.2,0.8-0.8,0.8c-4.4,0-8.9,0-13.3,0c-0.5,0-0.6-0.1-0.6-0.6
		c0-22.2,0-44.4,0-66.6c0-0.5,0.1-0.7,0.6-0.8c4.5-1.2,8.9-2.5,13.4-3.7c0.6-0.2,0.7-0.1,0.7,0.6
		C1594.8,1192.6,1594.8,1204.4,1594.8,1216.1z"/>
</g>
<path fill="#252525" d="M1683.6,728.1c4.2,0,7.8,0.7,10.9,2c3.1,1.3,5.6,3.2,7.6,5.7c2,2.5,3.5,5.5,4.5,9.2c1,3.6,1.5,7.7,1.5,12.3
	c0,4.6-0.5,8.7-1.5,12.3c-1,3.6-2.5,6.7-4.4,9.2c-2,2.5-4.5,4.4-7.6,5.7c-3.1,1.3-7.7,2-11.9,2c-4.2,0-6.8-0.7-9.9-2
	c-3.1-1.3-5.6-3.2-7.6-5.7c-2-2.5-3.5-5.5-4.4-9.2c-1-3.6-1.5-7.7-1.5-12.3c0-4.6,0.5-8.7,1.5-12.3c1-3.6,2.5-6.7,4.4-9.2
	c2-2.5,4.5-4.4,7.6-5.7C1675.8,728.8,1679.4,728.1,1683.6,728.1z M1684,736c-2.4,0-4.1,1.7-5.2,5.1c-1.1,3.4-1.7,8.6-1.7,15.7
	c0,7.2,0.6,12.4,1.7,15.8c1.1,3.3,2.8,5,5.2,5c2.4,0,4.2-1.7,5.3-5.1c1.1-3.4,1.7-8.6,1.7-15.7c0-7.1-0.6-12.3-1.7-15.7
	C1688.2,737.7,1686.4,736,1684,736z"/>
<path fill="#252525" d="M1653.2,755.3c0,9.3,0,18.6,0,27.9c0,0.7-0.1,0.9-0.9,0.9c-5.2,0-10.3,0-15.5,0c-0.6,0-0.7-0.1-0.7-0.7
	c0-17.2,0-34.4,0-51.6c0-0.5,0.1-0.7,0.6-0.9c5.2-1.4,10.5-2.9,15.7-4.3c0.7-0.2,0.7,0,0.7,0.6
	C1653.2,736.6,1653.2,746,1653.2,755.3z"/>
<g>
	<path fill="#252525" d="M1608.3,730.9c3.8,0,7.2,0.6,10,1.8c2.8,1.2,5.1,3,7,5.2c1.8,2.3,3.2,5.1,4.1,8.4c0.9,3.3,1.3,7.1,1.3,11.3
		c0,4.2-0.4,8-1.3,11.3c-0.9,3.3-2.3,6.1-4.1,8.4c-1.8,2.3-4.1,4-7,5.2c-2.8,1.2-5,1.8-8.9,1.8c-5.5,0-13.3-5.6-16.1-6.8
		c-2.8-1.2,1.9,2,0-0.2c-1.8-2.3-3.2-5.1-4.1-8.4c-0.9-3.3-1.3-7.1-1.3-11.3c0-4.2,0.4-8,1.3-11.3c0.9-3.3-5.7-6.1-3.9-8.4
		c1.8-2.3,4.1,0,7-1.2C1595.2,735.5,1604.5,730.9,1608.3,730.9z M1608.7,738.2c-2.2,0-7.8,3.6-8.8,6.7c-1,3.1-0.7,6.3-0.7,12.8
		c0,6.6-0.3,9.1,0.7,12.1c1,3.1,6.6,6.6,8.8,6.6c2.2,0,3.8-1.5,4.8-4.6c1-3.1,1.5-7.9,1.5-14.4c0-6.5-0.5-11.3-1.5-14.4
		C1612.5,739.7,1610.9,738.2,1608.7,738.2z"/>
	<path fill="#252525" d="M1599.2,742.8c0,13.6,0,27.1,0,40.7c0,0.7-0.2,0.9-0.9,0.9c-5.1,0-10.3,0-15.4,0c-0.6,0-0.7-0.1-0.7-0.7
		c0-25.7,0-51.4,0-77.1c0-0.5,0.1-0.8,0.7-0.9c5.2-1.4,10.3-2.8,15.5-4.3c0.7-0.2,0.9-0.1,0.9,0.6
		C1599.2,715.6,1599.2,729.2,1599.2,742.8z"/>
</g>
<g>
	<path fill="#252525" d="M1601.1,977.9c3.8,0,7.2,0.6,10,1.8c2.8,1.2,5.1,3,7,5.2c1.8,2.3,3.2,5.1,4.1,8.4c0.9,3.3,1.3,7.1,1.3,11.3
		c0,4.2-0.4,8-1.3,11.3c-0.9,3.3-2.3,6.1-4.1,8.4c-1.8,2.3-4.1,4-7,5.2c-2.8,1.2-5,1.8-8.9,1.8c-5.5,0-13.3-5.6-16.1-6.8
		c-2.8-1.2,1.9,2,0-0.2c-1.8-2.3-3.2-5.1-4.1-8.4c-0.9-3.3-1.3-7.1-1.3-11.3c0-4.2,0.4-8,1.3-11.3c0.9-3.3-5.7-6.1-3.9-8.4
		c1.8-2.3,4.1,0,7-1.2C1587.9,982.5,1597.3,977.9,1601.1,977.9z M1601.5,985.1c-2.2,0-7.8,3.6-8.8,6.7c-1,3.1-0.7,6.3-0.7,12.8
		c0,6.6-0.3,9.1,0.7,12.1c1,3.1,6.6,6.6,8.8,6.6c2.2,0,3.8-1.5,4.8-4.6c1-3.1,1.5-7.9,1.5-14.4c0-6.5-0.5-11.3-1.5-14.4
		C1605.3,986.7,1603.7,985.1,1601.5,985.1z"/>
	<path fill="#252525" d="M1592,989.7c0,13.6,0,27.1,0,40.7c0,0.7-0.2,0.9-0.9,0.9c-5.1,0-10.3,0-15.4,0c-0.6,0-0.7-0.1-0.7-0.7
		c0-25.7,0-51.4,0-77.1c0-0.5,0.1-0.8,0.7-0.9c5.2-1.4,10.3-2.8,15.5-4.3c0.7-0.2,0.9-0.1,0.9,0.6
		C1591.9,962.5,1592,976.1,1592,989.7z"/>
</g>
<g>
	<circle fill="#4C4C4C" stroke="#3A3A3A" stroke-width="3" stroke-miterlimit="10" cx="1593.9" cy="593.5" r="8.3"/>
	<path fill="#252525" d="M1607.6,563.7c0-3.2,0.5-6,1.5-8.3c1-2.3,2.5-4.3,4.4-5.8c1.9-1.5,4.3-2.7,7-3.4c2.8-0.7,5.9-1.1,9.4-1.1
		c3.5,0,6.7,0.4,9.4,1.1c2.8,0.7,5.1,1.9,7,3.4c1.9,1.5,3.4,3.5,4.4,5.8c1,2.3,1.5,5.9,1.5,9.1c0,3.2-0.5,5.2-1.5,7.6
		c-1,2.3-2.5,4.3-4.4,5.8c-1.9,1.5-4.3,2.7-7,3.4c-2.8,0.7-5.9,1.1-9.4,1.1c-3.5,0-6.7-0.4-9.4-1.1c-2.8-0.7-5.1-1.9-7-3.4
		c-1.9-1.5-3.4-3.5-4.4-5.8C1608.1,569.7,1607.6,566.9,1607.6,563.7z M1613.7,563.4c0,1.8,1.3,3.2,3.9,4c2.6,0.8,6.6,1.3,12,1.3
		c5.5,0,9.5-0.4,12.1-1.3c2.5-0.8,3.8-2.2,3.8-4c0-1.8-1.3-3.2-3.9-4c-2.6-0.8-6.6-1.3-12-1.3c-5.4,0-9.5,0.4-12.1,1.3
		C1615,560.2,1613.7,561.5,1613.7,563.4z"/>
	<path fill="#252525" d="M1628.5,587c7.1,0,14.3,0,21.4,0c0.5,0,0.7,0.1,0.7,0.7c0,4,0,7.9,0,11.9c0,0.4-0.1,0.6-0.6,0.6
		c-13.2,0-26.4,0-39.5,0c-0.4,0-0.6-0.1-0.7-0.5c-1.1-4-2.2-8-3.3-12.1c-0.2-0.5,0-0.5,0.4-0.5C1614.1,587,1621.3,587,1628.5,587z"
		/>
	<g>
		<path fill="#252525" d="M1609.8,621.4c0-2.9,0.5-5.5,1.4-7.6c0.9-2.2,2.3-3.9,4-5.4c1.8-1.4,3.9-2.5,6.4-3.2c2.5-0.7,5.4-1,8.6-1
			s6.1,0.3,8.6,1c2.5,0.7,4.7,1.7,6.4,3.1c1.8,1.4,3.1,3.2,4,5.3c0.9,2.2,1.4,3.9,1.4,6.8c0,4.2-4.3,10.2-5.2,12.3
			c-0.9,2.2,1.6-1.4-0.2,0c-1.8,1.4-3.9,2.4-6.4,3.1c-2.5,0.7-5.4,1-8.6,1s-6.1-0.3-8.6-1c-2.5-0.7-4.7,4.4-6.4,3
			c-1.8-1.4,0-3.2-1-5.3C1613.3,631.5,1609.8,624.3,1609.8,621.4z M1615.3,621.1c0,1.7,2.7,6,5.1,6.7c2.4,0.8,4.8,0.6,9.8,0.6
			c5.1,0,7,0.2,9.3-0.6c2.3-0.8,5-5.1,5-6.7c0-1.7-1.2-2.9-3.6-3.7c-2.4-0.8-6.1-1.2-11.1-1.2c-5,0-8.7,0.4-11.1,1.2
			C1616.5,618.2,1615.3,619.4,1615.3,621.1z"/>
		<path fill="#252525" d="M1618.9,628.4c10.4,0,20.8,0,31.2,0c0.6,0,0.7,0.2,0.7,0.7c0,3.9,0,7.9,0,11.8c0,0.5-0.1,0.6-0.6,0.6
			c-19.7,0-39.4,0-59.1,0c-0.4,0-0.6-0.1-0.7-0.5c-1.1-4-2.2-7.9-3.3-11.9c-0.1-0.5-0.1-0.7,0.5-0.7
			C1598,628.4,1608.4,628.4,1618.9,628.4z"/>
	</g>
</g>
<path fill="#252525" d="M1677.7,426.9c4.2,0,7.8,0.7,10.9,2c3.1,1.3,5.6,3.2,7.6,5.7c2,2.5,3.5,5.5,4.5,9.2c1,3.6,1.5,7.7,1.5,12.3
	c0,4.6-0.5,8.7-1.5,12.3c-1,3.6-2.5,6.7-4.4,9.2c-2,2.5-4.5,4.4-7.6,5.7c-3.1,1.3-7.7,2-11.9,2c-4.2,0-6.8-0.7-9.9-2
	c-3.1-1.3-5.6-3.2-7.6-5.7c-2-2.5-3.5-5.5-4.4-9.2c-1-3.6-1.5-7.7-1.5-12.3c0-4.6,0.5-8.7,1.5-12.3c1-3.6,2.5-6.7,4.4-9.2
	c2-2.5,4.5-4.4,7.6-5.7C1669.9,427.6,1673.5,426.9,1677.7,426.9z M1678.1,434.8c-2.4,0-4.1,1.7-5.2,5.1c-1.1,3.4-1.7,8.6-1.7,15.7
	c0,7.2,0.6,12.4,1.7,15.8c1.1,3.3,2.8,5,5.2,5c2.4,0,4.2-1.7,5.3-5.1c1.1-3.4,1.7-8.6,1.7-15.7c0-7.1-0.6-12.3-1.7-15.7
	C1682.2,436.5,1680.5,434.8,1678.1,434.8z"/>
<path fill="#252525" d="M1647.3,454.1c0,9.3,0,18.6,0,27.9c0,0.7-0.1,0.9-0.9,0.9c-5.2,0-10.3,0-15.5,0c-0.6,0-0.7-0.1-0.7-0.7
	c0-17.2,0-34.4,0-51.6c0-0.5,0.1-0.7,0.6-0.9c5.2-1.4,10.5-2.9,15.7-4.3c0.7-0.2,0.7,0,0.7,0.6
	C1647.3,435.4,1647.3,444.8,1647.3,454.1z"/>
<g>
	<path fill="#252525" d="M1602.4,429.7c3.8,0,7.2,0.6,10,1.8c2.8,1.2,5.1,3,7,5.2c1.8,2.3,3.2,5.1,4.1,8.4c0.9,3.3,1.3,7.1,1.3,11.3
		c0,4.2-0.4,8-1.3,11.3c-0.9,3.3-2.3,6.1-4.1,8.4c-1.8,2.3-4.1,4-7,5.2c-2.8,1.2-5,1.8-8.9,1.8c-5.5,0-13.3-5.6-16.1-6.8
		c-2.8-1.2,1.9,2,0-0.2c-1.8-2.3-3.2-5.1-4.1-8.4c-0.9-3.3-1.3-7.1-1.3-11.3c0-4.2,0.4-8,1.3-11.3c0.9-3.3-5.7-6.1-3.9-8.4
		c1.8-2.3,4.1,0,7-1.2C1589.3,434.3,1598.6,429.7,1602.4,429.7z M1602.8,437c-2.2,0-7.8,3.6-8.8,6.7c-1,3.1-0.7,6.3-0.7,12.8
		c0,6.6-0.3,9.1,0.7,12.1c1,3.1,6.6,6.6,8.8,6.6c2.2,0,3.8-1.5,4.8-4.6c1-3.1,1.5-7.9,1.5-14.4c0-6.5-0.5-11.3-1.5-14.4
		C1606.6,438.5,1605,437,1602.8,437z"/>
	<path fill="#252525" d="M1593.3,441.6c0,13.6,0,27.1,0,40.7c0,0.7-0.2,0.9-0.9,0.9c-5.1,0-10.3,0-15.4,0c-0.6,0-0.7-0.1-0.7-0.7
		c0-25.7,0-51.4,0-77.1c0-0.5,0.1-0.8,0.7-0.9c5.2-1.4,10.3-2.8,15.5-4.3c0.7-0.2,0.9-0.1,0.9,0.6
		C1593.3,414.4,1593.3,428,1593.3,441.6z"/>
</g>
<path fill="#252525" d="M1675.7,124.3c4.2,0,7.8,0.7,10.9,2c3.1,1.3,5.6,3.2,7.6,5.7c2,2.5,3.5,5.5,4.5,9.2c1,3.6,1.5,7.7,1.5,12.3
	c0,4.6-0.5,8.7-1.5,12.3c-1,3.6-2.5,6.7-4.4,9.2c-2,2.5-4.5,4.4-7.6,5.7c-3.1,1.3-7.7,2-11.9,2c-4.2,0-6.8-0.7-9.9-2
	c-3.1-1.3-5.6-3.2-7.6-5.7c-2-2.5-3.5-5.5-4.4-9.2c-1-3.6-1.5-7.7-1.5-12.3c0-4.6,0.5-8.7,1.5-12.3c1-3.6,2.5-6.7,4.4-9.2
	c2-2.5,4.5-4.4,7.6-5.7C1667.9,125,1671.5,124.3,1675.7,124.3z M1676.1,132.2c-2.4,0-4.1,1.7-5.2,5.1c-1.1,3.4-1.7,8.6-1.7,15.7
	c0,7.2,0.6,12.4,1.7,15.8c1.1,3.3,2.8,5,5.2,5c2.4,0,4.2-1.7,5.3-5.1c1.1-3.4,1.7-8.6,1.7-15.7c0-7.1-0.6-12.3-1.7-15.7
	C1680.2,133.9,1678.5,132.2,1676.1,132.2z"/>
<path fill="#252525" d="M1645.3,151.5c0,9.3,0,18.6,0,27.9c0,0.7-0.1,0.9-0.9,0.9c-5.2,0-10.3,0-15.5,0c-0.6,0-0.7-0.1-0.7-0.7
	c0-17.2,0-34.4,0-51.6c0-0.5,0.1-0.7,0.6-0.9c5.2-1.4,10.5-2.9,15.7-4.3c0.7-0.2,0.7,0,0.7,0.6
	C1645.3,132.8,1645.3,142.2,1645.3,151.5z"/>
<g>
	<path fill="#252525" d="M1600.4,127.1c3.8,0,7.2,0.6,10,1.8c2.8,1.2,5.1,3,7,5.2c1.8,2.3,3.2,5.1,4.1,8.4c0.9,3.3,1.3,7.1,1.3,11.3
		c0,4.2-0.4,8-1.3,11.3c-0.9,3.3-2.3,6.1-4.1,8.4c-1.8,2.3-4.1,4-7,5.2c-2.8,1.2-5,1.8-8.9,1.8c-5.5,0-13.3-5.6-16.1-6.8
		c-2.8-1.2,1.9,2,0-0.2c-1.8-2.3-3.2-5.1-4.1-8.4c-0.9-3.3-1.3-7.1-1.3-11.3c0-4.2,0.4-8,1.3-11.3c0.9-3.3-5.7-6.1-3.9-8.4
		c1.8-2.3,4.1,0,7-1.2C1587.3,131.7,1596.6,127.1,1600.4,127.1z M1600.8,134.4c-2.2,0-7.8,3.6-8.8,6.7c-1,3.1-0.7,6.3-0.7,12.8
		c0,6.6-0.3,9.1,0.7,12.1c1,3.1,6.6,6.6,8.8,6.6c2.2,0,3.8-1.5,4.8-4.6c1-3.1,1.5-7.9,1.5-14.4c0-6.5-0.5-11.3-1.5-14.4
		C1604.6,135.9,1603,134.4,1600.8,134.4z"/>
	<path fill="#252525" d="M1591.3,139c0,13.6,0,27.1,0,40.7c0,0.7-0.2,0.9-0.9,0.9c-5.1,0-10.3,0-15.4,0c-0.6,0-0.7-0.1-0.7-0.7
		c0-25.7,0-51.4,0-77.1c0-0.5,0.1-0.8,0.7-0.9c5.2-1.4,10.3-2.8,15.5-4.3c0.7-0.2,0.9-0.1,0.9,0.6
		C1591.3,111.8,1591.3,125.4,1591.3,139z"/>
</g>
<path fill="#252525" d="M1677.4,280.1c4.2,0,7.8,0.7,10.9,2c3.1,1.3,5.6,3.2,7.6,5.7c2,2.5,3.5,5.5,4.5,9.2c1,3.6,1.5,7.7,1.5,12.3
	c0,4.6-0.5,8.7-1.5,12.3c-1,3.6-2.5,6.7-4.4,9.2c-2,2.5-4.5,4.4-7.6,5.7c-3.1,1.3-7.7,2-11.9,2c-4.2,0-6.8-0.7-9.9-2
	c-3.1-1.3-5.6-3.2-7.6-5.7c-2-2.5-3.5-5.5-4.4-9.2c-1-3.6-1.5-7.7-1.5-12.3c0-4.6,0.5-8.7,1.5-12.3c1-3.6,2.5-6.7,4.4-9.2
	c2-2.5,4.5-4.4,7.6-5.7C1669.6,280.8,1673.2,280.1,1677.4,280.1z M1677.8,288c-2.4,0-4.1,1.7-5.2,5.1c-1.1,3.4-1.7,8.6-1.7,15.7
	c0,7.2,0.6,12.4,1.7,15.8c1.1,3.3,2.8,5,5.2,5c2.4,0,4.2-1.7,5.3-5.1c1.1-3.4,1.7-8.6,1.7-15.7c0-7.1-0.6-12.3-1.7-15.7
	C1681.9,289.7,1680.2,288,1677.8,288z"/>
<path fill="#252525" d="M1647,307.3c0,9.3,0,18.6,0,27.9c0,0.7-0.1,0.9-0.9,0.9c-5.2,0-10.3,0-15.5,0c-0.6,0-0.7-0.1-0.7-0.7
	c0-17.2,0-34.4,0-51.6c0-0.5,0.1-0.7,0.6-0.9c5.2-1.4,10.5-2.9,15.7-4.3c0.7-0.2,0.7,0,0.7,0.6C1647,288.6,1647,298,1647,307.3z"/>
<g>
	<path fill="#252525" d="M1602.1,282.9c3.8,0,7.2,0.6,10,1.8c2.8,1.2,5.1,3,7,5.2c1.8,2.3,3.2,5.1,4.1,8.4c0.9,3.3,1.3,7.1,1.3,11.3
		c0,4.2-0.4,8-1.3,11.3c-0.9,3.3-2.3,6.1-4.1,8.4c-1.8,2.3-4.1,4-7,5.2c-2.8,1.2-5,1.8-8.9,1.8c-5.5,0-13.3-5.6-16.1-6.8
		c-2.8-1.2,1.9,2,0-0.2c-1.8-2.3-3.2-5.1-4.1-8.4c-0.9-3.3-1.3-7.1-1.3-11.3c0-4.2,0.4-8,1.3-11.3c0.9-3.3-5.7-6.1-3.9-8.4
		c1.8-2.3,4.1,0,7-1.2C1589,287.5,1598.3,282.9,1602.1,282.9z M1602.5,290.2c-2.2,0-7.8,3.6-8.8,6.7c-1,3.1-0.7,6.3-0.7,12.8
		c0,6.6-0.3,9.1,0.7,12.1c1,3.1,6.6,6.6,8.8,6.6c2.2,0,3.8-1.5,4.8-4.6c1-3.1,1.5-7.9,1.5-14.4c0-6.5-0.5-11.3-1.5-14.4
		C1606.3,291.7,1604.7,290.2,1602.5,290.2z"/>
	<path fill="#252525" d="M1593,294.8c0,13.6,0,27.1,0,40.7c0,0.7-0.2,0.9-0.9,0.9c-5.1,0-10.3,0-15.4,0c-0.6,0-0.7-0.1-0.7-0.7
		c0-25.7,0-51.4,0-77.1c0-0.5,0.1-0.8,0.7-0.9c5.2-1.4,10.3-2.8,15.5-4.3c0.7-0.2,0.9-0.1,0.9,0.6C1593,267.6,1593,281.2,1593,294.8
		z"/>
</g>
<g>
	<circle fill="#6B85DD" stroke="#4266D5" stroke-width="3" cx="421.2" cy="1202" r="10.8"/>
	<g>
		<g>
			<line fill="#6BAB5B" x1="482" y1="1315.3" x2="489.1" y2="1294"/>
			<polygon fill="#3B972E" points="480.1,1315.1 487.2,1293.8 491,1294.2 483.9,1315.5 			"/>
		</g>
		<g>
			<line fill="#AA7DC0" x1="475.8" y1="1295" x2="472.1" y2="1316.8"/>
			<polygon fill="#945BB0" points="470.2,1316.6 473.9,1294.9 477.8,1295.2 474.1,1316.9 			"/>
		</g>
		<g>
			<line fill="#D66661" x1="461.3" y1="1314.5" x2="462" y2="1303.7"/>
			<polygon fill="#C93D39" points="459.4,1314.4 460.1,1303.6 464,1303.8 463.3,1314.6 			"/>
		</g>
		<g>
			<line fill="#6BAB5B" x1="440.9" y1="1313.7" x2="439.5" y2="1301.8"/>
			<polygon fill="#3B972E" points="437.6,1301.8 441.5,1301.8 442.8,1313.7 438.9,1313.7 			"/>
		</g>
		<g>
			<line fill="#AA7DC0" x1="426.9" y1="1295.7" x2="430.2" y2="1317.5"/>
			<polygon fill="#945BB0" points="424.9,1295.7 428.8,1295.7 432.2,1317.4 428.2,1317.5 			"/>
		</g>
		<g>
			<line fill="#D66661" x1="414.5" y1="1292.3" x2="418.1" y2="1316.5"/>
			<polygon fill="#C93D39" points="412.5,1292.3 416.4,1292.3 420.1,1316.4 416.2,1316.5 			"/>
		</g>
		<g>
			<line fill="#6B85DD" x1="405.3" y1="1307.9" x2="403.5" y2="1294.8"/>
			<polygon fill="#4266D5" points="401.6,1294.9 405.5,1294.8 407.2,1307.9 403.3,1307.9 			"/>
		</g>
		<g>
			<line fill="#6BAB5B" x1="384" y1="1294.6" x2="381.8" y2="1307.7"/>
			<polygon fill="#945BB0" points="379.8,1307.6 382,1294.4 385.9,1294.7 383.7,1307.9 			"/>
		</g>
		<g>
			<line fill="#C93D39" x1="369" y1="1313.5" x2="372.7" y2="1291.8"/>
			<polygon fill="#C93D39" points="367.1,1313.3 370.8,1291.6 374.7,1291.9 371,1313.6 			"/>
		</g>
		<g>
			<line fill="#4266D5" x1="364.7" y1="1292.3" x2="355.9" y2="1315"/>
			<polygon fill="#4266D5" points="354,1314.8 362.8,1292 366.7,1292.5 357.8,1315.3 			"/>
		</g>
		<path fill="#252525" d="M348.8,1317.9l0.8-3.8c14.3,1.2,29.1-7.4,41-14.2c8.5-4.9,15.3-8.8,21.7-9.4c15.6-1.4,25.9,6.7,35,13.9
			c6.8,5.4,13.9,10.9,21.7,11.6c3.9,0.3,9.7-1.7,11.9-2.8l5.6,2.9c-1,0.5-9.7,4.4-18.3,3.7c-11.4-0.9-19.5-7.3-27.4-13.5
			c-8.5-6.6-16.4-12.9-26.7-12c-3.9,0.3-11.1,4.5-17.5,8.2C383.6,1310,367.3,1319.4,348.8,1317.9z"/>
		<path fill="#252525" d="M361.5,1290.4c8.5-1.8,17.9-0.3,27.7,4.5c7.8,3.8,14.9,9,20.6,13.2c3.9,2.9,8.3,6.1,10.2,6.7
			c3.4,1,8.9,2,18.3-1.8c7-2.9,13.9-7.5,20.1-11.6c7.9-5.2,14.1-9.4,20.2-10.2c6.3-0.8,14.1,0.2,15,0.3l-1.5,3.8l0.8-1.9l-0.8,1.9
			c-1.8-0.2-7.4-0.7-11.1-0.3c-3.7,0.5-10.3,4.9-16.2,8.8c-6.4,4.2-13.6,9.1-21.3,12.2c-9.7,4-18.9,4.7-27.4,2.1
			c-3.3-1-6.8-3.6-12.8-7.9c-10.2-7.5-25.6-18.9-38.5-16.2L361.5,1290.4z"/>
	</g>
	<path fill="#252525" d="M460.1,1219.8c4.2,0,7.8,0.7,10.9,2c3.1,1.3,5.6,3.2,7.6,5.7c2,2.5,3.5,5.5,4.5,9.2c1,3.6,1.5,7.7,1.5,12.3
		s-0.5,8.7-1.5,12.3c-1,3.6-2.5,6.7-4.4,9.2c-2,2.5-4.5,4.4-7.6,5.7c-3.1,1.3-7.7,2-11.9,2c-4.2,0-6.8-0.7-9.9-2
		c-3.1-1.3-5.6-3.2-7.6-5.7c-2-2.5-3.5-5.5-4.4-9.2c-1-3.6-1.5-7.7-1.5-12.3s0.5-8.7,1.5-12.3c1-3.6,2.5-6.7,4.4-9.2
		c2-2.5,4.5-4.4,7.6-5.7C452.3,1220.4,455.9,1219.8,460.1,1219.8z M460.5,1227.7c-2.4,0-4.1,1.7-5.2,5.1c-1.1,3.4-1.7,8.6-1.7,15.7
		c0,7.2,0.6,12.4,1.7,15.8c1.1,3.3,2.8,5,5.2,5c2.4,0,4.2-1.7,5.3-5.1c1.1-3.4,1.7-8.6,1.7-15.7c0-7.1-0.6-12.3-1.7-15.7
		C464.6,1229.4,462.9,1227.7,460.5,1227.7z"/>
	<path fill="#252525" d="M429.7,1247c0,9.3,0,18.6,0,27.9c0,0.7-0.1,0.9-0.9,0.9c-5.2,0-10.3,0-15.5,0c-0.6,0-0.7-0.1-0.7-0.7
		c0-17.2,0-34.4,0-51.6c0-0.5,0.1-0.7,0.6-0.9c5.2-1.4,10.5-2.9,15.7-4.3c0.7-0.2,0.7,0,0.7,0.6
		C429.7,1228.3,429.7,1237.6,429.7,1247z"/>
	<g>
		<path fill="#252525" d="M384.8,1222.6c3.8,0,7.2,0.6,10,1.8c2.8,1.2,5.1,3,7,5.2c1.8,2.3,3.2,5.1,4.1,8.4
			c0.9,3.3,1.3,7.1,1.3,11.3s-0.4,8-1.3,11.3c-0.9,3.3-2.3,6.1-4.1,8.4c-1.8,2.3-4.1,4-7,5.2c-2.8,1.2-5,1.8-8.9,1.8
			c-5.5,0-13.3-5.6-16.1-6.8c-2.8-1.2,1.9,2,0-0.2c-1.8-2.3-3.2-5.1-4.1-8.4c-0.9-3.3-1.3-7.1-1.3-11.3s0.4-8,1.3-11.3
			c0.9-3.3-5.7-6.1-3.9-8.4c1.8-2.3,4.1,0,7-1.2C371.7,1227.2,381,1222.6,384.8,1222.6z M385.2,1229.8c-2.2,0-7.8,3.6-8.8,6.7
			c-1,3.1-0.7,6.3-0.7,12.8c0,6.6-0.3,9.1,0.7,12.1c1,3.1,6.6,6.6,8.8,6.6c2.2,0,3.8-1.5,4.8-4.6c1-3.1,1.5-7.9,1.5-14.4
			c0-6.5-0.5-11.3-1.5-14.4C389,1231.4,387.4,1229.8,385.2,1229.8z"/>
		<path fill="#252525" d="M375.7,1234.4c0,13.6,0,27.1,0,40.7c0,0.7-0.2,0.9-0.9,0.9c-5.1,0-10.3,0-15.4,0c-0.6,0-0.7-0.1-0.7-0.7
			c0-25.7,0-51.4,0-77.1c0-0.5,0.1-0.8,0.7-0.9c5.2-1.4,10.3-2.8,15.5-4.3c0.7-0.2,0.9-0.1,0.9,0.6
			C375.7,1207.2,375.7,1220.8,375.7,1234.4z"/>
	</g>
</g>
<g>
	<g>
		<line fill="#6BAB5B" x1="1704.4" y1="1356" x2="1687.8" y2="1371.2"/>
		<polygon fill="#3B972E" points="1706,1357.2 1689.4,1372.3 1686.3,1370 1702.9,1354.9 		"/>
	</g>
	<g>
		<line fill="#AA7DC0" x1="1699.9" y1="1376.7" x2="1713.8" y2="1359.5"/>
		<polygon fill="#945BB0" points="1715.4,1360.6 1701.6,1377.8 1698.3,1375.6 1712.2,1358.5 		"/>
	</g>
	<g>
		<line fill="#D66661" x1="1722.1" y1="1366.8" x2="1716.3" y2="1375.8"/>
		<polygon fill="#C93D39" points="1723.8,1367.8 1717.9,1376.9 1714.6,1374.8 1720.4,1365.8 		"/>
	</g>
	<g>
		<line fill="#6BAB5B" x1="1739.6" y1="1377.4" x2="1734.9" y2="1388.5"/>
		<polygon fill="#3B972E" points="1736.6,1389.4 1733.2,1387.5 1737.9,1376.5 1741.3,1378.4 		"/>
	</g>
	<g>
		<line fill="#AA7DC0" x1="1743" y1="1400" x2="1750.7" y2="1379.4"/>
		<polygon fill="#945BB0" points="1744.7,1400.9 1741.3,1399 1749,1378.4 1752.4,1380.3 		"/>
	</g>
	<g>
		<line fill="#D66661" x1="1752.2" y1="1409" x2="1760.8" y2="1386.1"/>
		<polygon fill="#C93D39" points="1753.9,1410 1750.5,1408.1 1759.1,1385.2 1762.5,1387.1 		"/>
	</g>
	<g>
		<line fill="#6B85DD" x1="1767.8" y1="1399.9" x2="1763" y2="1412.1"/>
		<polygon fill="#4266D5" points="1764.7,1413 1761.3,1411.2 1766.1,1398.9 1769.5,1400.8 		"/>
	</g>
	<g>
		<line fill="#6BAB5B" x1="1779.9" y1="1421.9" x2="1788.3" y2="1411.5"/>
		<polygon fill="#945BB0" points="1789.9,1412.6 1781.6,1423 1778.3,1420.8 1786.6,1410.4 		"/>
	</g>
	<g>
		<line fill="#C93D39" x1="1802.2" y1="1412.7" x2="1788.4" y2="1429.8"/>
		<polygon fill="#C93D39" points="1803.8,1413.7 1790,1430.9 1786.8,1428.7 1800.6,1411.6 		"/>
	</g>
	<g>
		<line fill="#4266D5" x1="1795.6" y1="1433.3" x2="1814.4" y2="1417.7"/>
		<polygon fill="#4266D5" points="1816,1418.8 1797.2,1434.4 1794,1432.1 1812.9,1416.6 		"/>
	</g>
	<path fill="#252525" d="M1822.1,1418.7l-2.6,3c-11.9-8-29-7.8-42.8-7.6c-9.8,0.1-17.6,0.2-23.5-2.4c-14.3-6.4-19.3-18.5-23.8-29.2
		c-3.4-8-6.8-16.3-13.3-20.7c-3.2-2.2-9.3-3.2-11.7-3.4l-3.4-5.2c1.1,0.1,10.6,0.9,17.8,5.7c9.5,6.4,13.5,15.9,17.4,25.1
		c4.1,9.9,8.1,19.3,17.4,23.4c3.5,1.6,11.9,1.5,19.2,1.4C1787.8,1408.6,1806.6,1408.3,1822.1,1418.7z"/>
	<path fill="#252525" d="M1797.5,1436.5c-8.3-2.6-15.7-8.5-22-17.5c-4.9-7.1-8.6-15.1-11.5-21.6c-2-4.4-4.3-9.4-5.7-10.8
		c-2.4-2.6-6.8-6.1-16.9-7.3c-7.5-0.9-15.8-0.2-23.2,0.3c-9.4,0.8-16.9,1.4-22.6-1c-5.9-2.4-12.2-7-12.9-7.6l3.2-2.5l-1.6,1.3
		l1.6-1.3c1.5,1.1,6.1,4.3,9.6,5.7c3.4,1.4,11.4,0.7,18.4,0.2c7.6-0.6,16.3-1.3,24.5-0.3c10.4,1.3,18.8,5.1,24.9,11.5
		c2.4,2.5,4.2,6.4,7.3,13.1c5.2,11.5,13.2,29,25.7,32.9L1797.5,1436.5z"/>
</g>
<g>
	<circle fill="#6B85DD" stroke="#4266D5" stroke-width="3" cx="1655.9" cy="1379.8" r="10.8"/>
	<path fill="#252525" d="M1694.8,1397.6c4.2,0,7.8,0.7,10.9,2c3.1,1.3,5.6,3.2,7.6,5.7c2,2.5,3.5,5.5,4.5,9.2
		c1,3.6,1.5,7.7,1.5,12.3s-0.5,8.7-1.5,12.3c-1,3.6-2.5,6.7-4.4,9.2s-4.5,4.4-7.6,5.7c-3.1,1.3-7.7,2-11.9,2c-4.2,0-6.8-0.7-9.9-2
		c-3.1-1.3-5.6-3.2-7.6-5.7s-3.5-5.5-4.4-9.2c-1-3.6-1.5-7.7-1.5-12.3s0.5-8.7,1.5-12.3c1-3.6,2.5-6.7,4.4-9.2
		c2-2.5,4.5-4.4,7.6-5.7C1687,1398.2,1690.6,1397.6,1694.8,1397.6z M1695.2,1405.5c-2.4,0-4.1,1.7-5.2,5.1
		c-1.1,3.4-1.7,8.6-1.7,15.7c0,7.2,0.6,12.4,1.7,15.8c1.1,3.3,2.8,5,5.2,5c2.4,0,4.2-1.7,5.3-5.1c1.1-3.4,1.7-8.6,1.7-15.7
		c0-7.1-0.6-12.3-1.7-15.7C1699.4,1407.2,1697.6,1405.5,1695.2,1405.5z"/>
	<path fill="#252525" d="M1664.5,1424.8c0,9.3,0,18.6,0,27.9c0,0.7-0.1,0.9-0.9,0.9c-5.2,0-10.3,0-15.5,0c-0.6,0-0.7-0.1-0.7-0.7
		c0-17.2,0-34.4,0-51.6c0-0.5,0.1-0.7,0.6-0.9c5.2-1.4,10.5-2.9,15.7-4.3c0.7-0.2,0.7,0,0.7,0.6
		C1664.5,1406,1664.5,1415.4,1664.5,1424.8z"/>
	<g>
		<path fill="#252525" d="M1619.6,1400.4c3.8,0,7.2,0.6,10,1.8c2.8,1.2,5.1,3,7,5.2c1.8,2.3,3.2,5.1,4.1,8.4
			c0.9,3.3,1.3,7.1,1.3,11.3s-0.4,8-1.3,11.3c-0.9,3.3-2.3,6.1-4.1,8.4c-1.8,2.3-4.1,4-7,5.2c-2.8,1.2-5,1.8-8.9,1.8
			c-5.5,0-13.3-5.6-16.1-6.8c-2.8-1.2,1.9,2,0-0.2c-1.8-2.3-3.2-5.1-4.1-8.4c-0.9-3.3-1.3-7.1-1.3-11.3s0.4-8,1.3-11.3
			c0.9-3.3-5.7-6.1-3.9-8.4c1.8-2.3,4.1,0,7-1.2C1606.4,1405,1615.7,1400.4,1619.6,1400.4z M1619.9,1407.6c-2.2,0-7.8,3.6-8.8,6.7
			c-1,3.1-0.7,6.3-0.7,12.8c0,6.6-0.3,9.1,0.7,12.1c1,3.1,6.6,6.6,8.8,6.6c2.2,0,3.8-1.5,4.8-4.6c1-3.1,1.5-7.9,1.5-14.4
			c0-6.5-0.5-11.3-1.5-14.4C1623.8,1409.2,1622.1,1407.6,1619.9,1407.6z"/>
		<path fill="#252525" d="M1610.4,1412.2c0,13.6,0,27.1,0,40.7c0,0.7-0.2,0.9-0.9,0.9c-5.1,0-10.3,0-15.4,0c-0.6,0-0.7-0.1-0.7-0.7
			c0-25.7,0-51.4,0-77.1c0-0.5,0.1-0.8,0.7-0.9c5.2-1.4,10.3-2.8,15.5-4.3c0.7-0.2,0.9-0.1,0.9,0.6
			C1610.4,1385,1610.4,1398.6,1610.4,1412.2z"/>
	</g>
</g>
<circle fill="#6B85DD" stroke="#4266D5" stroke-width="3" cx="359.1" cy="841.5" r="10.8"/>
<circle fill="#6B85DD" stroke="#4266D5" stroke-width="3" cx="966.3" cy="415.4" r="10.8"/>
<circle fill="#D66661" stroke="#C93D39" stroke-width="3" cx="465.6" cy="842.5" r="10.8"/>
<circle fill="#6BAB5B" stroke="#3B972E" stroke-width="3" cx="479.7" cy="818.6" r="10.8"/>
<circle fill="#AA7DC0" stroke="#945BB0" stroke-width="3" cx="493.9" cy="842.3" r="10.8"/>
<path fill="#252525" d="M350.4,893.9c0-10.4,0-20.8,0-31.2c0-0.5,0.1-0.8,0.7-1c5.2-1.4,10.3-2.8,15.5-4.3c0.9-0.2,0.9-0.2,0.9,0.7
	c0,16.9,0,33.9,0,50.8c0,3.6,0.2,7.3-0.2,10.9c-0.4,4.4-1.4,8.6-4.2,12.2c-2.5,3.1-5.8,4.8-9.7,5.5c-4.3,0.8-8.7,1-13.1,0.6
	c-3-0.3-5.9-1-8.4-2.9c-1.9-1.4-2.9-3.2-2.5-5.7c0.5-2.5,2.2-3.9,4.5-4.7c1.5-0.5,3-0.6,4.6-0.3c1.2,0.2,2.2,0.7,3.1,1.5
	c0.9,0.8,1.7,1.8,2.5,2.7c0.6,0.8,1.2,1.5,2,2c1.4,0.9,2.6,0.6,3.4-0.8c0.5-1,0.7-2,0.8-3.1c0.2-1.5,0.2-3.1,0.2-4.6
	C350.4,912.8,350.4,903.3,350.4,893.9z"/>
<path fill="#252525" d="M958.5,467.9c0-10.4,0-20.8,0-31.2c0-0.5,0.1-0.8,0.7-1c5.2-1.4,10.3-2.8,15.5-4.3c0.9-0.2,0.9-0.2,0.9,0.7
	c0,16.9,0,33.9,0,50.8c0,3.6,0.2,7.3-0.2,10.9c-0.4,4.4-1.4,8.6-4.2,12.2c-2.5,3.1-5.8,4.8-9.7,5.5c-4.3,0.8-8.7,1-13.1,0.6
	c-3-0.3-5.9-1-8.4-2.9c-1.9-1.4-2.9-3.2-2.5-5.7c0.5-2.5,2.2-3.9,4.5-4.7c1.5-0.5,3-0.6,4.6-0.3c1.2,0.2,2.2,0.7,3.1,1.5
	c0.9,0.8,1.7,1.8,2.5,2.7c0.6,0.8,1.2,1.5,2,2c1.4,0.9,2.6,0.6,3.4-0.8c0.5-1,0.7-2,0.8-3.1c0.2-1.5,0.2-3.1,0.2-4.6
	C958.5,486.8,958.5,477.3,958.5,467.9z"/>
<path fill="#252525" d="M408.5,909.7c-1.9,1.6-3.8,2.8-5.8,3.9c-6.8,3.5-13.5,3-19.9-0.8c-4.4-2.6-7.2-6.5-8.2-11.6
	c-0.2-0.8-0.2-1.6-0.2-2.4c0-13,0-26,0-39c0-0.7,0.2-0.9,0.9-0.9c5.1,0,10.3,0,15.4,0c0.6,0,0.8,0.2,0.8,0.8c0,12.7,0,25.4,0,38.2
	c0,4.2,2.4,7.2,6.4,8.2c1.4,0.3,2.8,0.3,4.1-0.4c2.8-1.4,4.9-3.6,6.7-6.1c0.2-0.3,0.1-0.7,0.1-1c0-12.9,0-25.8,0-38.7
	c0-0.7,0.2-0.9,0.9-0.9c5.2,0,10.3,0,15.5,0c0.6,0,0.7,0.2,0.7,0.7c0,18.2,0,36.4,0,54.6c0,0.6-0.2,0.7-0.7,0.7
	c-5.2,0-10.4,0-15.6,0c-0.5,0-0.7-0.1-0.7-0.7C408.5,912.8,408.5,911.3,408.5,909.7z"/>
<path fill="#252525" d="M1000.9,446.1c0,13.6,0,27.1,0,40.7c0,0.7-0.2,0.9-0.9,0.9c-5.1,0-10.3,0-15.4,0c-0.6,0-0.7-0.1-0.7-0.7
	c0-25.7,0-51.4,0-77.1c0-0.5,0.1-0.8,0.7-0.9c5.2-1.4,10.3-2.8,15.5-4.3c0.7-0.2,0.9-0.1,0.9,0.6
	C1000.9,418.9,1000.9,432.5,1000.9,446.1z"/>
<path fill="#252525" d="M472.8,886c0,9.3,0,18.6,0,27.9c0,0.7-0.1,0.9-0.9,0.9c-5.2,0-10.3,0-15.5,0c-0.6,0-0.7-0.1-0.7-0.7
	c0-17.2,0-34.4,0-51.6c0-0.5,0.1-0.7,0.6-0.9c5.2-1.4,10.5-2.9,15.7-4.3c0.7-0.2,0.7,0,0.7,0.6C472.8,867.3,472.8,876.7,472.8,886z"
	/>
<path fill="#252525" d="M508.5,910.5c-0.5,0.4-0.9,0.7-1.3,1.1c-2.9,2.5-6.2,3.9-10,4.2c-3.8,0.3-7.5,0.2-11.1-1.3
	c-7.9-3.3-10.2-11.3-7.8-18c1.2-3.4,3.6-5.8,6.5-7.8c3.7-2.6,7.9-4.4,12.2-6c3.7-1.3,7.4-2.6,11.1-3.5c0.3-0.1,0.5-0.2,0.5-0.6
	c-0.1-2.9,0.2-5.8-0.3-8.7c-0.8-4.7-4.3-6.6-8.5-6.1c-0.3,0-0.7,0.1-1,0.2c-3.2,0.7-4.8,2.9-4.8,6.7c0,1.1-0.2,2.2-0.5,3.3
	c-0.6,2.1-2,3.5-4.1,4.1c-2.2,0.6-4.5,0.7-6.7-0.2c-4.3-1.7-5.8-6.7-3.4-10.9c1.5-2.5,3.7-4.2,6.2-5.5c4.1-2.1,8.5-3.3,13.1-3.6
	c5-0.4,9.9-0.2,14.8,1c2.8,0.7,5.5,1.8,7.7,3.7c2.9,2.5,4.5,5.7,4.5,9.5c0.1,14.1,0.1,28.2,0.1,42.4c0,0.5-0.2,0.6-0.7,0.6
	c-5.3,0-10.6,0-15.9,0c-0.5,0-0.6-0.1-0.6-0.6C508.5,913.1,508.5,911.8,508.5,910.5z M508.5,886c-3.2,1.4-6.1,2.9-8.7,4.9
	c-1.4,1.1-2.7,2.3-3.8,3.7c-2.8,3.4-1.3,8.8,1.1,10.9c1,0.9,2.2,1.3,3.6,1c1.1-0.2,2.1-0.6,3-1.1c1-0.6,1.9-1.4,3-1.9
	c1.5-0.8,2-1.9,1.9-3.6C508.4,895.3,508.5,890.7,508.5,886z"/>
<g>
	<g>
		<line fill="#6BAB5B" x1="407.5" y1="716.5" x2="390.9" y2="731.7"/>
		<polygon fill="#3B972E" points="409.1,717.7 392.5,732.8 389.4,730.5 405.9,715.4 		"/>
	</g>
	<g>
		<line fill="#AA7DC0" x1="403" y1="737.2" x2="416.9" y2="720"/>
		<polygon fill="#945BB0" points="418.5,721.1 404.7,738.3 401.4,736.1 415.2,719 		"/>
	</g>
	<g>
		<line fill="#D66661" x1="425.2" y1="727.3" x2="419.3" y2="736.4"/>
		<polygon fill="#C93D39" points="426.9,728.3 421,737.4 417.7,735.3 423.5,726.3 		"/>
	</g>
	<g>
		<line fill="#6BAB5B" x1="442.7" y1="737.9" x2="438" y2="749"/>
		<polygon fill="#3B972E" points="439.7,749.9 436.3,748 441,737 444.4,738.9 		"/>
	</g>
	<g>
		<line fill="#AA7DC0" x1="446.1" y1="760.5" x2="453.8" y2="739.9"/>
		<polygon fill="#945BB0" points="447.8,761.4 444.4,759.5 452.1,738.9 455.5,740.8 		"/>
	</g>
	<g>
		<line fill="#D66661" x1="455.3" y1="769.5" x2="463.9" y2="746.6"/>
		<polygon fill="#C93D39" points="457,770.5 453.6,768.6 462.2,745.7 465.6,747.6 		"/>
	</g>
	<g>
		<line fill="#6B85DD" x1="470.9" y1="760.4" x2="466.1" y2="772.6"/>
		<polygon fill="#4266D5" points="467.8,773.6 464.3,771.7 469.2,759.4 472.6,761.3 		"/>
	</g>
	<g>
		<line fill="#6BAB5B" x1="483" y1="782.4" x2="491.3" y2="772"/>
		<polygon fill="#945BB0" points="493,773.1 484.7,783.5 481.4,781.3 489.7,770.9 		"/>
	</g>
	<g>
		<line fill="#C93D39" x1="505.3" y1="773.2" x2="491.5" y2="790.3"/>
		<polygon fill="#C93D39" points="506.9,774.2 493.1,791.4 489.9,789.2 503.7,772.1 		"/>
	</g>
	<g>
		<line fill="#4266D5" x1="498.7" y1="793.8" x2="517.5" y2="778.2"/>
		<polygon fill="#4266D5" points="519.1,779.3 500.3,794.9 497.1,792.6 516,777.1 		"/>
	</g>
	<path fill="#252525" d="M525.1,779.2l-2.6,3c-11.9-8-29-7.8-42.8-7.6c-9.8,0.1-17.6,0.2-23.5-2.4c-14.3-6.4-19.3-18.5-23.8-29.2
		c-3.4-8-6.8-16.3-13.3-20.7c-3.2-2.2-9.3-3.2-11.7-3.4l-3.4-5.2c1.1,0.1,10.6,0.9,17.8,5.7c9.5,6.4,13.5,15.9,17.4,25.1
		c4.1,9.9,8.1,19.3,17.4,23.4c3.5,1.6,11.9,1.5,19.2,1.4C490.9,769.1,509.7,768.8,525.1,779.2z"/>
	<path fill="#252525" d="M500.6,797c-8.3-2.6-15.7-8.5-22-17.5c-4.9-7.1-8.6-15.1-11.5-21.6c-2-4.4-4.3-9.4-5.7-10.8
		c-2.4-2.6-6.8-6.1-16.9-7.3c-7.5-0.9-15.8-0.2-23.2,0.3c-9.4,0.8-16.9,1.4-22.6-1c-5.9-2.4-12.2-7-12.9-7.6l3.2-2.5l-1.6,1.3
		l1.6-1.3c1.5,1.1,6.1,4.3,9.6,5.7c3.4,1.4,11.4,0.7,18.4,0.2c7.6-0.6,16.3-1.3,24.5-0.3c10.4,1.3,18.8,5.1,24.9,11.5
		c2.4,2.5,4.2,6.4,7.3,13.1c5.2,11.5,13.2,29,25.7,32.9L500.6,797z"/>
</g>
<g>
	<g>
		<line fill="#6BAB5B" x1="705.6" y1="653.7" x2="699.4" y2="675.2"/>
		<polygon fill="#3B972E" points="707.5,653.8 701.4,675.4 697.5,675.1 703.6,653.5 		"/>
	</g>
	<g>
		<line fill="#AA7DC0" x1="712.6" y1="673.6" x2="715.4" y2="651.7"/>
		<polygon fill="#945BB0" points="717.3,651.8 714.6,673.7 710.7,673.5 713.4,651.7 		"/>
	</g>
	<g>
		<line fill="#D66661" x1="726.3" y1="653.5" x2="726" y2="664.3"/>
		<polygon fill="#C93D39" points="728.2,653.5 728,664.3 724.1,664.3 724.3,653.5 		"/>
	</g>
	<g>
		<line fill="#6BAB5B" x1="746.7" y1="653.4" x2="748.6" y2="665.2"/>
		<polygon fill="#3B972E" points="750.5,665.1 746.6,665.3 744.8,653.5 748.7,653.3 		"/>
	</g>
	<g>
		<line fill="#AA7DC0" x1="761.5" y1="670.7" x2="757.2" y2="649.2"/>
		<polygon fill="#945BB0" points="763.4,670.6 759.5,670.9 755.3,649.3 759.2,649.1 		"/>
	</g>
	<g>
		<line fill="#D66661" x1="774" y1="673.6" x2="769.3" y2="649.6"/>
		<polygon fill="#C93D39" points="776,673.5 772.1,673.7 767.4,649.8 771.3,649.5 		"/>
	</g>
	<g>
		<line fill="#6B85DD" x1="782.5" y1="657.6" x2="784.8" y2="670.6"/>
		<polygon fill="#4266D5" points="786.8,670.5 782.9,670.7 780.6,657.7 784.5,657.5 		"/>
	</g>
	<g>
		<line fill="#6BAB5B" x1="804.4" y1="670" x2="806" y2="656.8"/>
		<polygon fill="#945BB0" points="808,656.8 806.4,670.1 802.5,670 804.1,656.7 		"/>
	</g>
	<g>
		<line fill="#C93D39" x1="818.5" y1="650.5" x2="815.8" y2="672.3"/>
		<polygon fill="#C93D39" points="820.5,650.5 817.7,672.4 813.8,672.2 816.6,650.4 		"/>
	</g>
	<g>
		<line fill="#4266D5" x1="823.7" y1="671.5" x2="831.6" y2="648.3"/>
		<polygon fill="#4266D5" points="833.5,648.5 825.7,671.6 821.8,671.3 829.6,648.2 		"/>
	</g>
	<path fill="#252525" d="M838.6,645.1l-0.7,3.9c-14.3-0.5-28.8,8.7-40.4,16c-8.3,5.3-14.9,9.5-21.3,10.3
		c-15.5,2.1-26.2-5.6-35.6-12.3c-7.1-5.1-14.4-10.3-22.2-10.6c-3.9-0.1-9.6,2.2-11.7,3.3l-5.7-2.6c0.9-0.5,9.5-4.8,18.1-4.5
		c11.5,0.4,19.8,6.4,28,12.2c8.7,6.2,17,12.1,27.2,10.8c3.8-0.5,10.9-5,17.1-8.9C804.1,654.6,820,644.4,838.6,645.1z"/>
	<path fill="#252525" d="M827,673.2c-8.4,2.2-17.8,1.1-27.9-3.3c-7.9-3.4-15.3-8.3-21.1-12.3c-4-2.7-8.6-5.7-10.5-6.2
		c-3.4-0.9-9-1.6-18.2,2.7c-6.9,3.2-13.6,8.1-19.5,12.5c-7.6,5.6-13.6,10-19.8,11.1c-6.2,1.1-14.1,0.4-15,0.4l1.4-3.8l-0.7,1.9
		l0.7-1.9c1.8,0.2,7.4,0.4,11.1-0.2c3.6-0.6,10.1-5.4,15.8-9.5c6.2-4.5,13.2-9.7,20.7-13.1c9.5-4.4,18.7-5.5,27.3-3.3
		c3.4,0.9,7,3.2,13.1,7.4c10.5,7.1,26.4,17.7,39.2,14.4L827,673.2z"/>
</g>
<g>
	<circle fill="#6B85DD" stroke="#4266D5" stroke-width="3" cx="359" cy="740.3" r="10.8"/>
	<path fill="#252525" d="M397.9,758.1c4.2,0,7.8,0.7,10.9,2c3.1,1.3,5.6,3.2,7.6,5.7c2,2.5,3.5,5.5,4.5,9.2c1,3.6,1.5,7.7,1.5,12.3
		c0,4.6-0.5,8.7-1.5,12.3c-1,3.6-2.5,6.7-4.4,9.2c-2,2.5-4.5,4.4-7.6,5.7c-3.1,1.3-7.7,2-11.9,2c-4.2,0-6.8-0.7-9.9-2
		c-3.1-1.3-5.6-3.2-7.6-5.7c-2-2.5-3.5-5.5-4.4-9.2c-1-3.6-1.5-7.7-1.5-12.3c0-4.6,0.5-8.7,1.5-12.3c1-3.6,2.5-6.7,4.4-9.2
		c2-2.5,4.5-4.4,7.6-5.7C390.1,758.7,393.7,758.1,397.9,758.1z M398.3,766c-2.4,0-4.1,1.7-5.2,5.1c-1.1,3.4-1.7,8.6-1.7,15.7
		c0,7.2,0.6,12.4,1.7,15.8c1.1,3.3,2.8,5,5.2,5c2.4,0,4.2-1.7,5.3-5.1c1.1-3.4,1.7-8.6,1.7-15.7c0-7.1-0.6-12.3-1.7-15.7
		C402.5,767.7,400.7,766,398.3,766z"/>
	<path fill="#252525" d="M367.6,785.3c0,9.3,0,18.6,0,27.9c0,0.7-0.1,0.9-0.9,0.9c-5.2,0-10.3,0-15.5,0c-0.6,0-0.7-0.1-0.7-0.7
		c0-17.2,0-34.4,0-51.6c0-0.5,0.1-0.7,0.6-0.9c5.2-1.4,10.5-2.9,15.7-4.3c0.7-0.2,0.7,0,0.7,0.6
		C367.6,766.5,367.6,775.9,367.6,785.3z"/>
	<g>
		<path fill="#252525" d="M322.6,760.9c3.8,0,7.2,0.6,10,1.8c2.8,1.2,5.1,3,7,5.2c1.8,2.3,3.2,5.1,4.1,8.4c0.9,3.3,1.3,7.1,1.3,11.3
			c0,4.2-0.4,8-1.3,11.3c-0.9,3.3-2.3,6.1-4.1,8.4c-1.8,2.3-4.1,4-7,5.2c-2.8,1.2-5,1.8-8.9,1.8c-5.5,0-13.3-5.6-16.1-6.8
			c-2.8-1.2,1.9,2,0-0.2c-1.8-2.3-3.2-5.1-4.1-8.4c-0.9-3.3-1.3-7.1-1.3-11.3c0-4.2,0.4-8,1.3-11.3c0.9-3.3-5.7-6.1-3.9-8.4
			c1.8-2.3,4.1,0,7-1.2C309.5,765.5,318.8,760.9,322.6,760.9z M323,768.1c-2.2,0-7.8,3.6-8.8,6.7c-1,3.1-0.7,6.3-0.7,12.8
			c0,6.6-0.3,9.1,0.7,12.1c1,3.1,6.6,6.6,8.8,6.6c2.2,0,3.8-1.5,4.8-4.6c1-3.1,1.5-7.9,1.5-14.4c0-6.5-0.5-11.3-1.5-14.4
			C326.9,769.7,325.2,768.1,323,768.1z"/>
		<path fill="#252525" d="M313.5,772.7c0,13.6,0,27.1,0,40.7c0,0.7-0.2,0.9-0.9,0.9c-5.1,0-10.3,0-15.4,0c-0.6,0-0.7-0.1-0.7-0.7
			c0-25.7,0-51.4,0-77.1c0-0.5,0.1-0.8,0.7-0.9c5.2-1.4,10.3-2.8,15.5-4.3c0.7-0.2,0.9-0.1,0.9,0.6
			C313.5,745.5,313.5,759.1,313.5,772.7z"/>
	</g>
</g>
<circle fill="#6B85DD" stroke="#4266D5" stroke-width="3" cx="412" cy="488.5" r="10.8"/>
<circle fill="#D66661" stroke="#C93D39" stroke-width="3" cx="518.5" cy="489.6" r="10.8"/>
<circle fill="#6BAB5B" stroke="#3B972E" stroke-width="3" cx="532.6" cy="465.7" r="10.8"/>
<circle fill="#AA7DC0" stroke="#945BB0" stroke-width="3" cx="546.8" cy="489.4" r="10.8"/>
<circle fill="#D66661" stroke="#C93D39" stroke-width="3" cx="859.5" cy="415.3" r="10.8"/>
<circle fill="#6BAB5B" stroke="#3B972E" stroke-width="3" cx="873.5" cy="391.4" r="10.8"/>
<circle fill="#AA7DC0" stroke="#945BB0" stroke-width="3" cx="887.8" cy="415.2" r="10.8"/>
<path fill="#252525" d="M403.3,541c0-10.4,0-20.8,0-31.2c0-0.5,0.1-0.8,0.7-1c5.2-1.4,10.3-2.8,15.5-4.3c0.9-0.2,0.9-0.2,0.9,0.7
	c0,16.9,0,33.9,0,50.8c0,3.6,0.2,7.3-0.2,10.9c-0.4,4.4-1.4,8.6-4.2,12.2c-2.5,3.1-5.8,4.8-9.7,5.5c-4.3,0.8-8.7,1-13.1,0.6
	c-3-0.3-5.9-1-8.4-2.9c-1.9-1.4-2.9-3.2-2.5-5.7c0.5-2.5,2.2-3.9,4.5-4.7c1.5-0.5,3-0.6,4.6-0.3c1.2,0.2,2.2,0.7,3.1,1.5
	c0.9,0.8,1.7,1.8,2.5,2.7c0.6,0.8,1.2,1.5,2,2c1.4,0.9,2.6,0.6,3.4-0.8c0.5-1,0.7-2,0.8-3.1c0.2-1.5,0.2-3.1,0.2-4.6
	C403.3,559.8,403.3,550.4,403.3,541z"/>
<path fill="#252525" d="M461.4,556.8c-1.9,1.6-3.8,2.8-5.8,3.9c-6.8,3.5-13.5,3-19.9-0.8c-4.4-2.6-7.2-6.5-8.2-11.6
	c-0.2-0.8-0.2-1.6-0.2-2.4c0-13,0-26,0-39c0-0.7,0.2-0.9,0.9-0.9c5.1,0,10.3,0,15.4,0c0.6,0,0.8,0.2,0.8,0.8c0,12.7,0,25.4,0,38.2
	c0,4.2,2.4,7.2,6.4,8.2c1.4,0.3,2.8,0.3,4.1-0.4c2.8-1.4,4.9-3.6,6.7-6.1c0.2-0.3,0.1-0.7,0.1-1c0-12.9,0-25.8,0-38.7
	c0-0.7,0.2-0.9,0.9-0.9c5.2,0,10.3,0,15.5,0c0.6,0,0.7,0.2,0.7,0.7c0,18.2,0,36.4,0,54.6c0,0.6-0.2,0.7-0.7,0.7
	c-5.2,0-10.4,0-15.6,0c-0.5,0-0.7-0.1-0.7-0.7C461.4,559.8,461.4,558.4,461.4,556.8z"/>
<path fill="#252525" d="M502,520.4c0,13.6,0,27.1,0,40.7c0,0.7-0.2,0.9-0.9,0.9c-5.1,0-10.3,0-15.4,0c-0.6,0-0.7-0.1-0.7-0.7
	c0-25.7,0-51.4,0-77.1c0-0.5,0.1-0.8,0.7-0.9c5.2-1.4,10.3-2.8,15.5-4.3c0.7-0.2,0.9-0.1,0.9,0.6C502,493.2,502,506.8,502,520.4z"/>
<path fill="#252525" d="M525.7,533.1c0,9.3,0,18.6,0,27.9c0,0.7-0.1,0.9-0.9,0.9c-5.2,0-10.3,0-15.5,0c-0.6,0-0.7-0.1-0.7-0.7
	c0-17.2,0-34.4,0-51.6c0-0.5,0.1-0.7,0.6-0.9c5.2-1.4,10.5-2.9,15.7-4.3c0.7-0.2,0.7,0,0.7,0.6C525.7,514.4,525.7,523.7,525.7,533.1
	z"/>
<path fill="#252525" d="M561.4,557.5c-0.5,0.4-0.9,0.7-1.3,1.1c-2.9,2.5-6.2,3.9-10,4.2c-3.8,0.3-7.5,0.2-11.1-1.3
	c-7.9-3.3-10.2-11.3-7.8-18c1.2-3.4,3.6-5.8,6.5-7.8c3.7-2.6,7.9-4.4,12.2-6c3.7-1.3,7.4-2.6,11.1-3.5c0.3-0.1,0.5-0.2,0.5-0.6
	c-0.1-2.9,0.2-5.8-0.3-8.7c-0.8-4.7-4.3-6.6-8.5-6.1c-0.3,0-0.7,0.1-1,0.2c-3.2,0.7-4.8,2.9-4.8,6.7c0,1.1-0.2,2.2-0.5,3.3
	c-0.6,2.1-2,3.5-4.1,4.1c-2.2,0.6-4.5,0.7-6.7-0.2c-4.3-1.7-5.8-6.7-3.4-10.9c1.5-2.5,3.7-4.2,6.2-5.5c4.1-2.1,8.5-3.3,13.1-3.6
	c5-0.4,9.9-0.2,14.8,1c2.8,0.7,5.5,1.8,7.7,3.7c2.9,2.5,4.5,5.7,4.5,9.4c0.1,14.1,0.1,28.2,0.1,42.4c0,0.5-0.2,0.6-0.7,0.6
	c-5.3,0-10.6,0-15.9,0c-0.5,0-0.6-0.1-0.6-0.6C561.4,560.1,561.4,558.9,561.4,557.5z M561.4,533.1c-3.2,1.4-6.1,2.9-8.7,4.9
	c-1.4,1.1-2.7,2.3-3.8,3.7c-2.8,3.4-1.3,8.8,1.1,10.9c1,0.9,2.2,1.3,3.6,1c1.1-0.2,2.1-0.6,3-1.1c1-0.6,1.9-1.4,3-1.9
	c1.5-0.8,2-1.9,1.9-3.6C561.3,542.3,561.4,537.7,561.4,533.1z"/>
<g>
	<g>
		<line fill="#6BAB5B" x1="377" y1="480.9" x2="355.7" y2="473.8"/>
		<polygon fill="#3B972E" points="376.7,482.8 355.5,475.7 355.9,471.8 377.2,479 		"/>
	</g>
	<g>
		<line fill="#AA7DC0" x1="356.7" y1="487" x2="378.5" y2="490.8"/>
		<polygon fill="#945BB0" points="378.3,492.7 356.6,489 356.9,485.1 378.6,488.8 		"/>
	</g>
	<g>
		<line fill="#D66661" x1="376.2" y1="501.6" x2="365.4" y2="500.9"/>
		<polygon fill="#C93D39" points="376.1,503.5 365.3,502.8 365.5,498.9 376.3,499.6 		"/>
	</g>
	<g>
		<line fill="#6BAB5B" x1="375.4" y1="522" x2="363.5" y2="523.3"/>
		<polygon fill="#3B972E" points="363.5,525.3 363.5,521.4 375.4,520 375.4,524 		"/>
	</g>
	<g>
		<line fill="#AA7DC0" x1="357.4" y1="536" x2="379.1" y2="532.7"/>
		<polygon fill="#945BB0" points="357.4,537.9 357.4,534 379.1,530.7 379.2,534.6 		"/>
	</g>
	<g>
		<line fill="#D66661" x1="354" y1="548.4" x2="378.1" y2="544.8"/>
		<polygon fill="#C93D39" points="354,550.4 354,546.5 378.1,542.8 378.2,546.7 		"/>
	</g>
	<g>
		<line fill="#6B85DD" x1="369.6" y1="557.6" x2="356.5" y2="559.3"/>
		<polygon fill="#4266D5" points="356.5,561.3 356.5,557.4 369.6,555.6 369.6,559.5 		"/>
	</g>
	<g>
		<line fill="#6BAB5B" x1="356.2" y1="578.9" x2="369.4" y2="581.1"/>
		<polygon fill="#945BB0" points="369.3,583.1 356.1,580.9 356.4,577 369.5,579.1 		"/>
	</g>
	<g>
		<line fill="#C93D39" x1="375.2" y1="593.9" x2="353.5" y2="590.2"/>
		<polygon fill="#C93D39" points="375,595.8 353.3,592.1 353.6,588.2 375.3,591.9 		"/>
	</g>
	<g>
		<line fill="#4266D5" x1="353.9" y1="598.1" x2="376.7" y2="607"/>
		<polygon fill="#4266D5" points="376.5,608.9 353.7,600.1 354.2,596.2 377,605.1 		"/>
	</g>
	<path fill="#252525" d="M379.6,614.1l-3.8-0.8c1.2-14.3-7.4-29.1-14.2-41c-4.9-8.5-8.8-15.3-9.4-21.7c-1.4-15.6,6.7-25.9,13.9-35
		c5.4-6.8,10.9-13.9,11.6-21.7c0.3-3.9-1.7-9.7-2.8-11.9l2.9-5.6c0.5,1,4.4,9.7,3.7,18.3c-0.9,11.4-7.3,19.5-13.5,27.4
		c-6.6,8.5-12.9,16.4-12,26.7c0.3,3.9,4.5,11.1,8.2,17.5C371.7,579.3,381.1,595.6,379.6,614.1z"/>
	<path fill="#252525" d="M352.1,601.4c-1.8-8.5-0.3-17.9,4.5-27.7c3.8-7.8,9-14.9,13.2-20.6c2.9-3.9,6.1-8.3,6.7-10.2
		c1-3.4,2-8.9-1.8-18.3c-2.9-7-7.5-13.9-11.6-20.1c-5.2-7.9-9.4-14.1-10.2-20.2c-0.8-6.3,0.2-14.1,0.3-15l3.8,1.5l-1.9-0.8l1.9,0.8
		c-0.2,1.8-0.7,7.4-0.3,11.1c0.5,3.7,4.9,10.3,8.8,16.2c4.2,6.4,9.1,13.6,12.2,21.3c4,9.7,4.7,18.9,2.1,27.4
		c-1,3.3-3.6,6.8-7.9,12.8c-7.5,10.2-18.9,25.6-16.2,38.5L352.1,601.4z"/>
</g>
<g>
	<circle fill="#6B85DD" stroke="#4266D5" stroke-width="3" cx="411.9" cy="387.4" r="10.8"/>
	<path fill="#252525" d="M450.8,405.1c4.2,0,7.8,0.7,10.9,2c3.1,1.3,5.6,3.2,7.6,5.7c2,2.5,3.5,5.5,4.5,9.2c1,3.6,1.5,7.7,1.5,12.3
		s-0.5,8.7-1.5,12.3c-1,3.6-2.5,6.7-4.4,9.2c-2,2.5-4.5,4.4-7.6,5.7c-3.1,1.3-7.7,2-11.9,2c-4.2,0-6.8-0.7-9.9-2
		c-3.1-1.3-5.6-3.2-7.6-5.7c-2-2.5-3.5-5.5-4.4-9.2c-1-3.6-1.5-7.7-1.5-12.3s0.5-8.7,1.5-12.3c1-3.6,2.5-6.7,4.4-9.2
		c2-2.5,4.5-4.4,7.6-5.7C443,405.8,446.6,405.1,450.8,405.1z M451.2,413c-2.4,0-4.1,1.7-5.2,5.1c-1.1,3.4-1.7,8.6-1.7,15.7
		c0,7.2,0.6,12.4,1.7,15.8c1.1,3.3,2.8,5,5.2,5c2.4,0,4.2-1.7,5.3-5.1c1.1-3.4,1.7-8.6,1.7-15.7c0-7.1-0.6-12.3-1.7-15.7
		C455.4,414.7,453.6,413,451.2,413z"/>
	<path fill="#252525" d="M420.5,432.3c0,9.3,0,18.6,0,27.9c0,0.7-0.1,0.9-0.9,0.9c-5.2,0-10.3,0-15.5,0c-0.6,0-0.7-0.1-0.7-0.7
		c0-17.2,0-34.4,0-51.6c0-0.5,0.1-0.7,0.6-0.9c5.2-1.4,10.5-2.9,15.7-4.3c0.7-0.2,0.7,0,0.7,0.6C420.5,413.6,420.5,423,420.5,432.3z
		"/>
	<g>
		<path fill="#252525" d="M375.5,407.9c3.8,0,7.2,0.6,10,1.8c2.8,1.2,5.1,3,7,5.2c1.8,2.3,3.2,5.1,4.1,8.4c0.9,3.3,1.3,7.1,1.3,11.3
			c0,4.2-0.4,8-1.3,11.3c-0.9,3.3-2.3,6.1-4.1,8.4c-1.8,2.3-4.1,4-7,5.2c-2.8,1.2-5,1.8-8.9,1.8c-5.5,0-13.3-5.6-16.1-6.8
			c-2.8-1.2,1.9,2,0-0.2c-1.8-2.3-3.2-5.1-4.1-8.4c-0.9-3.3-1.3-7.1-1.3-11.3c0-4.2,0.4-8,1.3-11.3c0.9-3.3-5.7-6.1-3.9-8.4
			c1.8-2.3,4.1,0,7-1.2C362.4,412.5,371.7,407.9,375.5,407.9z M375.9,415.2c-2.2,0-7.8,3.6-8.8,6.7c-1,3.1-0.7,6.3-0.7,12.8
			c0,6.6-0.3,9.1,0.7,12.1c1,3.1,6.6,6.6,8.8,6.6c2.2,0,3.8-1.5,4.8-4.6c1-3.1,1.5-7.9,1.5-14.4c0-6.5-0.5-11.3-1.5-14.4
			C379.7,416.7,378.1,415.2,375.9,415.2z"/>
		<path fill="#252525" d="M366.4,419.8c0,13.6,0,27.1,0,40.7c0,0.7-0.2,0.9-0.9,0.9c-5.1,0-10.3,0-15.4,0c-0.6,0-0.7-0.1-0.7-0.7
			c0-25.7,0-51.4,0-77.1c0-0.5,0.1-0.8,0.7-0.9c5.2-1.4,10.3-2.8,15.5-4.3c0.7-0.2,0.9-0.1,0.9,0.6
			C366.4,392.6,366.4,406.2,366.4,419.8z"/>
	</g>
</g>
<path fill="#252525" d="M1813.3,743.8c0,13.6,0,27.1,0,40.7c0,0.7-0.2,0.9-0.9,0.9c-5.1,0-10.3,0-15.4,0c-0.6,0-0.7-0.1-0.7-0.7
	c0-25.7,0-51.4,0-77.1c0-0.5,0.1-0.8,0.7-0.9c5.2-1.4,10.3-2.8,15.5-4.3c0.7-0.2,0.9-0.1,0.9,0.6
	C1813.3,716.6,1813.3,730.2,1813.3,743.8z"/>
<path fill="#252525" d="M1836.8,756.9c0,9.3,0,18.6,0,27.9c0,0.7-0.1,0.9-0.9,0.9c-5.2,0-10.3,0-15.5,0c-0.6,0-0.7-0.1-0.7-0.7
	c0-17.2,0-34.4,0-51.6c0-0.5,0.1-0.7,0.6-0.9c5.2-1.4,10.5-2.9,15.7-4.3c0.7-0.2,0.7,0,0.7,0.6
	C1836.8,738.2,1836.8,747.5,1836.8,756.9z"/>
<path fill="#252525" d="M1872.5,781.3c-0.5,0.4-0.9,0.7-1.3,1.1c-2.9,2.5-6.2,3.9-10,4.2c-3.8,0.3-7.5,0.2-11.1-1.3
	c-7.9-3.3-10.2-11.3-7.8-18c1.2-3.4,3.6-5.8,6.5-7.8c3.7-2.6,7.9-4.4,12.2-6c3.7-1.3,7.4-2.6,11.1-3.5c0.3-0.1,0.5-0.2,0.5-0.6
	c-0.1-2.9,0.2-5.8-0.3-8.7c-0.8-4.7-4.3-6.6-8.5-6.1c-0.3,0-0.7,0.1-1,0.2c-3.2,0.7-4.8,2.9-4.8,6.7c0,1.1-0.2,2.2-0.5,3.3
	c-0.6,2.1-2,3.5-4.1,4.1c-2.2,0.6-4.5,0.7-6.7-0.2c-4.3-1.7-5.8-6.7-3.4-10.9c1.5-2.5,3.7-4.2,6.2-5.5c4.1-2.1,8.5-3.3,13.1-3.6
	c5-0.4,9.9-0.2,14.8,1c2.8,0.7,5.5,1.8,7.7,3.7c2.9,2.5,4.5,5.7,4.5,9.4c0.1,14.1,0.1,28.2,0.1,42.4c0,0.5-0.2,0.6-0.7,0.6
	c-5.3,0-10.6,0-15.9,0c-0.5,0-0.6-0.1-0.6-0.6C1872.5,783.9,1872.5,782.7,1872.5,781.3z M1872.5,756.9c-3.2,1.4-6.1,2.9-8.7,4.9
	c-1.4,1.1-2.7,2.3-3.8,3.7c-2.8,3.4-1.3,8.8,1.1,10.9c1,0.9,2.2,1.3,3.6,1c1.1-0.2,2.1-0.6,3-1.1c1-0.6,1.9-1.4,3-1.9
	c1.5-0.8,2-1.9,1.9-3.6C1872.4,766.1,1872.5,761.5,1872.5,756.9z"/>
<g>
	<g>
		<line fill="#6BAB5B" x1="1860.2" y1="1116.8" x2="1876.6" y2="1067.7"/>
		<polygon fill="#3B972E" points="1855.8,1116.3 1872.1,1067.3 1881,1068.2 1864.6,1117.3 		"/>
	</g>
	<g>
		<line fill="#AA7DC0" x1="1846.1" y1="1070.2" x2="1837.5" y2="1120.3"/>
		<polygon fill="#945BB0" points="1833,1119.9 1841.6,1069.9 1850.5,1070.5 1842,1120.6 		"/>
	</g>
	<g>
		<line fill="#D66661" x1="1812.6" y1="1115" x2="1814.2" y2="1090.2"/>
		<polygon fill="#C93D39" points="1808.1,1114.8 1809.7,1090 1818.7,1090.4 1817.1,1115.2 		"/>
	</g>
	<g>
		<line fill="#6BAB5B" x1="1765.5" y1="1113.2" x2="1762.5" y2="1085.8"/>
		<polygon fill="#3B972E" points="1758,1085.8 1767,1085.8 1770,1113.2 1761,1113.2 		"/>
	</g>
	<g>
		<line fill="#AA7DC0" x1="1733.3" y1="1071.8" x2="1741" y2="1121.8"/>
		<polygon fill="#945BB0" points="1728.9,1071.8 1737.8,1071.7 1745.5,1121.8 1736.5,1121.8 		"/>
	</g>
	<g>
		<line fill="#D66661" x1="1704.7" y1="1063.8" x2="1713.1" y2="1119.5"/>
		<polygon fill="#C93D39" points="1700.2,1063.9 1709.2,1063.8 1717.6,1119.5 1708.6,1119.5 		"/>
	</g>
	<g>
		<line fill="#6B85DD" x1="1683.6" y1="1099.8" x2="1679.6" y2="1069.7"/>
		<polygon fill="#4266D5" points="1675.1,1069.7 1684.1,1069.7 1688.1,1099.7 1679.1,1099.8 		"/>
	</g>
	<g>
		<line fill="#6BAB5B" x1="1634.5" y1="1069.1" x2="1629.5" y2="1099.4"/>
		<polygon fill="#945BB0" points="1625,1099.1 1630,1068.8 1639,1069.4 1633.9,1099.7 		"/>
	</g>
	<g>
		<line fill="#C93D39" x1="1600.1" y1="1112.6" x2="1608.6" y2="1062.7"/>
		<polygon fill="#C93D39" points="1595.6,1112.3 1604.1,1062.4 1613.1,1063 1604.6,1113 		"/>
	</g>
	<g>
		<line fill="#4266D5" x1="1590.2" y1="1063.8" x2="1569.9" y2="1116.2"/>
		<polygon fill="#4266D5" points="1565.4,1115.7 1585.8,1063.2 1594.7,1064.3 1574.3,1116.8 		"/>
	</g>
	<path fill="#252525" d="M1553.4,1122.8l1.9-8.8c32.9,2.7,67.1-17,94.5-32.8c19.6-11.3,35.1-20.3,50-21.6
		c35.8-3.2,59.6,15.5,80.6,31.9c15.8,12.4,32.1,25.2,49.9,26.6c8.9,0.7,22.3-4,27.3-6.4l12.8,6.7c-2.2,1-22.2,10.2-42.1,8.5
		c-26.3-2.2-45-16.8-63.1-31c-19.5-15.3-37.8-29.7-61.4-27.6c-8.9,0.8-25.5,10.4-40.2,18.8C1633.6,1104.7,1596,1126.3,1553.4,1122.8
		z"/>
	<path fill="#252525" d="M1582.8,1059.5c19.6-4.1,41.1-0.6,63.9,10.4c17.9,8.7,34.2,20.7,47.4,30.4c8.9,6.6,19.1,14.1,23.6,15.4
		c7.8,2.4,20.6,4.6,42.2-4.3c16.2-6.6,32.1-17.3,46.2-26.7c18.1-12.1,32.4-21.6,46.6-23.4c14.5-1.8,32.5,0.4,34.5,0.7l-3.6,8.7
		l1.8-4.3l-1.8,4.3c-4.2-0.5-17.1-1.7-25.6-0.6c-8.4,1.1-23.7,11.3-37.3,20.3c-14.6,9.8-31.2,20.9-48.9,28.1
		c-22.4,9.2-43.6,10.8-63,4.7c-7.6-2.4-15.7-8.2-29.4-18.3c-23.5-17.3-59-43.5-88.7-37.2L1582.8,1059.5z"/>
</g>
<g>
	<circle fill="#6B85DD" stroke="#4266D5" stroke-width="3" cx="1720.3" cy="957.9" r="10.8"/>
	<circle fill="#D66661" stroke="#C93D39" stroke-width="3" cx="1826.7" cy="958.9" r="10.8"/>
	<circle fill="#6BAB5B" stroke="#3B972E" stroke-width="3" cx="1840.8" cy="935" r="10.8"/>
	<circle fill="#AA7DC0" stroke="#945BB0" stroke-width="3" cx="1855" cy="958.8" r="10.8"/>
	<path fill="#252525" d="M1711.5,1010.3c0-10.4,0-20.8,0-31.2c0-0.5,0.1-0.8,0.7-1c5.2-1.4,10.3-2.8,15.5-4.3
		c0.9-0.2,0.9-0.2,0.9,0.7c0,16.9,0,33.9,0,50.8c0,3.6,0.2,7.3-0.2,10.9c-0.4,4.4-1.4,8.6-4.2,12.2c-2.5,3.1-5.8,4.8-9.7,5.5
		c-4.3,0.8-8.7,1-13.1,0.6c-3-0.3-5.9-1-8.4-2.9c-1.9-1.4-2.9-3.2-2.5-5.7c0.5-2.5,2.2-3.9,4.5-4.7c1.5-0.5,3-0.6,4.6-0.3
		c1.2,0.2,2.2,0.7,3.1,1.5c0.9,0.8,1.7,1.8,2.5,2.7c0.6,0.8,1.2,1.5,2,2c1.4,0.9,2.6,0.6,3.4-0.8c0.5-1,0.7-2,0.8-3.1
		c0.2-1.5,0.2-3.1,0.2-4.6C1711.5,1029.2,1711.5,1019.8,1711.5,1010.3z"/>
	<path fill="#252525" d="M1769.6,1026.1c-1.9,1.6-3.8,2.8-5.8,3.9c-6.8,3.5-13.5,3-19.9-0.8c-4.4-2.6-7.2-6.5-8.2-11.6
		c-0.2-0.8-0.2-1.6-0.2-2.4c0-13,0-26,0-39c0-0.7,0.2-0.9,0.9-0.9c5.1,0,10.3,0,15.4,0c0.6,0,0.8,0.2,0.8,0.8c0,12.7,0,25.5,0,38.2
		c0,4.2,2.4,7.2,6.4,8.2c1.4,0.3,2.8,0.3,4.1-0.4c2.8-1.4,4.9-3.6,6.7-6.1c0.2-0.3,0.1-0.7,0.1-1c0-12.9,0-25.8,0-38.7
		c0-0.7,0.2-0.9,0.9-0.9c5.2,0,10.3,0,15.5,0c0.6,0,0.7,0.2,0.7,0.7c0,18.2,0,36.4,0,54.6c0,0.6-0.2,0.7-0.7,0.7
		c-5.2,0-10.4,0-15.6,0c-0.5,0-0.7-0.1-0.7-0.7C1769.6,1029.2,1769.6,1027.8,1769.6,1026.1z"/>
	<path fill="#252525" d="M1810.3,989.7c0,13.6,0,27.1,0,40.7c0,0.7-0.2,0.9-0.9,0.9c-5.1,0-10.3,0-15.4,0c-0.6,0-0.7-0.1-0.7-0.7
		c0-25.7,0-51.4,0-77.1c0-0.5,0.1-0.8,0.7-0.9c5.2-1.4,10.3-2.8,15.5-4.3c0.7-0.2,0.9-0.1,0.9,0.6
		C1810.3,962.5,1810.3,976.1,1810.3,989.7z"/>
	<path fill="#252525" d="M1834,1002.5c0,9.3,0,18.6,0,27.9c0,0.7-0.1,0.9-0.9,0.9c-5.2,0-10.3,0-15.5,0c-0.6,0-0.7-0.1-0.7-0.7
		c0-17.2,0-34.4,0-51.6c0-0.5,0.1-0.7,0.6-0.9c5.2-1.4,10.5-2.9,15.7-4.3c0.7-0.2,0.7,0,0.7,0.6C1834,983.8,1834,993.1,1834,1002.5z
		"/>
	<path fill="#252525" d="M1869.6,1026.9c-0.5,0.4-0.9,0.7-1.3,1.1c-2.9,2.5-6.2,3.9-10,4.2c-3.8,0.3-7.5,0.2-11.1-1.3
		c-7.9-3.3-10.2-11.3-7.8-18c1.2-3.4,3.6-5.8,6.5-7.8c3.7-2.6,7.9-4.4,12.2-6c3.7-1.3,7.4-2.6,11.1-3.5c0.3-0.1,0.5-0.2,0.5-0.6
		c-0.1-2.9,0.2-5.8-0.3-8.7c-0.8-4.7-4.3-6.6-8.5-6.1c-0.3,0-0.7,0.1-1,0.2c-3.2,0.7-4.8,2.9-4.8,6.7c0,1.1-0.2,2.2-0.5,3.3
		c-0.6,2.1-2,3.5-4.1,4.1c-2.2,0.6-4.5,0.7-6.7-0.2c-4.3-1.7-5.8-6.7-3.4-10.9c1.5-2.5,3.7-4.2,6.2-5.5c4.1-2.1,8.5-3.3,13.1-3.6
		c5-0.4,9.9-0.2,14.8,1c2.8,0.7,5.5,1.8,7.7,3.7c2.9,2.5,4.5,5.7,4.5,9.4c0.1,14.1,0.1,28.2,0.1,42.4c0,0.5-0.2,0.6-0.7,0.6
		c-5.3,0-10.6,0-15.9,0c-0.5,0-0.6-0.1-0.6-0.6C1869.7,1029.5,1869.6,1028.3,1869.6,1026.9z M1869.6,1002.4
		c-3.2,1.4-6.1,2.9-8.7,4.9c-1.4,1.1-2.7,2.3-3.8,3.7c-2.8,3.4-1.3,8.8,1.1,10.9c1,0.9,2.2,1.3,3.6,1c1.1-0.2,2.1-0.6,3-1.1
		c1-0.6,1.9-1.4,3-1.9c1.5-0.8,2-1.9,1.9-3.6C1869.5,1011.7,1869.6,1007.1,1869.6,1002.4z"/>
</g>
<text transform="matrix(1 0 0 1 1472.6978 163.9844)" font-family="'PaneuropaHighway'" font-size="72">1</text>
<text transform="matrix(1 0 0 1 1472.6978 323.4683)" font-family="'PaneuropaHighway'" font-size="72">2</text>
<text transform="matrix(1 0 0 1 1472.6978 469.3482)" font-family="'PaneuropaHighway'" font-size="72">3</text>
<text transform="matrix(1 0 0 1 1472.6978 611.7397)" font-family="'PaneuropaHighway'" font-size="72">4</text>
<text transform="matrix(1 0 0 1 1472.6978 778.1929)" font-family="'PaneuropaHighway'" font-size="72">5</text>
<text transform="matrix(1 0 0 1 1472.5054 1023.0229)" font-family="'PaneuropaHighway'" font-size="72">6</text>
<text transform="matrix(1 0 0 1 1476.8511 1255.7622)" font-family="'PaneuropaHighway'" font-size="72">7</text>
<text transform="matrix(1 0 0 1 1476.8511 1434.3003)" font-family="'PaneuropaHighway'" font-size="72">8</text>
<path fill="#252525" d="M1072.3,816.8c8,0,15,1.3,20.9,3.8c5.9,2.5,10.8,6.2,14.7,11c3.9,4.8,6.7,10.7,8.6,17.6
	c1.9,6.9,2.8,14.8,2.8,23.7c0,8.8-0.9,16.7-2.8,23.7c-1.9,7-4.7,12.8-8.6,17.6c-3.8,4.8-8.7,8.5-14.6,11c-5.9,2.5-14.8,3.8-22.9,3.8
	c-8,0-13.1-1.3-19.1-3.8c-5.9-2.5-10.8-6.2-14.6-11c-3.8-4.8-6.7-10.7-8.6-17.6c-1.9-6.9-2.8-14.8-2.8-23.7c0-8.8,0.9-16.7,2.8-23.7
	c1.9-6.9,4.7-12.8,8.6-17.6c3.8-4.8,8.7-8.5,14.6-11C1057.3,818.1,1064.3,816.8,1072.3,816.8z M1073.2,832c-4.6,0-7.9,3.3-10.1,9.9
	c-2.1,6.6-3.2,16.7-3.2,30.3c0,13.9,1.1,24,3.2,30.4c2.1,6.4,5.5,9.6,10.1,9.6c4.6,0,8-3.2,10.1-9.7c2.1-6.5,3.2-16.6,3.2-30.3
	c0-13.7-1.1-23.8-3.2-30.3C1081.2,835.3,1077.8,832,1073.2,832z"/>
<path fill="#252525" d="M1013.9,869.2c0,17.9,0,35.9,0,53.8c0,1.3-0.2,1.8-1.7,1.8c-9.9-0.1-19.9-0.1-29.8,0c-1.1,0-1.4-0.2-1.4-1.4
	c0-33.1,0-66.3,0-99.4c0-1,0.3-1.4,1.2-1.6c10.1-2.8,20.2-5.5,30.3-8.4c1.3-0.4,1.4,0,1.4,1.1
	C1013.9,833.1,1013.9,851.2,1013.9,869.2z"/>
<g>
	<path fill="#252525" d="M927.3,822.2c7.4,0,13.8,1.2,19.2,3.5c5.4,2.3,9.9,5.7,13.5,10.1c3.6,4.4,6.2,9.8,7.9,16.2
		c1.7,6.4,2.6,13.6,2.6,21.7c0,8.1-0.9,15.4-2.6,21.7c-1.7,6.4-4.3,11.8-7.9,16.2c-3.5,4.4-8,7.8-13.4,10.1
		c-5.4,2.3-9.7,3.5-17.2,3.5c-10.5,0-25.6-10.8-31-13.1c-5.4-2.3,3.6,3.9,0.1-0.5c-3.5-4.4-6.1-9.8-7.9-16.2
		c-1.7-6.4-2.6-13.6-2.6-21.7c0-8.1,0.9-15.4,2.6-21.7c1.7-6.4-11.1-11.8-7.6-16.2c3.5-4.4,8-0.1,13.4-2.4
		C902,831,919.9,822.2,927.3,822.2z M928.1,836.2c-4.2,0-15,6.9-16.9,12.9c-2,6-1.4,12.1-1.4,24.6c0,12.7-0.5,17.5,1.4,23.4
		c2,5.9,12.7,12.7,16.9,12.7c4.2,0,7.4-3,9.3-8.9c2-6,2.9-15.2,2.9-27.8c0-12.6-1-21.8-2.9-27.8
		C935.4,839.2,932.3,836.2,928.1,836.2z"/>
	<path fill="#252525" d="M909.7,845c0,26.2,0,52.3,0,78.4c0,1.4-0.4,1.7-1.8,1.7c-9.9-0.1-19.8-0.1-29.6,0c-1.1,0-1.4-0.3-1.4-1.4
		c0-49.5,0-99,0-148.5c0-1,0.2-1.5,1.3-1.8c10-2.7,19.9-5.5,29.9-8.3c1.3-0.4,1.7-0.2,1.7,1.2C909.7,792.6,909.7,818.8,909.7,845z"
		/>
</g>
<path fill="#D66661" stroke="#C93D39" stroke-width="3" d="M998.2,766.3c11.5,0,20.9,9.4,20.9,20.9c0,11.5-9.4,20.9-20.9,20.9
	c-11.5,0-20.9-9.4-20.9-20.9C977.3,775.7,986.6,766.3,998.2,766.3z"/>
<circle fill="#6BAB5B" stroke="#3B972E" stroke-width="3" cx="1025.3" cy="741.2" r="20.9"/>
<path fill="#AA7DC0" stroke="#945BB0" stroke-width="3" d="M1052.7,766c11.5,0,20.9,9.4,20.9,20.9c0,11.5-9.4,20.9-20.9,20.9
	c-11.5,0-20.9-9.4-20.9-20.9C1031.7,775.4,1041.1,766,1052.7,766z"/>
</svg>
