<svg xmlns="http://www.w3.org/2000/svg" width="1039.7" height="939.294" viewBox="0 0 974.71892 880.58782"><defs><clipPath id="a"><path fill-opacity=".345" stroke-width="2.573" stroke-linecap="square" stroke-linejoin="round" d="M568.849 658.072h111.776v25H568.849z"/></clipPath><clipPath id="b"><path fill-opacity=".345" stroke-width="2.573" stroke-linecap="square" stroke-linejoin="round" d="M568.849 658.072h111.776v25H568.849z"/></clipPath></defs><g transform="translate(7.796 -138.497)"><circle cx="288.035" cy="592.902" r="14.75" fill="#d66661" stroke="#c93d39" stroke-width="4.097"/><circle cx="307.292" cy="560.261" r="14.75" fill="#6bab5b" stroke="#3b972e" stroke-width="4.097"/><circle cx="326.685" cy="592.766" r="14.75" fill="#aa7dc0" stroke="#945bb0" stroke-width="4.097"/><path d="M299.66 653.568v38.128c0 .957-.136 1.23-1.23 1.23h-21.182c-.82 0-.956-.137-.956-.957v-70.516c0-.683.136-.957.82-1.23 7.106-1.913 14.349-3.963 21.455-5.876.957-.273.957 0 .957.82.136 12.846.136 25.692.136 38.401z" fill="#252525"/><path d="M192.204 586.276l23.012-6.331v41.702q4.421-2.914 9.646-4.723 5.326-1.808 10.15-1.808 7.034 0 13.063 2.713 6.03 2.713 10.35 7.335 4.321 4.623 6.733 10.753 2.512 6.13 2.512 12.963 0 9.044-3.416 17.183-3.417 8.14-9.346 14.27-5.928 6.029-13.967 9.646-7.939 3.517-16.983 3.517-8.943 0-17.083-2.411-8.14-2.412-14.671-7.638v-97.171zm23.012 92.147q2.411 2.01 5.124 3.718 2.714 1.608 6.532 1.608 3.819 0 6.934-2.311 3.215-2.412 5.426-6.432 2.311-4.12 3.517-9.646 1.206-5.628 1.206-12.059 0-4.823-1.306-9.044-1.206-4.22-3.417-7.436-2.11-3.216-5.125-5.024-2.914-1.91-6.23-1.91-3.216 0-6.733 1.91-3.416 1.808-5.928 4.723v41.903z" style="line-height:125%;-inkscape-font-specification:'Sinhala MN, Bold';text-align:start" font-weight="700" font-size="205.8" font-family="Sinhala MN" letter-spacing="0" word-spacing="0" fill="#252525"/><path d="M350.24 692.926q-9.078 0-16.846-2.925-7.666-3.027-13.315-8.171-5.548-5.246-8.675-12.206-3.127-7.061-3.127-15.232 0-8.776 3.127-16.14 3.127-7.363 8.675-12.71 5.649-5.346 13.315-8.271 7.667-3.027 16.745-3.027 9.08 0 16.745 2.926 7.667 2.925 13.316 8.07 5.649 5.144 8.776 12.105 3.228 6.859 3.228 14.828 0 8.373-3.228 15.837-3.127 7.364-8.776 12.912-5.548 5.548-13.215 8.776-7.666 3.228-16.745 3.228zm2.623-9.28q3.127 0 5.75-2.018 2.723-2.118 4.64-5.548 1.917-3.43 3.026-7.868 1.11-4.54 1.11-9.482 0-7.263-1.11-13.719-1.11-6.456-3.53-11.197-2.421-4.842-6.355-7.666-3.834-2.825-9.483-2.825-2.723 0-5.245 2.018-2.522 2.017-4.438 5.447-1.917 3.329-3.127 7.767-1.11 4.438-1.11 9.28 0 7.364 1.311 13.921 1.412 6.456 3.934 11.399 2.623 4.842 6.255 7.666 3.732 2.825 8.372 2.825z" style="line-height:125%;-inkscape-font-specification:'Sinhala MN, Bold';text-align:start" font-weight="700" font-size="206.59" font-family="Sinhala MN" letter-spacing="0" word-spacing="0" fill="#252525"/></g><text style="line-height:125%" x="-239.857" y="235.217" font-weight="400" font-size="40" font-family="sans-serif" letter-spacing="0" word-spacing="0" transform="translate(235.93 -156.776)"><tspan x="-239.857" y="235.217">Bio Grey:</tspan></text><g transform="translate(-531.775 -376.802)"><path d="M839.232 454.267v38.128c0 .956-.137 1.23-1.23 1.23H816.82c-.82 0-.957-.137-.957-.957v-70.516c0-.683.137-.957.82-1.23 7.106-1.913 14.35-3.963 21.456-5.876.956-.274.956 0 .956.82.137 12.846.137 25.692.137 38.401z" fill="#252525"/><path d="M731.775 386.974l23.012-6.33v41.702q4.422-2.914 9.647-4.723 5.326-1.808 10.15-1.808 7.034 0 13.063 2.713 6.03 2.713 10.35 7.335 4.321 4.623 6.733 10.753 2.512 6.13 2.512 12.963 0 9.043-3.417 17.183-3.416 8.14-9.345 14.27-5.929 6.029-13.968 9.646-7.938 3.517-16.982 3.517-8.944 0-17.083-2.411-8.14-2.412-14.672-7.638v-97.172zm23.012 92.148q2.412 2.01 5.125 3.718 2.713 1.608 6.532 1.608 3.818 0 6.933-2.311 3.216-2.412 5.427-6.432 2.311-4.12 3.517-9.646 1.206-5.628 1.206-12.059 0-4.823-1.307-9.044-1.205-4.22-3.416-7.436-2.11-3.216-5.125-5.024-2.914-1.91-6.23-1.91-3.216 0-6.733 1.91-3.417 1.808-5.929 4.722v41.904z" style="line-height:125%;-inkscape-font-specification:'Sinhala MN, Bold';text-align:start" font-weight="700" font-size="205.8" font-family="Sinhala MN" letter-spacing="0" word-spacing="0" fill="#252525"/><path d="M889.812 493.625q-9.079 0-16.846-2.925-7.666-3.027-13.315-8.171-5.548-5.246-8.675-12.206-3.128-7.061-3.128-15.232 0-8.776 3.128-16.14 3.127-7.363 8.675-12.71 5.649-5.346 13.315-8.271 7.666-3.027 16.745-3.027t16.745 2.926q7.667 2.925 13.315 8.07 5.65 5.144 8.777 12.104 3.227 6.86 3.227 14.829 0 8.372-3.227 15.837-3.128 7.364-8.777 12.912-5.548 5.548-13.214 8.776-7.666 3.228-16.745 3.228zm2.623-9.28q3.127 0 5.75-2.018 2.723-2.118 4.64-5.548 1.916-3.43 3.026-7.868 1.11-4.54 1.11-9.482 0-7.263-1.11-13.72-1.11-6.455-3.53-11.196-2.422-4.842-6.356-7.667-3.833-2.824-9.482-2.824-2.723 0-5.245 2.017-2.522 2.018-4.439 5.448-1.916 3.328-3.127 7.767-1.11 4.438-1.11 9.28 0 7.364 1.312 13.92 1.412 6.457 3.934 11.4 2.623 4.842 6.254 7.666 3.732 2.825 8.373 2.825z" style="line-height:125%;-inkscape-font-specification:'Sinhala MN, Bold';text-align:start" font-weight="700" font-size="206.59" font-family="Sinhala MN" letter-spacing="0" word-spacing="0" fill="#252525"/><circle stroke-miterlimit="10" cx="827.607" cy="393.601" r="14.75" fill="#4c4c4c" stroke="#3a3a3a" stroke-width="4.097"/></g><g transform="translate(-39.602 36.836)"><path d="M347.059 250.005v38.128c0 .956-.137 1.23-1.23 1.23h-21.182c-.82 0-.957-.137-.957-.957V217.89c0-.684.137-.957.82-1.23 7.106-1.913 14.35-3.963 21.456-5.877.956-.273.956 0 .956.82.137 12.846.137 25.692.137 38.402z" fill="#252525"/><path d="M239.602 182.712l23.012-6.33v41.702q4.422-2.914 9.647-4.723 5.326-1.809 10.15-1.809 7.033 0 13.063 2.713 6.029 2.714 10.35 7.336t6.733 10.752q2.512 6.13 2.512 12.963 0 9.044-3.417 17.184-3.416 8.14-9.345 14.269-5.929 6.03-13.968 9.647-7.939 3.517-16.982 3.517-8.944 0-17.083-2.412-8.14-2.412-14.672-7.637v-97.172zm23.012 92.148q2.412 2.01 5.125 3.718 2.713 1.608 6.532 1.608 3.818 0 6.933-2.312 3.216-2.411 5.427-6.43 2.311-4.12 3.517-9.648 1.206-5.627 1.206-12.058 0-4.824-1.307-9.044-1.206-4.22-3.416-7.436-2.11-3.216-5.125-5.025-2.914-1.91-6.23-1.91-3.216 0-6.733 1.91-3.417 1.809-5.929 4.723v41.904z" style="line-height:125%;-inkscape-font-specification:'Sinhala MN, Bold';text-align:start" font-weight="700" font-size="205.8" font-family="Sinhala MN" letter-spacing="0" word-spacing="0" fill="#252525"/><path d="M397.639 289.363q-9.079 0-16.846-2.926-7.666-3.026-13.315-8.17-5.548-5.246-8.676-12.206-3.127-7.061-3.127-15.232 0-8.776 3.127-16.14 3.128-7.364 8.676-12.71 5.649-5.346 13.315-8.272 7.666-3.026 16.745-3.026t16.745 2.925q7.666 2.926 13.315 8.07 5.65 5.145 8.776 12.105 3.228 6.86 3.228 14.829 0 8.372-3.228 15.837-3.127 7.364-8.776 12.912-5.548 5.548-13.214 8.776-7.666 3.228-16.745 3.228zm2.623-9.28q3.127 0 5.75-2.018 2.723-2.119 4.64-5.548 1.916-3.43 3.026-7.868 1.11-4.54 1.11-9.483 0-7.263-1.11-13.718-1.11-6.456-3.53-11.197-2.422-4.842-6.356-7.667-3.833-2.824-9.482-2.824-2.724 0-5.245 2.017-2.522 2.018-4.439 5.447-1.916 3.33-3.127 7.768-1.11 4.438-1.11 9.28 0 7.364 1.312 13.92 1.412 6.457 3.934 11.4 2.623 4.841 6.254 7.666 3.732 2.824 8.373 2.824z" style="line-height:125%;-inkscape-font-specification:'Sinhala MN, Bold';text-align:start" font-weight="700" font-size="206.59" font-family="Sinhala MN" letter-spacing="0" word-spacing="0" fill="#252525"/><circle r="14.75" cy="189.339" cx="335.433" fill="#6b85dd" stroke="#4266d5" stroke-width="4.097"/></g><text style="line-height:125%" x="-239.857" y="440.888" font-weight="400" font-size="40" font-family="sans-serif" letter-spacing="0" word-spacing="0" transform="translate(235.93 -156.776)"><tspan x="-239.857" y="440.888">Bio Blue:</tspan></text><text style="line-height:125%" x="-239.857" y="665.203" font-weight="400" font-size="40" font-family="sans-serif" letter-spacing="0" word-spacing="0" transform="translate(235.93 -156.776)"><tspan x="-239.857" y="665.203">Bio Triple:</tspan></text><g fill="none"><path d="M560.817 606.347V562.34" stroke="#4266d5" stroke-width="4.75396" stroke-linejoin="round"/><path d="M541.696 593.347v-27.479" stroke="#c93d39" stroke-width="4.75396" stroke-linecap="round" stroke-linejoin="round"/><path d="M503.664 569.099v22.766" stroke="#3b972e" stroke-width="4.75396" stroke-linecap="square" stroke-linejoin="round"/><path d="M484.649 563.311v40.855" stroke="#945bb0" stroke-width="4.75396" stroke-linecap="round" stroke-linejoin="round"/><path d="M655.896 568.057v44.008" stroke="#4266d5" stroke-width="4.75396" stroke-linejoin="round"/><path d="M636.776 581.058v27.479" stroke="#c93d39" stroke-width="4.75396" stroke-linecap="round" stroke-linejoin="round"/><path d="M598.744 605.306v-22.767" stroke="#3b972e" stroke-width="4.75396" stroke-linecap="square" stroke-linejoin="round"/><path d="M579.728 611.094v-40.856" stroke="#945bb0" stroke-width="4.75396" stroke-linecap="round" stroke-linejoin="round"/><path d="M463.491 610.972c47.54 0 47.54-47.54 95.08-47.54M487.261 563.432c47.54 0 47.54 47.54 95.08 47.54M558.57 563.432c47.54 0 47.54 47.54 95.08 47.54M582.34 610.972c47.54 0 47.54-47.54 95.08-47.54" stroke="#252525" stroke-width="6.11596954" stroke-linecap="square"/></g><g transform="translate(278.416 -138.497)"><circle cx="288.035" cy="592.902" r="14.75" fill="#d66661" stroke="#c93d39" stroke-width="4.097"/><circle cx="307.292" cy="560.261" r="14.75" fill="#6bab5b" stroke="#3b972e" stroke-width="4.097"/><circle cx="326.685" cy="592.766" r="14.75" fill="#aa7dc0" stroke="#945bb0" stroke-width="4.097"/><path d="M299.66 653.568v38.128c0 .957-.136 1.23-1.23 1.23h-21.182c-.82 0-.956-.137-.956-.957v-70.516c0-.683.136-.957.82-1.23 7.106-1.913 14.349-3.963 21.455-5.876.957-.273.957 0 .957.82.136 12.846.136 25.692.136 38.401z" fill="#252525"/><path d="M192.204 586.276l23.012-6.331v41.702q4.421-2.914 9.646-4.723 5.326-1.808 10.15-1.808 7.034 0 13.063 2.713 6.03 2.713 10.35 7.335 4.321 4.623 6.733 10.753 2.512 6.13 2.512 12.963 0 9.044-3.416 17.183-3.417 8.14-9.346 14.27-5.928 6.029-13.967 9.646-7.939 3.517-16.983 3.517-8.943 0-17.083-2.411-8.14-2.412-14.671-7.638v-97.171zm23.012 92.147q2.411 2.01 5.124 3.718 2.714 1.608 6.532 1.608 3.819 0 6.934-2.311 3.215-2.412 5.426-6.432 2.311-4.12 3.517-9.646 1.206-5.628 1.206-12.059 0-4.823-1.306-9.044-1.206-4.22-3.417-7.436-2.11-3.216-5.125-5.024-2.914-1.91-6.23-1.91-3.216 0-6.733 1.91-3.416 1.808-5.928 4.723v41.903z" style="line-height:125%;-inkscape-font-specification:'Sinhala MN, Bold';text-align:start" font-weight="700" font-size="205.8" font-family="Sinhala MN" letter-spacing="0" word-spacing="0" fill="#252525"/><path d="M350.24 692.926q-9.078 0-16.846-2.925-7.666-3.027-13.315-8.171-5.548-5.246-8.675-12.206-3.127-7.061-3.127-15.232 0-8.776 3.127-16.14 3.127-7.363 8.675-12.71 5.649-5.346 13.315-8.271 7.667-3.027 16.745-3.027 9.08 0 16.745 2.926 7.667 2.925 13.316 8.07 5.649 5.144 8.776 12.105 3.228 6.859 3.228 14.828 0 8.373-3.228 15.837-3.127 7.364-8.776 12.912-5.548 5.548-13.215 8.776-7.666 3.228-16.745 3.228zm2.623-9.28q3.127 0 5.75-2.018 2.723-2.118 4.64-5.548 1.917-3.43 3.026-7.868 1.11-4.54 1.11-9.482 0-7.263-1.11-13.719-1.11-6.456-3.53-11.197-2.421-4.842-6.355-7.666-3.834-2.825-9.483-2.825-2.723 0-5.245 2.018-2.522 2.017-4.438 5.447-1.917 3.329-3.127 7.767-1.11 4.438-1.11 9.28 0 7.364 1.311 13.921 1.412 6.456 3.934 11.399 2.623 4.842 6.255 7.666 3.732 2.825 8.372 2.825z" style="line-height:125%;-inkscape-font-specification:'Sinhala MN, Bold';text-align:start" font-weight="700" font-size="206.59" font-family="Sinhala MN" letter-spacing="0" word-spacing="0" fill="#252525"/></g><g transform="translate(234.51 36.836)"><path d="M347.059 250.005v38.128c0 .956-.137 1.23-1.23 1.23h-21.182c-.82 0-.957-.137-.957-.957V217.89c0-.684.137-.957.82-1.23 7.106-1.913 14.35-3.963 21.456-5.877.956-.273.956 0 .956.82.137 12.846.137 25.692.137 38.402z" fill="#252525"/><path d="M239.602 182.712l23.012-6.33v41.702q4.422-2.914 9.647-4.723 5.326-1.809 10.15-1.809 7.033 0 13.063 2.713 6.029 2.714 10.35 7.336t6.733 10.752q2.512 6.13 2.512 12.963 0 9.044-3.417 17.184-3.416 8.14-9.345 14.269-5.929 6.03-13.968 9.647-7.939 3.517-16.982 3.517-8.944 0-17.083-2.412-8.14-2.412-14.672-7.637v-97.172zm23.012 92.148q2.412 2.01 5.125 3.718 2.713 1.608 6.532 1.608 3.818 0 6.933-2.312 3.216-2.411 5.427-6.43 2.311-4.12 3.517-9.648 1.206-5.627 1.206-12.058 0-4.824-1.307-9.044-1.206-4.22-3.416-7.436-2.11-3.216-5.125-5.025-2.914-1.91-6.23-1.91-3.216 0-6.733 1.91-3.417 1.809-5.929 4.723v41.904z" style="line-height:125%;-inkscape-font-specification:'Sinhala MN, Bold';text-align:start" font-weight="700" font-size="205.8" font-family="Sinhala MN" letter-spacing="0" word-spacing="0" fill="#252525"/><path d="M397.639 289.363q-9.079 0-16.846-2.926-7.666-3.026-13.315-8.17-5.548-5.246-8.676-12.206-3.127-7.061-3.127-15.232 0-8.776 3.127-16.14 3.128-7.364 8.676-12.71 5.649-5.346 13.315-8.272 7.666-3.026 16.745-3.026t16.745 2.925q7.666 2.926 13.315 8.07 5.65 5.145 8.776 12.105 3.228 6.86 3.228 14.829 0 8.372-3.228 15.837-3.127 7.364-8.776 12.912-5.548 5.548-13.214 8.776-7.666 3.228-16.745 3.228zm2.623-9.28q3.127 0 5.75-2.018 2.723-2.119 4.64-5.548 1.916-3.43 3.026-7.868 1.11-4.54 1.11-9.483 0-7.263-1.11-13.718-1.11-6.456-3.53-11.197-2.422-4.842-6.356-7.667-3.833-2.824-9.482-2.824-2.724 0-5.245 2.017-2.522 2.018-4.439 5.447-1.916 3.33-3.127 7.768-1.11 4.438-1.11 9.28 0 7.364 1.312 13.92 1.412 6.457 3.934 11.4 2.623 4.841 6.254 7.666 3.732 2.824 8.373 2.824z" style="line-height:125%;-inkscape-font-specification:'Sinhala MN, Bold';text-align:start" font-weight="700" font-size="206.59" font-family="Sinhala MN" letter-spacing="0" word-spacing="0" fill="#252525"/><circle r="14.75" cy="189.339" cx="335.433" fill="#6b85dd" stroke="#4266d5" stroke-width="4.097"/></g><g fill="none"><path d="M560.817 375.45v-44.007" stroke="#4266d5" stroke-width="4.75396" stroke-linejoin="round"/><path d="M541.696 362.45v-27.478" stroke="#c93d39" stroke-width="4.75396" stroke-linecap="round" stroke-linejoin="round"/><path d="M503.664 338.202v22.767" stroke="#3b972e" stroke-width="4.75396" stroke-linecap="square" stroke-linejoin="round"/><path d="M484.649 332.415v40.855" stroke="#945bb0" stroke-width="4.75396" stroke-linecap="round" stroke-linejoin="round"/><path d="M655.896 337.161v44.007" stroke="#4266d5" stroke-width="4.75396" stroke-linejoin="round"/><path d="M636.776 350.161v27.479" stroke="#c93d39" stroke-width="4.75396" stroke-linecap="round" stroke-linejoin="round"/><path d="M598.744 374.41v-22.767" stroke="#3b972e" stroke-width="4.75396" stroke-linecap="square" stroke-linejoin="round"/><path d="M579.728 380.197v-40.855" stroke="#945bb0" stroke-width="4.75396" stroke-linecap="round" stroke-linejoin="round"/><path d="M463.491 380.076c47.54 0 47.54-47.54 95.08-47.54M487.261 332.536c47.54 0 47.54 47.54 95.08 47.54M558.57 332.536c47.54 0 47.54 47.54 95.08 47.54M582.34 380.076c47.54 0 47.54-47.54 95.08-47.54" stroke="#252525" stroke-width="6.11596954" stroke-linecap="square"/></g><g transform="translate(-257.663 -376.802)"><path d="M839.232 454.267v38.128c0 .956-.137 1.23-1.23 1.23H816.82c-.82 0-.957-.137-.957-.957v-70.516c0-.683.137-.957.82-1.23 7.106-1.913 14.35-3.963 21.456-5.876.956-.274.956 0 .956.82.137 12.846.137 25.692.137 38.401z" fill="#252525"/><path d="M731.775 386.974l23.012-6.33v41.702q4.422-2.914 9.647-4.723 5.326-1.808 10.15-1.808 7.034 0 13.063 2.713 6.03 2.713 10.35 7.335 4.321 4.623 6.733 10.753 2.512 6.13 2.512 12.963 0 9.043-3.417 17.183-3.416 8.14-9.345 14.27-5.929 6.029-13.968 9.646-7.938 3.517-16.982 3.517-8.944 0-17.083-2.411-8.14-2.412-14.672-7.638v-97.172zm23.012 92.148q2.412 2.01 5.125 3.718 2.713 1.608 6.532 1.608 3.818 0 6.933-2.311 3.216-2.412 5.427-6.432 2.311-4.12 3.517-9.646 1.206-5.628 1.206-12.059 0-4.823-1.307-9.044-1.205-4.22-3.416-7.436-2.11-3.216-5.125-5.024-2.914-1.91-6.23-1.91-3.216 0-6.733 1.91-3.417 1.808-5.929 4.722v41.904z" style="line-height:125%;-inkscape-font-specification:'Sinhala MN, Bold';text-align:start" font-weight="700" font-size="205.8" font-family="Sinhala MN" letter-spacing="0" word-spacing="0" fill="#252525"/><path d="M889.812 493.625q-9.079 0-16.846-2.925-7.666-3.027-13.315-8.171-5.548-5.246-8.675-12.206-3.128-7.061-3.128-15.232 0-8.776 3.128-16.14 3.127-7.363 8.675-12.71 5.649-5.346 13.315-8.271 7.666-3.027 16.745-3.027t16.745 2.926q7.667 2.925 13.315 8.07 5.65 5.144 8.777 12.104 3.227 6.86 3.227 14.829 0 8.372-3.227 15.837-3.128 7.364-8.777 12.912-5.548 5.548-13.214 8.776-7.666 3.228-16.745 3.228zm2.623-9.28q3.127 0 5.75-2.018 2.723-2.118 4.64-5.548 1.916-3.43 3.026-7.868 1.11-4.54 1.11-9.482 0-7.263-1.11-13.72-1.11-6.455-3.53-11.196-2.422-4.842-6.356-7.667-3.833-2.824-9.482-2.824-2.723 0-5.245 2.017-2.522 2.018-4.439 5.448-1.916 3.328-3.127 7.767-1.11 4.438-1.11 9.28 0 7.364 1.312 13.92 1.412 6.457 3.934 11.4 2.623 4.842 6.254 7.666 3.732 2.825 8.373 2.825z" style="line-height:125%;-inkscape-font-specification:'Sinhala MN, Bold';text-align:start" font-weight="700" font-size="206.59" font-family="Sinhala MN" letter-spacing="0" word-spacing="0" fill="#252525"/><circle stroke-miterlimit="10" cx="827.607" cy="393.601" r="14.75" fill="#4c4c4c" stroke="#3a3a3a" stroke-width="4.097"/></g><g fill="none"><path d="M560.817 166.78v-44.008" stroke="#4266d5" stroke-width="4.75396" stroke-linejoin="round"/><path d="M541.696 153.78V126.3" stroke="#c93d39" stroke-width="4.75396" stroke-linecap="round" stroke-linejoin="round"/><path d="M503.664 129.531v22.767" stroke="#3b972e" stroke-width="4.75396" stroke-linecap="square" stroke-linejoin="round"/><path d="M484.649 123.743V164.6" stroke="#945bb0" stroke-width="4.75396" stroke-linecap="round" stroke-linejoin="round"/><path d="M655.896 128.49v44.007" stroke="#4266d5" stroke-width="4.75396" stroke-linejoin="round"/><path d="M636.776 141.49v27.479" stroke="#c93d39" stroke-width="4.75396" stroke-linecap="round" stroke-linejoin="round"/><path d="M598.744 165.738v-22.766" stroke="#3b972e" stroke-width="4.75396" stroke-linecap="square" stroke-linejoin="round"/><path d="M579.728 171.526v-40.855" stroke="#945bb0" stroke-width="4.75396" stroke-linecap="round" stroke-linejoin="round"/><path d="M463.491 171.405c47.54 0 47.54-47.54 95.08-47.54M487.261 123.865c47.54 0 47.54 47.54 95.08 47.54M558.57 123.865c47.54 0 47.54 47.54 95.08 47.54M582.34 171.405c47.54 0 47.54-47.54 95.08-47.54" stroke="#252525" stroke-width="6.11596954" stroke-linecap="square"/></g><g clip-path="url(#a)" transform="matrix(1.96718 0 0 -1.96718 -364.19 1899.185)" fill="none"><path d="M640.607 678.451v-18.513" stroke="#4266d5" stroke-width="2" stroke-linejoin="round"/><path d="M632.563 672.982v-11.56" stroke="#c93d39" stroke-width="2" stroke-linecap="round" stroke-linejoin="round"/><path d="M616.563 662.781v9.578" stroke="#3b972e" stroke-width="2" stroke-linecap="square" stroke-linejoin="round"/><path d="M672.563 667.812v11.56" stroke="#c93d39" stroke-width="2" stroke-linecap="round" stroke-linejoin="round"/><path d="M656.563 678.013v-9.578" stroke="#3b972e" stroke-width="2" stroke-linecap="square" stroke-linejoin="round"/><path d="M648.563 680.448V663.26" stroke="#945bb0" stroke-width="2" stroke-linecap="round" stroke-linejoin="round"/><path d="M599.662 680.397c20 0 20-20 40-20M609.662 660.397c20 0 20 20 40 20" stroke="#000" stroke-width="2.573" stroke-linecap="square"/><path d="M639.662 660.397c20 0 20 20 40 20M649.662 680.397c20 0 20-20 40-20" stroke="#252525" stroke-width="2.573" stroke-linecap="square"/><path d="M600.606 662.343v18.514" stroke="#4266d5" stroke-width="2" stroke-linejoin="round"/><path d="M592.563 667.812v11.56" stroke="#c93d39" stroke-width="2" stroke-linecap="round" stroke-linejoin="round"/><path d="M576.562 678.013v-9.578" stroke="#3b972e" stroke-width="2" stroke-linecap="square" stroke-linejoin="round"/><path d="M632.563 672.982v-11.56" stroke="#c93d39" stroke-width="2" stroke-linecap="round" stroke-linejoin="round"/><path d="M616.563 662.78v9.579" stroke="#3b972e" stroke-width="2" stroke-linecap="square" stroke-linejoin="round"/><path d="M608.563 660.346v17.188" stroke="#945bb0" stroke-width="2" stroke-linecap="round" stroke-linejoin="round"/><path d="M559.662 660.397c20 0 20 20 40 20M569.662 680.397c20 0 20-20 40-20M599.662 680.397c20 0 20-20 40-20M609.662 660.397c20 0 20 20 40 20" stroke="#252525" stroke-width="2.573" stroke-linecap="square"/></g><g transform="translate(573.307 -138.497)"><circle cx="288.035" cy="592.902" r="14.75" fill="#d66661" stroke="#c93d39" stroke-width="4.097"/><circle cx="307.292" cy="560.261" r="14.75" fill="#6bab5b" stroke="#3b972e" stroke-width="4.097"/><circle cx="326.685" cy="592.766" r="14.75" fill="#aa7dc0" stroke="#945bb0" stroke-width="4.097"/><path d="M299.66 653.568v38.128c0 .957-.136 1.23-1.23 1.23h-21.182c-.82 0-.956-.137-.956-.957v-70.516c0-.683.136-.957.82-1.23 7.106-1.913 14.349-3.963 21.455-5.876.957-.273.957 0 .957.82.136 12.846.136 25.692.136 38.401z" fill="#252525"/><path d="M192.204 586.276l23.012-6.331v41.702q4.421-2.914 9.646-4.723 5.326-1.808 10.15-1.808 7.034 0 13.063 2.713 6.03 2.713 10.35 7.335 4.321 4.623 6.733 10.753 2.512 6.13 2.512 12.963 0 9.044-3.416 17.183-3.417 8.14-9.346 14.27-5.928 6.029-13.967 9.646-7.939 3.517-16.983 3.517-8.943 0-17.083-2.411-8.14-2.412-14.671-7.638v-97.171zm23.012 92.147q2.411 2.01 5.124 3.718 2.714 1.608 6.532 1.608 3.819 0 6.934-2.311 3.215-2.412 5.426-6.432 2.311-4.12 3.517-9.646 1.206-5.628 1.206-12.059 0-4.823-1.306-9.044-1.206-4.22-3.417-7.436-2.11-3.216-5.125-5.024-2.914-1.91-6.23-1.91-3.216 0-6.733 1.91-3.416 1.808-5.928 4.723v41.903z" style="line-height:125%;-inkscape-font-specification:'Sinhala MN, Bold';text-align:start" font-weight="700" font-size="205.8" font-family="Sinhala MN" letter-spacing="0" word-spacing="0" fill="#252525"/><path d="M350.24 692.926q-9.078 0-16.846-2.925-7.666-3.027-13.315-8.171-5.548-5.246-8.675-12.206-3.127-7.061-3.127-15.232 0-8.776 3.127-16.14 3.127-7.363 8.675-12.71 5.649-5.346 13.315-8.271 7.667-3.027 16.745-3.027 9.08 0 16.745 2.926 7.667 2.925 13.316 8.07 5.649 5.144 8.776 12.105 3.228 6.859 3.228 14.828 0 8.373-3.228 15.837-3.127 7.364-8.776 12.912-5.548 5.548-13.215 8.776-7.666 3.228-16.745 3.228zm2.623-9.28q3.127 0 5.75-2.018 2.723-2.118 4.64-5.548 1.917-3.43 3.026-7.868 1.11-4.54 1.11-9.482 0-7.263-1.11-13.719-1.11-6.456-3.53-11.197-2.421-4.842-6.355-7.666-3.834-2.825-9.483-2.825-2.723 0-5.245 2.018-2.522 2.017-4.438 5.447-1.917 3.329-3.127 7.767-1.11 4.438-1.11 9.28 0 7.364 1.311 13.921 1.412 6.456 3.934 11.399 2.623 4.842 6.255 7.666 3.732 2.825 8.372 2.825z" style="line-height:125%;-inkscape-font-specification:'Sinhala MN, Bold';text-align:start" font-weight="700" font-size="206.59" font-family="Sinhala MN" letter-spacing="0" word-spacing="0" fill="#252525"/></g><g transform="translate(525.909 36.836)"><path d="M347.059 250.005v38.128c0 .956-.137 1.23-1.23 1.23h-21.182c-.82 0-.957-.137-.957-.957V217.89c0-.684.137-.957.82-1.23 7.106-1.913 14.35-3.963 21.456-5.877.956-.273.956 0 .956.82.137 12.846.137 25.692.137 38.402z" fill="#252525"/><path d="M239.602 182.712l23.012-6.33v41.702q4.422-2.914 9.647-4.723 5.326-1.809 10.15-1.809 7.033 0 13.063 2.713 6.029 2.714 10.35 7.336t6.733 10.752q2.512 6.13 2.512 12.963 0 9.044-3.417 17.184-3.416 8.14-9.345 14.269-5.929 6.03-13.968 9.647-7.939 3.517-16.982 3.517-8.944 0-17.083-2.412-8.14-2.412-14.672-7.637v-97.172zm23.012 92.148q2.412 2.01 5.125 3.718 2.713 1.608 6.532 1.608 3.818 0 6.933-2.312 3.216-2.411 5.427-6.43 2.311-4.12 3.517-9.648 1.206-5.627 1.206-12.058 0-4.824-1.307-9.044-1.206-4.22-3.416-7.436-2.11-3.216-5.125-5.025-2.914-1.91-6.23-1.91-3.216 0-6.733 1.91-3.417 1.809-5.929 4.723v41.904z" style="line-height:125%;-inkscape-font-specification:'Sinhala MN, Bold';text-align:start" font-weight="700" font-size="205.8" font-family="Sinhala MN" letter-spacing="0" word-spacing="0" fill="#252525"/><path d="M397.639 289.363q-9.079 0-16.846-2.926-7.666-3.026-13.315-8.17-5.548-5.246-8.676-12.206-3.127-7.061-3.127-15.232 0-8.776 3.127-16.14 3.128-7.364 8.676-12.71 5.649-5.346 13.315-8.272 7.666-3.026 16.745-3.026t16.745 2.925q7.666 2.926 13.315 8.07 5.65 5.145 8.776 12.105 3.228 6.86 3.228 14.829 0 8.372-3.228 15.837-3.127 7.364-8.776 12.912-5.548 5.548-13.214 8.776-7.666 3.228-16.745 3.228zm2.623-9.28q3.127 0 5.75-2.018 2.723-2.119 4.64-5.548 1.916-3.43 3.026-7.868 1.11-4.54 1.11-9.483 0-7.263-1.11-13.718-1.11-6.456-3.53-11.197-2.422-4.842-6.356-7.667-3.833-2.824-9.482-2.824-2.724 0-5.245 2.017-2.522 2.018-4.439 5.447-1.916 3.33-3.127 7.768-1.11 4.438-1.11 9.28 0 7.364 1.312 13.92 1.412 6.457 3.934 11.4 2.623 4.841 6.254 7.666 3.732 2.824 8.373 2.824z" style="line-height:125%;-inkscape-font-specification:'Sinhala MN, Bold';text-align:start" font-weight="700" font-size="206.59" font-family="Sinhala MN" letter-spacing="0" word-spacing="0" fill="#252525"/><circle r="14.75" cy="189.339" cx="335.433" fill="#6b85dd" stroke="#4266d5" stroke-width="4.097"/></g><g transform="matrix(1.96718 0 0 -1.96718 -364.19 1670.87)" clip-path="url(#a)" fill="none"><path d="M640.607 678.451v-18.513" stroke="#4266d5" stroke-width="2" stroke-linejoin="round"/><path d="M632.563 672.982v-11.56" stroke="#c93d39" stroke-width="2" stroke-linecap="round" stroke-linejoin="round"/><path d="M616.563 662.781v9.578" stroke="#3b972e" stroke-width="2" stroke-linecap="square" stroke-linejoin="round"/><path d="M672.563 667.812v11.56" stroke="#c93d39" stroke-width="2" stroke-linecap="round" stroke-linejoin="round"/><path d="M656.563 678.013v-9.578" stroke="#3b972e" stroke-width="2" stroke-linecap="square" stroke-linejoin="round"/><path d="M648.563 680.448V663.26" stroke="#945bb0" stroke-width="2" stroke-linecap="round" stroke-linejoin="round"/><path d="M599.662 680.397c20 0 20-20 40-20M609.662 660.397c20 0 20 20 40 20" stroke="#000" stroke-width="2.573" stroke-linecap="square"/><path d="M639.662 660.397c20 0 20 20 40 20M649.662 680.397c20 0 20-20 40-20" stroke="#252525" stroke-width="2.573" stroke-linecap="square"/><path d="M600.606 662.343v18.514" stroke="#4266d5" stroke-width="2" stroke-linejoin="round"/><path d="M592.563 667.812v11.56" stroke="#c93d39" stroke-width="2" stroke-linecap="round" stroke-linejoin="round"/><path d="M576.562 678.013v-9.578" stroke="#3b972e" stroke-width="2" stroke-linecap="square" stroke-linejoin="round"/><path d="M632.563 672.982v-11.56" stroke="#c93d39" stroke-width="2" stroke-linecap="round" stroke-linejoin="round"/><path d="M616.563 662.78v9.579" stroke="#3b972e" stroke-width="2" stroke-linecap="square" stroke-linejoin="round"/><path d="M608.563 660.346v17.188" stroke="#945bb0" stroke-width="2" stroke-linecap="round" stroke-linejoin="round"/><path d="M559.662 660.397c20 0 20 20 40 20M569.662 680.397c20 0 20-20 40-20M599.662 680.397c20 0 20-20 40-20M609.662 660.397c20 0 20 20 40 20" stroke="#252525" stroke-width="2.573" stroke-linecap="square"/></g><g><g transform="translate(33.736 -376.802)"><path d="M839.232 454.267v38.128c0 .956-.137 1.23-1.23 1.23H816.82c-.82 0-.957-.137-.957-.957v-70.516c0-.683.137-.957.82-1.23 7.106-1.913 14.35-3.963 21.456-5.876.956-.274.956 0 .956.82.137 12.846.137 25.692.137 38.401z" fill="#252525"/><path d="M731.775 386.974l23.012-6.33v41.702q4.422-2.914 9.647-4.723 5.326-1.808 10.15-1.808 7.034 0 13.063 2.713 6.03 2.713 10.35 7.335 4.321 4.623 6.733 10.753 2.512 6.13 2.512 12.963 0 9.043-3.417 17.183-3.416 8.14-9.345 14.27-5.929 6.029-13.968 9.646-7.938 3.517-16.982 3.517-8.944 0-17.083-2.411-8.14-2.412-14.672-7.638v-97.172zm23.012 92.148q2.412 2.01 5.125 3.718 2.713 1.608 6.532 1.608 3.818 0 6.933-2.311 3.216-2.412 5.427-6.432 2.311-4.12 3.517-9.646 1.206-5.628 1.206-12.059 0-4.823-1.307-9.044-1.205-4.22-3.416-7.436-2.11-3.216-5.125-5.024-2.914-1.91-6.23-1.91-3.216 0-6.733 1.91-3.417 1.808-5.929 4.722v41.904z" style="line-height:125%;-inkscape-font-specification:'Sinhala MN, Bold';text-align:start" font-weight="700" font-size="205.8" font-family="Sinhala MN" letter-spacing="0" word-spacing="0" fill="#252525"/><path d="M889.812 493.625q-9.079 0-16.846-2.925-7.666-3.027-13.315-8.171-5.548-5.246-8.675-12.206-3.128-7.061-3.128-15.232 0-8.776 3.128-16.14 3.127-7.363 8.675-12.71 5.649-5.346 13.315-8.271 7.666-3.027 16.745-3.027t16.745 2.926q7.667 2.925 13.315 8.07 5.65 5.144 8.777 12.104 3.227 6.86 3.227 14.829 0 8.372-3.227 15.837-3.128 7.364-8.777 12.912-5.548 5.548-13.214 8.776-7.666 3.228-16.745 3.228zm2.623-9.28q3.127 0 5.75-2.018 2.723-2.118 4.64-5.548 1.916-3.43 3.026-7.868 1.11-4.54 1.11-9.482 0-7.263-1.11-13.72-1.11-6.455-3.53-11.196-2.422-4.842-6.356-7.667-3.833-2.824-9.482-2.824-2.723 0-5.245 2.017-2.522 2.018-4.439 5.448-1.916 3.328-3.127 7.767-1.11 4.438-1.11 9.28 0 7.364 1.312 13.92 1.412 6.457 3.934 11.4 2.623 4.842 6.254 7.666 3.732 2.825 8.373 2.825z" style="line-height:125%;-inkscape-font-specification:'Sinhala MN, Bold';text-align:start" font-weight="700" font-size="206.59" font-family="Sinhala MN" letter-spacing="0" word-spacing="0" fill="#252525"/><circle stroke-miterlimit="10" cx="827.607" cy="393.601" r="14.75" fill="#4c4c4c" stroke="#3a3a3a" stroke-width="4.097"/></g><g clip-path="url(#a)" transform="matrix(1.96718 0 0 -1.96718 -364.19 1462.817)" fill="none"><path d="M640.607 678.451v-18.513" stroke="#4266d5" stroke-width="2" stroke-linejoin="round"/><path d="M632.563 672.982v-11.56" stroke="#c93d39" stroke-width="2" stroke-linecap="round" stroke-linejoin="round"/><path d="M616.563 662.781v9.578" stroke="#3b972e" stroke-width="2" stroke-linecap="square" stroke-linejoin="round"/><path d="M672.563 667.812v11.56" stroke="#c93d39" stroke-width="2" stroke-linecap="round" stroke-linejoin="round"/><path d="M656.563 678.013v-9.578" stroke="#3b972e" stroke-width="2" stroke-linecap="square" stroke-linejoin="round"/><path d="M648.563 680.448V663.26" stroke="#945bb0" stroke-width="2" stroke-linecap="round" stroke-linejoin="round"/><path d="M599.662 680.397c20 0 20-20 40-20M609.662 660.397c20 0 20 20 40 20" stroke="#000" stroke-width="2.573" stroke-linecap="square"/><path d="M639.662 660.397c20 0 20 20 40 20M649.662 680.397c20 0 20-20 40-20" stroke="#252525" stroke-width="2.573" stroke-linecap="square"/><path d="M600.606 662.343v18.514" stroke="#4266d5" stroke-width="2" stroke-linejoin="round"/><path d="M592.563 667.812v11.56" stroke="#c93d39" stroke-width="2" stroke-linecap="round" stroke-linejoin="round"/><path d="M576.562 678.013v-9.578" stroke="#3b972e" stroke-width="2" stroke-linecap="square" stroke-linejoin="round"/><path d="M632.563 672.982v-11.56" stroke="#c93d39" stroke-width="2" stroke-linecap="round" stroke-linejoin="round"/><path d="M616.563 662.78v9.579" stroke="#3b972e" stroke-width="2" stroke-linecap="square" stroke-linejoin="round"/><path d="M608.563 660.346v17.188" stroke="#945bb0" stroke-width="2" stroke-linecap="round" stroke-linejoin="round"/><path d="M559.662 660.397c20 0 20 20 40 20M569.662 680.397c20 0 20-20 40-20M599.662 680.397c20 0 20-20 40-20M609.662 660.397c20 0 20 20 40 20" stroke="#252525" stroke-width="2.573" stroke-linecap="square"/></g></g><text style="line-height:125%" x="-215.232" y="956.59" font-weight="400" font-size="40" font-family="sans-serif" letter-spacing="0" word-spacing="0" transform="translate(235.93 -156.776)"><tspan x="-215.232" y="956.59">Bio.jl:</tspan></text><g><g transform="translate(-98.041 -716.424)"><circle r="14.75" cy="1531.602" cx="525.419" stroke-miterlimit="10" fill="#4c4c4c" stroke="#3a3a3a" stroke-width="4.097"/><circle cx="567.681" cy="1448.155" r="14.75" fill="#6b85dd" stroke="#4266d5" stroke-width="4.097"/><path d="M555.8 1519.719v-42.611c0-.683.136-1.093.955-1.366 7.102-1.912 14.067-3.824 21.17-5.872 1.228-.273 1.228-.273 1.228.956v69.379c0 4.916.273 9.97-.273 14.886-.546 6.01-1.912 11.745-5.736 16.662-3.414 4.234-7.921 6.555-13.247 7.511a65.37 65.37 0 0 1-17.891.82c-4.098-.41-8.058-1.366-11.473-3.96-2.594-1.913-3.96-4.371-3.414-7.785.683-3.415 3.005-5.327 6.146-6.42 2.048-.682 4.097-.819 6.282-.41 1.64.274 3.005.957 4.234 2.05 1.23 1.092 2.322 2.458 3.414 3.687.82 1.093 1.64 2.049 2.732 2.732 1.912 1.229 3.55.819 4.643-1.093.683-1.366.956-2.732 1.093-4.234.273-2.048.273-4.234.273-6.282-.137-12.838-.137-25.676-.137-38.65zM611.658 1491.585v55.585c0 .956-.273 1.229-1.229 1.229h-21.032c-.82 0-.956-.137-.956-.956v-105.298c0-.682.137-1.092.956-1.229 7.102-1.912 14.067-3.824 21.169-5.872.956-.274 1.229-.137 1.229.819-.137 18.574-.137 37.148-.137 55.722z" fill="#252525"/></g><g clip-path="url(#b)" transform="matrix(1.96718 0 0 -1.96718 -932.498 2177.175)" fill="none"><path d="M640.607 678.451v-18.513" stroke="#4266d5" stroke-width="2" stroke-linejoin="round"/><path d="M632.563 672.982v-11.56" stroke="#c93d39" stroke-width="2" stroke-linecap="round" stroke-linejoin="round"/><path d="M616.563 662.781v9.578" stroke="#3b972e" stroke-width="2" stroke-linecap="square" stroke-linejoin="round"/><path d="M672.563 667.812v11.56" stroke="#c93d39" stroke-width="2" stroke-linecap="round" stroke-linejoin="round"/><path d="M656.563 678.013v-9.578" stroke="#3b972e" stroke-width="2" stroke-linecap="square" stroke-linejoin="round"/><path d="M648.563 680.448V663.26" stroke="#945bb0" stroke-width="2" stroke-linecap="round" stroke-linejoin="round"/><path d="M599.662 680.397c20 0 20-20 40-20M609.662 660.397c20 0 20 20 40 20" stroke="#000" stroke-width="2.573" stroke-linecap="square"/><path d="M639.662 660.397c20 0 20 20 40 20M649.662 680.397c20 0 20-20 40-20" stroke="#252525" stroke-width="2.573" stroke-linecap="square"/><path d="M600.606 662.343v18.514" stroke="#4266d5" stroke-width="2" stroke-linejoin="round"/><path d="M592.563 667.812v11.56" stroke="#c93d39" stroke-width="2" stroke-linecap="round" stroke-linejoin="round"/><path d="M576.562 678.013v-9.578" stroke="#3b972e" stroke-width="2" stroke-linecap="square" stroke-linejoin="round"/><path d="M632.563 672.982v-11.56" stroke="#c93d39" stroke-width="2" stroke-linecap="round" stroke-linejoin="round"/><path d="M616.563 662.78v9.579" stroke="#3b972e" stroke-width="2" stroke-linecap="square" stroke-linejoin="round"/><path d="M608.563 660.346v17.188" stroke="#945bb0" stroke-width="2" stroke-linecap="round" stroke-linejoin="round"/><path d="M559.662 660.397c20 0 20 20 40 20M569.662 680.397c20 0 20-20 40-20M599.662 680.397c20 0 20-20 40-20M609.662 660.397c20 0 20 20 40 20" stroke="#252525" stroke-width="2.573" stroke-linecap="square"/></g><g transform="translate(4.998 139.493)"><circle cx="288.035" cy="592.902" r="14.75" fill="#d66661" stroke="#c93d39" stroke-width="4.097"/><circle cx="307.292" cy="560.261" r="14.75" fill="#6bab5b" stroke="#3b972e" stroke-width="4.097"/><circle cx="326.685" cy="592.766" r="14.75" fill="#aa7dc0" stroke="#945bb0" stroke-width="4.097"/><path d="M299.66 653.568v38.128c0 .957-.136 1.23-1.23 1.23h-21.182c-.82 0-.956-.137-.956-.957v-70.516c0-.683.136-.957.82-1.23 7.106-1.913 14.349-3.963 21.455-5.876.957-.273.957 0 .957.82.136 12.846.136 25.692.136 38.401z" fill="#252525"/><path d="M192.204 586.276l23.012-6.331v41.702q4.421-2.914 9.646-4.723 5.326-1.808 10.15-1.808 7.034 0 13.063 2.713 6.03 2.713 10.35 7.335 4.321 4.623 6.733 10.753 2.512 6.13 2.512 12.963 0 9.044-3.416 17.183-3.417 8.14-9.346 14.27-5.928 6.029-13.967 9.646-7.939 3.517-16.983 3.517-8.943 0-17.083-2.411-8.14-2.412-14.671-7.638v-97.171zm23.012 92.147q2.411 2.01 5.124 3.718 2.714 1.608 6.532 1.608 3.819 0 6.934-2.311 3.215-2.412 5.426-6.432 2.311-4.12 3.517-9.646 1.206-5.628 1.206-12.059 0-4.823-1.306-9.044-1.206-4.22-3.417-7.436-2.11-3.216-5.125-5.024-2.914-1.91-6.23-1.91-3.216 0-6.733 1.91-3.416 1.808-5.928 4.723v41.903z" style="line-height:125%;-inkscape-font-specification:'Sinhala MN, Bold';text-align:start" font-weight="700" font-size="205.8" font-family="Sinhala MN" letter-spacing="0" word-spacing="0" fill="#252525"/><path d="M350.24 692.926q-9.078 0-16.846-2.925-7.666-3.027-13.315-8.171-5.548-5.246-8.675-12.206-3.127-7.061-3.127-15.232 0-8.776 3.127-16.14 3.127-7.363 8.675-12.71 5.649-5.346 13.315-8.271 7.667-3.027 16.745-3.027 9.08 0 16.745 2.926 7.667 2.925 13.316 8.07 5.649 5.144 8.776 12.105 3.228 6.859 3.228 14.828 0 8.373-3.228 15.837-3.127 7.364-8.776 12.912-5.548 5.548-13.215 8.776-7.666 3.228-16.745 3.228zm2.623-9.28q3.127 0 5.75-2.018 2.723-2.118 4.64-5.548 1.917-3.43 3.026-7.868 1.11-4.54 1.11-9.482 0-7.263-1.11-13.719-1.11-6.456-3.53-11.197-2.421-4.842-6.355-7.666-3.834-2.825-9.483-2.825-2.723 0-5.245 2.018-2.522 2.017-4.438 5.447-1.917 3.329-3.127 7.767-1.11 4.438-1.11 9.28 0 7.364 1.311 13.921 1.412 6.456 3.934 11.399 2.623 4.842 6.255 7.666 3.732 2.825 8.372 2.825z" style="line-height:125%;-inkscape-font-specification:'Sinhala MN, Bold';text-align:start" font-weight="700" font-size="206.59" font-family="Sinhala MN" letter-spacing="0" word-spacing="0" fill="#252525"/></g></g><g transform="translate(235.93 -156.776)"><circle r="14.75" cy="977.902" cx="621.805" stroke-miterlimit="10" fill="#4c4c4c" stroke="#3a3a3a" stroke-width="4.097"/><circle cx="664.067" cy="894.455" r="14.75" fill="#6b85dd" stroke="#4266d5" stroke-width="4.097"/><path d="M652.185 966.019v-42.611c0-.683.136-1.093.956-1.366 7.101-1.912 14.067-3.824 21.168-5.872 1.23-.274 1.23-.274 1.23.956v69.379c0 4.916.273 9.97-.274 14.886-.546 6.01-1.912 11.745-5.736 16.662-3.414 4.234-7.92 6.555-13.247 7.511a65.37 65.37 0 0 1-17.891.82c-4.097-.41-8.058-1.366-11.472-3.96-2.595-1.913-3.96-4.371-3.415-7.785.683-3.415 3.005-5.327 6.146-6.42 2.049-.682 4.097-.819 6.282-.41 1.64.274 3.005.957 4.234 2.05 1.23 1.092 2.322 2.458 3.415 3.687.819 1.093 1.638 2.049 2.731 2.732 1.912 1.229 3.55.819 4.643-1.093.683-1.366.956-2.732 1.093-4.234.273-2.048.273-4.234.273-6.282-.136-12.838-.136-25.676-.136-38.65zM708.044 937.885v55.585c0 .956-.273 1.229-1.23 1.229h-21.032c-.82 0-.956-.137-.956-.956V888.445c0-.683.137-1.092.956-1.229 7.102-1.912 14.067-3.824 21.17-5.873.955-.273 1.228-.136 1.228.82-.136 18.574-.136 37.148-.136 55.722z" fill="#252525"/><circle cx="487.46" cy="895.119" r="14.75" fill="#d66661" stroke="#c93d39" stroke-width="4.097"/><circle cx="506.717" cy="862.478" r="14.75" fill="#6bab5b" stroke="#3b972e" stroke-width="4.097"/><circle cx="526.11" cy="894.982" r="14.75" fill="#aa7dc0" stroke="#945bb0" stroke-width="4.097"/><path d="M499.085 955.785v38.128c0 .956-.136 1.23-1.23 1.23h-21.182c-.82 0-.957-.137-.957-.957V923.67c0-.683.137-.957.82-1.23 7.107-1.913 14.35-3.963 21.456-5.876.957-.274.957 0 .957.82.136 12.845.136 25.691.136 38.4z" fill="#252525"/><path d="M391.629 888.492l23.011-6.33v41.702q4.422-2.914 9.647-4.723 5.326-1.809 10.15-1.809 7.034 0 13.063 2.713 6.03 2.714 10.35 7.336 4.321 4.623 6.733 10.752 2.512 6.13 2.512 12.963 0 9.044-3.416 17.184-3.417 8.14-9.346 14.27-5.929 6.028-13.968 9.646-7.938 3.517-16.982 3.517-8.944 0-17.083-2.412-8.14-2.411-14.671-7.637v-97.172zm23.011 92.148q2.412 2.01 5.125 3.718 2.714 1.608 6.532 1.608 3.819 0 6.934-2.312 3.215-2.411 5.426-6.43 2.311-4.12 3.517-9.648 1.206-5.627 1.206-12.058 0-4.824-1.306-9.044-1.206-4.22-3.417-7.436-2.11-3.216-5.125-5.025-2.914-1.909-6.23-1.909-3.216 0-6.733 1.91-3.416 1.808-5.929 4.722v41.904z" style="line-height:125%;-inkscape-font-specification:'Sinhala MN, Bold';text-align:start" font-weight="700" font-size="205.8" font-family="Sinhala MN" letter-spacing="0" word-spacing="0" fill="#252525"/><path d="M549.665 995.143q-9.078 0-16.846-2.926-7.666-3.026-13.315-8.17-5.548-5.246-8.675-12.206-3.127-7.061-3.127-15.232 0-8.776 3.127-16.14 3.127-7.364 8.675-12.71 5.649-5.346 13.315-8.272 7.667-3.026 16.745-3.026 9.079 0 16.745 2.926 7.667 2.925 13.316 8.07 5.649 5.144 8.776 12.104 3.228 6.86 3.228 14.829 0 8.372-3.228 15.837-3.127 7.364-8.776 12.912-5.548 5.548-13.215 8.776-7.666 3.228-16.745 3.228zm2.623-9.28q3.127 0 5.75-2.018 2.723-2.118 4.64-5.548 1.916-3.43 3.026-7.868 1.11-4.54 1.11-9.482 0-7.263-1.11-13.72-1.11-6.455-3.53-11.196-2.421-4.842-6.356-7.667-3.833-2.824-9.482-2.824-2.723 0-5.245 2.017-2.522 2.018-4.439 5.447-1.916 3.33-3.127 7.768-1.11 4.438-1.11 9.28 0 7.364 1.312 13.92 1.412 6.457 3.934 11.4 2.623 4.841 6.254 7.666 3.733 2.824 8.373 2.824z" style="line-height:125%;-inkscape-font-specification:'Sinhala MN, Bold';text-align:start" font-weight="700" font-size="206.59" font-family="Sinhala MN" letter-spacing="0" word-spacing="0" fill="#252525"/></g></svg>