<svg xmlns="http://www.w3.org/2000/svg" width="48.951" height="48.951" viewBox="0 0 45.892 45.892"><defs><clipPath id="a"><ellipse cy="1029.047" cx="318.194" rx="14.698" ry="11.781" fill="#6b85dd" stroke="#4266d5" stroke-width="3.655"/></clipPath></defs><g transform="translate(-100 -427.9)"><circle cx="122.946" cy="450.845" r="20.148" fill="#6bab5b" stroke="#3b972e" stroke-width="5.597"/><g transform="matrix(1.3708 0 0 1.71013 -313.232 -1308.959)" clip-path="url(#a)" fill="none" stroke="#252525"><path d="M318 1015.4v5h-5v3h-5v3h-2v12"/><path d="M308 1026.4h2v14M318 1020.4h7v3h-4v11M325 1023.4h3v5h-3v4h-2v6"/><path d="M325 1032.4h2v6M328 1028.4h3v11M313 1023.4h4v5h-2v4M317 1028.4h2v8M317 1040.4v-8h-4v6"/></g></g></svg>