<svg xmlns="http://www.w3.org/2000/svg" width="48.92" height="48.92" viewBox="0 0 45.862882 45.862881"><defs><clipPath id="a"/></defs><circle r="20.135" cy="428.69" cx="1021.783" fill="#6bab5b" stroke="#3b972e" stroke-width="5.593" transform="translate(-998.852 -405.758)"/><g transform="scale(.3557) rotate(45 950.624 -889.015)" clip-path="url(#a)"><path d="M992.007 429.323s4.775 25.02 23.876 20.016c19.1-5.004 23.876-15.012 23.876-15.012M1030.722 394.88s0 19.493 0 0c0-19.491 45.86-19.491 45.86-19.491M965 387.362s15-15 25-5 10 15 10 15M963.393 418.434s10 20-10 20-25-20-25-20" fill="none" stroke="#252525" stroke-width="3" stroke-linecap="round"/><path d="M1029.839 401.799l-16.73 14.835 9.659-2.588 6.47 24.148 19.319-5.176-6.47-24.148 9.658-2.588zM992.057 431.238l21.907-4.483-9.66-2.588 6.471-24.149-19.318-5.176-6.471 24.148-9.66-2.588z" fill="#252525" fill-rule="evenodd"/><path d="M964.937 385.665l-20.196 9.6 9.998.199-.498 24.995 19.996.398.498-24.995 9.998.2z" fill="#252525" fill-rule="evenodd"/></g></svg>