<svg id="Bio_Seq_Red" xmlns:rdf="http://www.w3.org/1999/02/22-rdf-syntax-ns#" xmlns="http://www.w3.org/2000/svg" height="12.944mm" width="12.944mm" version="1.1" xmlns:cc="http://creativecommons.org/ns#" xmlns:dc="http://purl.org/dc/elements/1.1/" viewBox="0 0 45.863 45.863">
 <defs>
  <clipPath id="clipPath5354-3" clipPathUnits="userSpaceOnUse">
   <circle r="20.135" stroke="#945bb0" cy="849.04" cx="748.65" stroke-width="5.593" fill="#aa7dc0"/>
  </clipPath>
 </defs>
 <g transform="translate(-297.07 -435.14)">
  <g id="Red_Dot_Helix" transform="translate(-428.65 -390.96)">
   <circle r="20.135" stroke="#c93d39" cy="849.04" cx="748.65" stroke-width="5.593" fill="#d66661"/>
   <g clip-path="url(#clipPath5354-3)" fill="none">
    <g stroke-linejoin="round" stroke-width=".94095">
     <path d="m755.99 852.31v-8.7104" stroke="#252525"/>
     <path d="m752.21 849.74v-5.4389" stroke="#c93d39" stroke-linecap="round"/>
     <path d="m744.68 844.94v4.5062" stroke="#3b972e" stroke-linecap="square"/>
    </g>
    <g stroke="#252525">
     <g stroke-linejoin="round" stroke-width=".94095">
      <path d="m771.03 847.31v5.4389" stroke-linecap="round"/>
      <path d="m763.5 852.11v-4.5062" stroke-linecap="square"/>
      <path d="m759.73 853.25v-8.0865" stroke-linecap="round"/>
     </g>
     <g stroke-linecap="square" stroke-width="1.2105">
      <path d="m736.73 853.23c9.4095 0 9.4095-9.4095 18.819-9.4095"/>
      <path d="m741.43 843.82c9.4095 0 9.4095 9.4095 18.819 9.4095"/>
      <path d="m755.55 843.82c9.4095 0 9.4095 9.4095 18.819 9.4095"/>
      <path d="m760.25 853.23c9.4095 0 9.4095-9.4095 18.819-9.4095"/>
     </g>
     <g stroke-linejoin="round" stroke-width=".94095">
      <path d="m737.17 844.73v8.7104"/>
      <path d="m733.39 847.31v5.4389" stroke-linecap="round"/>
      <path d="m725.86 852.11v-4.5062" stroke-linecap="square"/>
      <path d="m752.21 849.74v-5.4389" stroke-linecap="round"/>
      <path d="m744.68 844.94v4.5062" stroke-linecap="square"/>
      <path d="m740.92 843.79v8.0865" stroke-linecap="round"/>
     </g>
     <g stroke-linecap="square" stroke-width="1.2105">
      <path d="m717.91 843.82c9.4095 0 9.4095 9.4095 18.819 9.4095"/>
      <path d="m722.61 853.23c9.4095 0 9.4095-9.4095 18.819-9.4095"/>
      <path d="m736.73 853.23c9.4095 0 9.4095-9.4095 18.819-9.4095"/>
      <path d="m741.43 843.82c9.4095 0 9.4095 9.4095 18.819 9.4095"/>
     </g>
    </g>
   </g>
  </g>
 </g>
</svg>
