<svg xmlns="http://www.w3.org/2000/svg" width="48.921" height="48.921" viewBox="0 0 45.863 45.863"><defs><clipPath id="a"><circle cx="748.646" cy="849.039" r="20.135" fill="#aa7dc0" stroke="#945bb0" stroke-width="5.593"/></clipPath></defs><g transform="translate(-725.714 -826.108)"><circle cx="748.646" cy="849.039" r="20.135" fill="#6bab5b" stroke="#3b972e" stroke-width="5.593"/><g clip-path="url(#a)" fill="none"><path d="M755.991 852.312v-8.71" stroke="#252525" stroke-width=".941" stroke-linejoin="round"/><path d="M752.207 849.74v-5.44" stroke="#c93d39" stroke-width=".941" stroke-linecap="round" stroke-linejoin="round"/><path d="M744.68 844.94v4.506" stroke="#3b972e" stroke-width=".941" stroke-linecap="square" stroke-linejoin="round"/><path d="M771.026 847.307v5.439" stroke="#252525" stroke-width=".941" stroke-linecap="round" stroke-linejoin="round"/><path d="M763.498 852.106V847.6" stroke="#252525" stroke-width=".941" stroke-linecap="square" stroke-linejoin="round"/><path d="M759.735 853.252v-8.087" stroke="#252525" stroke-width=".941" stroke-linecap="round" stroke-linejoin="round"/><path d="M736.728 853.228c9.41 0 9.41-9.41 18.819-9.41M741.433 843.818c9.41 0 9.41 9.41 18.819 9.41" stroke="#000" stroke-width="1.211" stroke-linecap="square"/><path d="M755.547 843.818c9.41 0 9.41 9.41 18.819 9.41M760.252 853.228c9.41 0 9.41-9.41 18.819-9.41" stroke="#252525" stroke-width="1.211" stroke-linecap="square"/><path d="M737.172 844.734v8.71" stroke="#252525" stroke-width=".941" stroke-linejoin="round"/><path d="M733.388 847.307v5.439" stroke="#252525" stroke-width=".941" stroke-linecap="round" stroke-linejoin="round"/><path d="M725.86 852.106V847.6" stroke="#252525" stroke-width=".941" stroke-linecap="square" stroke-linejoin="round"/><path d="M752.207 849.74v-5.44" stroke="#252525" stroke-width=".941" stroke-linecap="round" stroke-linejoin="round"/><path d="M744.68 844.94v4.506" stroke="#252525" stroke-width=".941" stroke-linecap="square" stroke-linejoin="round"/><path d="M740.915 843.794v8.087" stroke="#252525" stroke-width=".941" stroke-linecap="round" stroke-linejoin="round"/><path d="M717.909 843.818c9.41 0 9.41 9.41 18.819 9.41M722.613 853.228c9.41 0 9.41-9.41 18.82-9.41M736.728 853.228c9.41 0 9.41-9.41 18.819-9.41M741.432 843.818c9.41 0 9.41 9.41 18.82 9.41" stroke="#252525" stroke-width="1.211" stroke-linecap="square"/></g></g></svg>