<svg xmlns="http://www.w3.org/2000/svg" width="349.042" height="210.807" viewBox="0 0 327.2267 197.63194"><defs><clipPath id="a"><path fill-opacity=".345" stroke-width="2.573" stroke-linecap="square" stroke-linejoin="round" d="M568.849 658.072h111.776v25H568.849z"/></clipPath></defs><g transform="translate(-284.568 -1399.38)"><circle r="14.75" cy="1531.602" cx="525.419" stroke-miterlimit="10" fill="#4c4c4c" stroke="#3a3a3a" stroke-width="4.097"/><circle cx="567.681" cy="1448.155" r="14.75" fill="#6b85dd" stroke="#4266d5" stroke-width="4.097"/><path d="M555.8 1519.719v-42.611c0-.683.136-1.093.955-1.366 7.102-1.912 14.067-3.824 21.17-5.872 1.228-.273 1.228-.273 1.228.956v69.379c0 4.916.273 9.97-.273 14.886-.546 6.01-1.912 11.745-5.736 16.662-3.414 4.234-7.921 6.555-13.247 7.511a65.37 65.37 0 0 1-17.891.82c-4.098-.41-8.058-1.366-11.473-3.96-2.594-1.913-3.96-4.371-3.414-7.785.683-3.415 3.005-5.327 6.146-6.42 2.048-.682 4.097-.819 6.282-.41 1.64.274 3.005.957 4.234 2.05 1.23 1.092 2.322 2.458 3.414 3.687.82 1.093 1.64 2.049 2.732 2.732 1.912 1.229 3.55.819 4.643-1.093.683-1.366.956-2.732 1.093-4.234.273-2.048.273-4.234.273-6.282-.137-12.838-.137-25.676-.137-38.65zM611.658 1491.585v55.585c0 .956-.273 1.229-1.229 1.229h-21.032c-.82 0-.956-.137-.956-.956v-105.298c0-.682.137-1.092.956-1.229 7.102-1.912 14.067-3.824 21.169-5.872.956-.274 1.229-.137 1.229.819-.137 18.574-.137 37.148-.137 55.722z" fill="#252525"/></g><g clip-path="url(#a)" transform="matrix(1.96718 0 0 -1.96718 -1119.025 1494.219)" fill="none"><path d="M640.607 678.451v-18.513" stroke="#4266d5" stroke-width="2" stroke-linejoin="round"/><path d="M632.563 672.982v-11.56" stroke="#c93d39" stroke-width="2" stroke-linecap="round" stroke-linejoin="round"/><path d="M616.563 662.781v9.578" stroke="#3b972e" stroke-width="2" stroke-linecap="square" stroke-linejoin="round"/><path d="M672.563 667.812v11.56" stroke="#c93d39" stroke-width="2" stroke-linecap="round" stroke-linejoin="round"/><path d="M656.563 678.013v-9.578" stroke="#3b972e" stroke-width="2" stroke-linecap="square" stroke-linejoin="round"/><path d="M648.563 680.448V663.26" stroke="#945bb0" stroke-width="2" stroke-linecap="round" stroke-linejoin="round"/><path d="M599.662 680.397c20 0 20-20 40-20M609.662 660.397c20 0 20 20 40 20" stroke="#000" stroke-width="2.573" stroke-linecap="square"/><path d="M639.662 660.397c20 0 20 20 40 20M649.662 680.397c20 0 20-20 40-20" stroke="#252525" stroke-width="2.573" stroke-linecap="square"/><path d="M600.606 662.343v18.514" stroke="#4266d5" stroke-width="2" stroke-linejoin="round"/><path d="M592.563 667.812v11.56" stroke="#c93d39" stroke-width="2" stroke-linecap="round" stroke-linejoin="round"/><path d="M576.562 678.013v-9.578" stroke="#3b972e" stroke-width="2" stroke-linecap="square" stroke-linejoin="round"/><path d="M632.563 672.982v-11.56" stroke="#c93d39" stroke-width="2" stroke-linecap="round" stroke-linejoin="round"/><path d="M616.563 662.78v9.579" stroke="#3b972e" stroke-width="2" stroke-linecap="square" stroke-linejoin="round"/><path d="M608.563 660.346v17.188" stroke="#945bb0" stroke-width="2" stroke-linecap="round" stroke-linejoin="round"/><path d="M559.662 660.397c20 0 20 20 40 20M569.662 680.397c20 0 20-20 40-20M599.662 680.397c20 0 20-20 40-20M609.662 660.397c20 0 20 20 40 20" stroke="#252525" stroke-width="2.573" stroke-linecap="square"/></g><g transform="translate(-181.529 -543.463)"><circle cx="288.035" cy="592.902" r="14.75" fill="#d66661" stroke="#c93d39" stroke-width="4.097"/><circle cx="307.292" cy="560.261" r="14.75" fill="#6bab5b" stroke="#3b972e" stroke-width="4.097"/><circle cx="326.685" cy="592.766" r="14.75" fill="#aa7dc0" stroke="#945bb0" stroke-width="4.097"/><path d="M299.66 653.568v38.128c0 .957-.136 1.23-1.23 1.23h-21.182c-.82 0-.956-.137-.956-.957v-70.516c0-.683.136-.957.82-1.23 7.106-1.913 14.349-3.963 21.455-5.876.957-.273.957 0 .957.82.136 12.846.136 25.692.136 38.401z" fill="#252525"/><path d="M192.204 586.276l23.012-6.331v41.702q4.421-2.914 9.646-4.723 5.326-1.808 10.15-1.808 7.034 0 13.063 2.713 6.03 2.713 10.35 7.335 4.321 4.623 6.733 10.753 2.512 6.13 2.512 12.963 0 9.044-3.416 17.183-3.417 8.14-9.346 14.27-5.928 6.029-13.967 9.646-7.939 3.517-16.983 3.517-8.943 0-17.083-2.411-8.14-2.412-14.671-7.638v-97.171zm23.012 92.147q2.411 2.01 5.124 3.718 2.714 1.608 6.532 1.608 3.819 0 6.934-2.311 3.215-2.412 5.426-6.432 2.311-4.12 3.517-9.646 1.206-5.628 1.206-12.059 0-4.823-1.306-9.044-1.206-4.22-3.417-7.436-2.11-3.216-5.125-5.024-2.914-1.91-6.23-1.91-3.216 0-6.733 1.91-3.416 1.808-5.928 4.723v41.903z" style="line-height:125%;-inkscape-font-specification:'Sinhala MN, Bold';text-align:start" font-weight="700" font-size="205.8" font-family="Sinhala MN" letter-spacing="0" word-spacing="0" fill="#252525"/><path d="M350.24 692.926q-9.078 0-16.846-2.925-7.666-3.027-13.315-8.171-5.548-5.246-8.675-12.206-3.127-7.061-3.127-15.232 0-8.776 3.127-16.14 3.127-7.363 8.675-12.71 5.649-5.346 13.315-8.271 7.667-3.027 16.745-3.027 9.08 0 16.745 2.926 7.667 2.925 13.316 8.07 5.649 5.144 8.776 12.105 3.228 6.859 3.228 14.828 0 8.373-3.228 15.837-3.127 7.364-8.776 12.912-5.548 5.548-13.215 8.776-7.666 3.228-16.745 3.228zm2.623-9.28q3.127 0 5.75-2.018 2.723-2.118 4.64-5.548 1.917-3.43 3.026-7.868 1.11-4.54 1.11-9.482 0-7.263-1.11-13.719-1.11-6.456-3.53-11.197-2.421-4.842-6.355-7.666-3.834-2.825-9.483-2.825-2.723 0-5.245 2.018-2.522 2.017-4.438 5.447-1.917 3.329-3.127 7.767-1.11 4.438-1.11 9.28 0 7.364 1.311 13.921 1.412 6.456 3.934 11.399 2.623 4.842 6.255 7.666 3.732 2.825 8.372 2.825z" style="line-height:125%;-inkscape-font-specification:'Sinhala MN, Bold';text-align:start" font-weight="700" font-size="206.59" font-family="Sinhala MN" letter-spacing="0" word-spacing="0" fill="#252525"/></g></svg>