<svg xmlns="http://www.w3.org/2000/svg" width="337.655" height="193.042" viewBox="0 0 316.55158 180.9772"><g transform="translate(-391.629 -845.68)"><circle r="14.75" cy="977.902" cx="621.805" stroke-miterlimit="10" fill="#4c4c4c" stroke="#3a3a3a" stroke-width="4.097"/><circle cx="664.067" cy="894.455" r="14.75" fill="#6b85dd" stroke="#4266d5" stroke-width="4.097"/><path d="M652.185 966.019v-42.611c0-.683.136-1.093.956-1.366 7.101-1.912 14.067-3.824 21.168-5.872 1.23-.274 1.23-.274 1.23.956v69.379c0 4.916.273 9.97-.274 14.886-.546 6.01-1.912 11.745-5.736 16.662-3.414 4.234-7.92 6.555-13.247 7.511a65.37 65.37 0 0 1-17.891.82c-4.097-.41-8.058-1.366-11.472-3.96-2.595-1.913-3.96-4.371-3.415-7.785.683-3.415 3.005-5.327 6.146-6.42 2.049-.682 4.097-.819 6.282-.41 1.64.274 3.005.957 4.234 2.05 1.23 1.092 2.322 2.458 3.415 3.687.819 1.093 1.638 2.049 2.731 2.732 1.912 1.229 3.55.819 4.643-1.093.683-1.366.956-2.732 1.093-4.234.273-2.048.273-4.234.273-6.282-.136-12.838-.136-25.676-.136-38.65zM708.044 937.885v55.585c0 .956-.273 1.229-1.23 1.229h-21.032c-.82 0-.956-.137-.956-.956V888.445c0-.683.137-1.092.956-1.229 7.102-1.912 14.067-3.824 21.17-5.873.955-.273 1.228-.136 1.228.82-.136 18.574-.136 37.148-.136 55.722z" fill="#252525"/><circle cx="487.46" cy="895.119" r="14.75" fill="#d66661" stroke="#c93d39" stroke-width="4.097"/><circle cx="506.717" cy="862.478" r="14.75" fill="#6bab5b" stroke="#3b972e" stroke-width="4.097"/><circle cx="526.11" cy="894.982" r="14.75" fill="#aa7dc0" stroke="#945bb0" stroke-width="4.097"/><path d="M499.085 955.785v38.128c0 .956-.136 1.23-1.23 1.23h-21.182c-.82 0-.957-.137-.957-.957V923.67c0-.683.137-.957.82-1.23 7.107-1.913 14.35-3.963 21.456-5.876.957-.274.957 0 .957.82.136 12.845.136 25.691.136 38.4z" fill="#252525"/><path d="M391.629 888.492l23.011-6.33v41.702q4.422-2.914 9.647-4.723 5.326-1.809 10.15-1.809 7.034 0 13.063 2.713 6.03 2.714 10.35 7.336 4.321 4.623 6.733 10.752 2.512 6.13 2.512 12.963 0 9.044-3.416 17.184-3.417 8.14-9.346 14.27-5.929 6.028-13.968 9.646-7.938 3.517-16.982 3.517-8.944 0-17.083-2.412-8.14-2.411-14.671-7.637v-97.172zm23.011 92.148q2.412 2.01 5.125 3.718 2.714 1.608 6.532 1.608 3.819 0 6.934-2.312 3.215-2.411 5.426-6.43 2.311-4.12 3.517-9.648 1.206-5.627 1.206-12.058 0-4.824-1.306-9.044-1.206-4.22-3.417-7.436-2.11-3.216-5.125-5.025-2.914-1.909-6.23-1.909-3.216 0-6.733 1.91-3.416 1.808-5.929 4.722v41.904z" style="line-height:125%;-inkscape-font-specification:'Sinhala MN, Bold';text-align:start" font-weight="700" font-size="205.8" font-family="Sinhala MN" letter-spacing="0" word-spacing="0" fill="#252525"/><path d="M549.665 995.143q-9.078 0-16.846-2.926-7.666-3.026-13.315-8.17-5.548-5.246-8.675-12.206-3.127-7.061-3.127-15.232 0-8.776 3.127-16.14 3.127-7.364 8.675-12.71 5.649-5.346 13.315-8.272 7.667-3.026 16.745-3.026 9.079 0 16.745 2.926 7.667 2.925 13.316 8.07 5.649 5.144 8.776 12.104 3.228 6.86 3.228 14.829 0 8.372-3.228 15.837-3.127 7.364-8.776 12.912-5.548 5.548-13.215 8.776-7.666 3.228-16.745 3.228zm2.623-9.28q3.127 0 5.75-2.018 2.723-2.118 4.64-5.548 1.916-3.43 3.026-7.868 1.11-4.54 1.11-9.482 0-7.263-1.11-13.72-1.11-6.455-3.53-11.196-2.421-4.842-6.356-7.667-3.833-2.824-9.482-2.824-2.723 0-5.245 2.017-2.522 2.018-4.439 5.447-1.916 3.33-3.127 7.768-1.11 4.438-1.11 9.28 0 7.364 1.312 13.92 1.412 6.457 3.934 11.4 2.623 4.841 6.254 7.666 3.733 2.824 8.373 2.824z" style="line-height:125%;-inkscape-font-specification:'Sinhala MN, Bold';text-align:start" font-weight="700" font-size="206.59" font-family="Sinhala MN" letter-spacing="0" word-spacing="0" fill="#252525"/></g></svg>