<svg xmlns="http://www.w3.org/2000/svg" width="48.92" height="48.92" viewBox="0 0 45.862882 45.862881"><defs><clipPath id="a"><ellipse cx="758.887" cy="498.869" rx="33.481" ry="20.135" fill="#6bab5b" stroke="#3b972e" stroke-width="7.212"/></clipPath></defs><g transform="translate(-998.852 -405.758)"><circle r="20.135" cy="428.69" cx="1021.783" fill="#6bab5b" stroke="#3b972e" stroke-width="5.593"/><g clip-path="url(#a)" transform="matrix(.60138 0 0 1 565.402 -70.179)"><path d="M720.747 499.834h75.708" fill="none" stroke="#252525" stroke-width="6.448"/><path style="line-height:125%" d="M745.95 495.963v-.64q0-1.28-.506-1.665-.507-.393-2.192-.393h-2.922q-1.839 0-2.675-.412-.837-.411-1.155-1.427-.295 1.016-1.131 1.427-.837.412-2.687.412h-2.922q-1.674 0-2.18.393-.519.384-.519 1.665v.64h-1.685v-.576q0-2.278.872-3.037.86-.768 3.465-.768h2.828q1.755 0 2.439-.494.672-.494.672-1.793v-.567h1.685v.567q0 1.299.683 1.793.684.494 2.463.494h2.816q2.604 0 3.476.768.872.76.872 3.037v.576h-1.696zM787.38 495.785v-.64q0-1.28-.508-1.665-.506-.393-2.191-.393h-2.923q-1.838 0-2.675-.412-.836-.411-1.154-1.427-.295 1.016-1.132 1.427-.836.412-2.686.412h-2.923q-1.673 0-2.18.393-.518.384-.518 1.665v.64h-1.685v-.576q0-2.278.872-3.037.86-.768 3.464-.768h2.828q1.756 0 2.44-.494.671-.494.671-1.793v-.567h1.685v.567q0 1.299.684 1.793.683.494 2.462.494h2.817q2.604 0 3.476.768.872.76.872 3.037v.576h-1.697zM751.359 503.55v.64q0 1.28.506 1.664.507.394 2.192.394h2.923q1.838 0 2.675.411.836.412 1.154 1.427.295-1.015 1.132-1.427.836-.411 2.686-.411h2.923q1.673 0 2.18-.394.518-.384.518-1.664v-.64h1.685v.576q0 2.277-.872 3.036-.86.769-3.464.769h-2.828q-1.756 0-2.44.494-.671.494-.671 1.792v.567h-1.685v-.567q0-1.298-.684-1.792-.683-.494-2.463-.494h-2.816q-2.604 0-3.476-.769-.872-.759-.872-3.036v-.576h1.697z" font-weight="400" font-family="sans-serif" letter-spacing="0" word-spacing="0" fill="#252525"/></g></g></svg>