<svg xmlns="http://www.w3.org/2000/svg" width="383.177" height="140.8" viewBox="0 0 359.22846 132"><defs><clipPath id="a"><path fill-opacity=".345" stroke-width="2.573" stroke-linecap="square" stroke-linejoin="round" d="M568.849 658.072h111.776v25H568.849z"/></clipPath></defs><g transform="translate(-93.127 -79.245)"><circle cx="285.755" cy="114.345" r="10.8" fill="#6b85dd" stroke="#4266d5" stroke-width="3"/><circle cx="392.255" cy="115.445" r="10.8" fill="#d66661" stroke="#c93d39" stroke-width="3"/><circle cx="406.255" cy="91.545" r="10.8" fill="#6bab5b" stroke="#3b972e" stroke-width="3"/><circle cx="420.555" cy="115.245" r="10.8" fill="#aa7dc0" stroke="#945bb0" stroke-width="3"/><path d="M277.055 166.845v-31.2c0-.5.1-.8.7-1 5.2-1.4 10.3-2.8 15.5-4.3.9-.2.9-.2.9.7v50.8c0 3.6.2 7.3-.2 10.9-.4 4.4-1.4 8.6-4.2 12.2-2.5 3.1-5.8 4.8-9.7 5.5-4.3.8-8.7 1-13.1.6-3-.3-5.9-1-8.4-2.9-1.9-1.4-2.9-3.2-2.5-5.7.5-2.5 2.2-3.9 4.5-4.7 1.5-.5 3-.6 4.6-.3 1.2.2 2.2.7 3.1 1.5.9.8 1.7 1.8 2.5 2.7.6.8 1.2 1.5 2 2 1.4.9 2.6.6 3.4-.8.5-1 .7-2 .8-3.1.2-1.5.2-3.1.2-4.6-.1-9.4-.1-18.9-.1-28.3zM335.155 182.645c-1.9 1.6-3.8 2.8-5.8 3.9-6.8 3.5-13.5 3-19.9-.8-4.4-2.6-7.2-6.5-8.2-11.6-.2-.8-.2-1.6-.2-2.4v-39c0-.7.2-.9.9-.9h15.4c.6 0 .8.2.8.8v38.2c0 4.2 2.4 7.2 6.4 8.2 1.4.3 2.8.3 4.1-.4 2.8-1.4 4.9-3.6 6.7-6.1.2-.3.1-.7.1-1v-38.7c0-.7.2-.9.9-.9h15.5c.6 0 .7.2.7.7v54.6c0 .6-.2.7-.7.7h-15.6c-.5 0-.7-.1-.7-.7-.4-1.6-.4-3-.4-4.6zM375.755 146.245v40.7c0 .7-.2.9-.9.9h-15.4c-.6 0-.7-.1-.7-.7v-77.1c0-.5.1-.8.7-.9 5.2-1.4 10.3-2.8 15.5-4.3.7-.2.9-.1.9.6-.1 13.6-.1 27.2-.1 40.8zM399.455 158.945v27.9c0 .7-.1.9-.9.9h-15.5c-.6 0-.7-.1-.7-.7v-51.6c0-.5.1-.7.6-.9 5.2-1.4 10.5-2.9 15.7-4.3.7-.2.7 0 .7.6.1 9.4.1 18.8.1 28.1zM435.155 183.345c-.5.4-.9.7-1.3 1.1-2.9 2.5-6.2 3.9-10 4.2-3.8.3-7.5.2-11.1-1.3-7.9-3.3-10.2-11.3-7.8-18 1.2-3.4 3.6-5.8 6.5-7.8 3.7-2.6 7.9-4.4 12.2-6 3.7-1.3 7.4-2.6 11.1-3.5.3-.1.5-.2.5-.6-.1-2.9.2-5.8-.3-8.7-.8-4.7-4.3-6.6-8.5-6.1-.3 0-.7.1-1 .2-3.2.7-4.8 2.9-4.8 6.7 0 1.1-.2 2.2-.5 3.3-.6 2.1-2 3.5-4.1 4.1-2.2.6-4.5.7-6.7-.2-4.3-1.7-5.8-6.7-3.4-10.9 1.5-2.5 3.7-4.2 6.2-5.5 4.1-2.1 8.5-3.3 13.1-3.6 5-.4 9.9-.2 14.8 1 2.8.7 5.5 1.8 7.7 3.7 2.9 2.5 4.5 5.7 4.5 9.4.1 14.1.1 28.2.1 42.4 0 .5-.2.6-.7.6h-15.9c-.5 0-.6-.1-.6-.6v-3.9zm0-24.4c-3.2 1.4-6.1 2.9-8.7 4.9-1.4 1.1-2.7 2.3-3.8 3.7-2.8 3.4-1.3 8.8 1.1 10.9 1 .9 2.2 1.3 3.6 1 1.1-.2 2.1-.6 3-1.1 1-.6 1.9-1.4 3-1.9 1.5-.8 2-1.9 1.9-3.6-.2-4.7-.1-9.2-.1-13.9zM171.383 160.453v27.767c0 .697-.1.896-.896.896h-15.426c-.597 0-.697-.1-.697-.697v-51.354c0-.497.1-.696.597-.895 5.176-1.394 10.45-2.887 15.626-4.28.696-.199.696 0 .696.597.1 9.355.1 18.71.1 27.966z" fill="#252525"/><circle r="10.742" cy="116.273" cx="162.917" stroke-miterlimit="10" fill="#4c4c4c" stroke="#3a3a3a" stroke-width="2.984"/><path d="M93.127 111.447l16.758-4.61v30.37q3.22-2.123 7.026-3.44 3.878-1.317 7.391-1.317 5.123 0 9.514 1.976 4.39 1.976 7.537 5.342 3.147 3.366 4.903 7.83 1.83 4.464 1.83 9.44 0 6.587-2.488 12.515-2.488 5.927-6.806 10.391-4.318 4.391-10.172 7.026-5.782 2.561-12.368 2.561-6.513 0-12.44-1.756-5.928-1.757-10.685-5.562v-70.766zm16.758 67.107q1.757 1.464 3.733 2.708 1.975 1.17 4.756 1.17t5.05-1.683q2.342-1.756 3.952-4.683 1.683-3 2.56-7.026.88-4.098.88-8.781 0-3.513-.952-6.587-.878-3.073-2.488-5.415-1.537-2.342-3.733-3.659-2.122-1.39-4.537-1.39-2.342 0-4.903 1.39-2.488 1.317-4.318 3.44v30.516z" style="line-height:125%;-inkscape-font-specification:'Sinhala MN, Bold';text-align:start" font-weight="700" font-size="149.875" font-family="Sinhala MN" letter-spacing="0" word-spacing="0" fill="#252525"/><path d="M208.218 189.116q-6.612 0-12.268-2.13-5.583-2.204-9.697-5.951-4.04-3.82-6.318-8.889-2.277-5.142-2.277-11.093 0-6.39 2.277-11.754 2.277-5.362 6.318-9.256 4.114-3.893 9.697-6.024 5.583-2.203 12.194-2.203 6.612 0 12.195 2.13t9.697 5.877q4.114 3.746 6.391 8.815 2.35 4.996 2.35 10.8 0 6.097-2.35 11.533-2.277 5.362-6.391 9.403-4.04 4.04-9.624 6.391-5.583 2.35-12.194 2.35zm1.91-6.759q2.277 0 4.187-1.469 1.984-1.543 3.38-4.04 1.395-2.498 2.203-5.73.808-3.306.808-6.906 0-5.289-.808-9.99-.808-4.702-2.57-8.155-1.764-3.526-4.629-5.583-2.792-2.057-6.905-2.057-1.984 0-3.82 1.47-1.837 1.469-3.233 3.966-1.396 2.425-2.277 5.657-.808 3.232-.808 6.758 0 5.363.955 10.138 1.028 4.702 2.865 8.301 1.91 3.526 4.554 5.583 2.719 2.057 6.098 2.057z" style="line-height:125%;-inkscape-font-specification:'Sinhala MN, Bold';text-align:start" font-weight="700" font-size="150.45" font-family="Sinhala MN" letter-spacing="0" word-spacing="0" fill="#252525"/><g transform="matrix(0 .98038 .98038 0 -399.487 -476.78)" clip-path="url(#a)" fill="none"><path d="M640.607 678.451v-18.513" stroke="#4266d5" stroke-width="2" stroke-linejoin="round"/><path d="M632.563 672.982v-11.56" stroke="#c93d39" stroke-width="2" stroke-linecap="round" stroke-linejoin="round"/><path d="M616.563 662.781v9.578" stroke="#3b972e" stroke-width="2" stroke-linecap="square" stroke-linejoin="round"/><path d="M672.563 667.812v11.56" stroke="#c93d39" stroke-width="2" stroke-linecap="round" stroke-linejoin="round"/><path d="M656.563 678.013v-9.578" stroke="#3b972e" stroke-width="2" stroke-linecap="square" stroke-linejoin="round"/><path d="M648.563 680.448V663.26" stroke="#945bb0" stroke-width="2" stroke-linecap="round" stroke-linejoin="round"/><path d="M599.662 680.397c20 0 20-20 40-20M609.662 660.397c20 0 20 20 40 20" stroke="#000" stroke-width="2.573" stroke-linecap="square"/><path d="M639.662 660.397c20 0 20 20 40 20M649.662 680.397c20 0 20-20 40-20" stroke="#252525" stroke-width="2.573" stroke-linecap="square"/><path d="M600.606 662.343v18.514" stroke="#4266d5" stroke-width="2" stroke-linejoin="round"/><path d="M592.563 667.812v11.56" stroke="#c93d39" stroke-width="2" stroke-linecap="round" stroke-linejoin="round"/><path d="M576.562 678.013v-9.578" stroke="#3b972e" stroke-width="2" stroke-linecap="square" stroke-linejoin="round"/><path d="M632.563 672.982v-11.56" stroke="#c93d39" stroke-width="2" stroke-linecap="round" stroke-linejoin="round"/><path d="M616.563 662.78v9.579" stroke="#3b972e" stroke-width="2" stroke-linecap="square" stroke-linejoin="round"/><path d="M608.563 660.346v17.188" stroke="#945bb0" stroke-width="2" stroke-linecap="round" stroke-linejoin="round"/><path d="M559.662 660.397c20 0 20 20 40 20M569.662 680.397c20 0 20-20 40-20M599.662 680.397c20 0 20-20 40-20M609.662 660.397c20 0 20 20 40 20" stroke="#252525" stroke-width="2.573" stroke-linecap="square"/></g></g></svg>