<svg xmlns="http://www.w3.org/2000/svg" width="253.383" height="248.97" viewBox="0 0 237.54631 233.40976"><defs><clipPath id="a"><path fill-opacity=".345" stroke-width="2.573" stroke-linecap="square" stroke-linejoin="round" d="M568.849 658.072h111.776v25H568.849z"/></clipPath></defs><g transform="translate(-1355.144 -1053.501)"><circle cx="1426.091" cy="1161.09" r="10.8" fill="#6b85dd" stroke="#4266d5" stroke-width="3"/><circle cx="1532.591" cy="1162.09" r="10.8" fill="#d66661" stroke="#c93d39" stroke-width="3"/><circle cx="1546.591" cy="1138.189" r="10.8" fill="#6bab5b" stroke="#3b972e" stroke-width="3"/><circle cx="1560.891" cy="1161.989" r="10.8" fill="#aa7dc0" stroke="#945bb0" stroke-width="3"/><path d="M1417.39 1213.49v-31.2c0-.5.1-.8.7-1 5.2-1.4 10.3-2.8 15.5-4.3.9-.2.9-.2.9.7v50.8c0 3.6.2 7.3-.2 10.9-.4 4.4-1.4 8.6-4.2 12.2-2.5 3.1-5.8 4.8-9.7 5.5-4.3.8-8.7 1-13.1.6-3-.3-5.9-1-8.4-2.9-1.9-1.4-2.9-3.2-2.5-5.7.5-2.5 2.2-3.9 4.5-4.7 1.5-.5 3-.6 4.6-.3 1.2.2 2.2.7 3.1 1.5.9.8 1.7 1.8 2.5 2.7.6.8 1.2 1.5 2 2 1.4.9 2.6.6 3.4-.8.5-1 .7-2 .8-3.1.2-1.5.2-3.1.2-4.6-.1-9.4-.1-18.8-.1-28.3zM1475.39 1229.29c-1.9 1.6-3.8 2.8-5.8 3.9-6.8 3.5-13.5 3-19.9-.8-4.4-2.6-7.2-6.5-8.2-11.6-.2-.8-.2-1.6-.2-2.4v-39c0-.7.2-.9.9-.9h15.4c.6 0 .8.2.8.8v38.2c0 4.2 2.4 7.2 6.4 8.2 1.4.3 2.8.3 4.1-.4 2.8-1.4 4.9-3.6 6.7-6.1.2-.3.1-.7.1-1v-38.7c0-.7.2-.9.9-.9h15.5c.6 0 .7.2.7.7v54.6c0 .6-.2.7-.7.7h-15.6c-.5 0-.7-.1-.7-.7-.3-1.5-.4-3-.4-4.6zM1516.09 1192.89v40.7c0 .7-.2.9-.9.9h-15.4c-.6 0-.7-.1-.7-.7v-77.1c0-.5.1-.8.7-.9 5.2-1.4 10.3-2.8 15.5-4.3.7-.2.9-.1.9.6-.1 13.6-.1 27.2-.1 40.8zM1539.79 1205.69v27.9c0 .7-.1.9-.9.9h-15.5c-.6 0-.7-.1-.7-.7v-51.6c0-.5.1-.7.6-.9 5.2-1.4 10.5-2.9 15.7-4.3.7-.2.7 0 .7.6.1 9.4.1 18.7.1 28.1zM1575.49 1230.09c-.5.4-.9.7-1.3 1.1-2.9 2.5-6.2 3.9-10 4.2-3.8.3-7.5.2-11.1-1.3-7.9-3.3-10.2-11.3-7.8-18 1.2-3.4 3.6-5.8 6.5-7.8 3.7-2.6 7.9-4.4 12.2-6 3.7-1.3 7.4-2.6 11.1-3.5.3-.1.5-.2.5-.6-.1-2.9.2-5.8-.3-8.7-.8-4.7-4.3-6.6-8.5-6.1-.3 0-.7.1-1 .2-3.2.7-4.8 2.9-4.8 6.7 0 1.1-.2 2.2-.5 3.3-.6 2.1-2 3.5-4.1 4.1-2.2.6-4.5.7-6.7-.2-4.3-1.7-5.8-6.7-3.4-10.9 1.5-2.5 3.7-4.2 6.2-5.5 4.1-2.1 8.5-3.3 13.1-3.6 5-.4 9.9-.2 14.8 1 2.8.7 5.5 1.8 7.7 3.7 2.9 2.5 4.5 5.7 4.5 9.4.1 14.1.1 28.2.1 42.4 0 .5-.2.6-.7.6h-15.9c-.5 0-.6-.1-.6-.6v-3.9zm0-24.5c-3.2 1.4-6.1 2.9-8.7 4.9-1.4 1.1-2.7 2.3-3.8 3.7-2.8 3.4-1.3 8.8 1.1 10.9 1 .9 2.2 1.3 3.6 1 1.1-.2 2.1-.6 3-1.1 1-.6 1.9-1.4 3-1.9 1.5-.8 2-1.9 1.9-3.6-.2-4.6-.1-9.2-.1-13.9zM1433.825 1110.222v27.917c0 .7-.1.9-.9.9h-15.51c-.6 0-.7-.1-.7-.7v-51.632c0-.5.1-.7.6-.9 5.203-1.402 10.506-2.903 15.71-4.304.7-.2.7 0 .7.6.1 9.407.1 18.813.1 28.119z" fill="#252525"/><path d="M1355.144 1060.95l16.85-4.636v30.535q3.237-2.134 7.063-3.458 3.9-1.325 7.432-1.325 5.15 0 9.565 1.987 4.415 1.987 7.578 5.371 3.164 3.385 4.93 7.873 1.84 4.488 1.84 9.492 0 6.622-2.502 12.582-2.502 5.96-6.843 10.448-4.34 4.414-10.227 7.063-5.813 2.576-12.435 2.576-6.548 0-12.508-1.766-5.96-1.766-10.743-5.592v-71.15zm16.85 67.47q1.766 1.472 3.752 2.723 1.987 1.177 4.783 1.177 2.796 0 5.077-1.692 2.354-1.766 3.973-4.709 1.692-3.017 2.575-7.064.883-4.12.883-8.829 0-3.532-.956-6.622-.883-3.09-2.502-5.445-1.545-2.354-3.752-3.679-2.134-1.398-4.562-1.398-2.355 0-4.93 1.398-2.502 1.325-4.341 3.458v30.683z" style="line-height:125%;-inkscape-font-specification:'Sinhala MN, Bold';text-align:start" font-weight="700" font-size="150.689" font-family="Sinhala MN" letter-spacing="0" word-spacing="0" fill="#252525"/><path d="M1470.86 1139.04q-6.647 0-12.334-2.142-5.614-2.216-9.75-5.983-4.062-3.84-6.352-8.937-2.29-5.17-2.29-11.153 0-6.426 2.29-11.818 2.29-5.392 6.352-9.306 4.136-3.915 9.75-6.057 5.613-2.216 12.26-2.216 6.648 0 12.261 2.142 5.614 2.142 9.75 5.91 4.136 3.766 6.426 8.863 2.363 5.022 2.363 10.857 0 6.13-2.363 11.596-2.29 5.392-6.426 9.454-4.062 4.063-9.676 6.426-5.613 2.364-12.26 2.364zm1.92-6.795q2.29 0 4.21-1.477 1.995-1.552 3.398-4.063 1.404-2.511 2.216-5.761.813-3.324.813-6.943 0-5.318-.813-10.045-.812-4.727-2.585-8.198-1.773-3.546-4.653-5.614-2.807-2.068-6.943-2.068-1.994 0-3.84 1.477-1.847 1.477-3.25 3.989-1.404 2.437-2.29 5.687-.813 3.25-.813 6.795 0 5.392.96 10.193 1.034 4.727 2.88 8.346 1.921 3.545 4.58 5.614 2.733 2.068 6.13 2.068z" style="line-height:125%;-inkscape-font-specification:'Sinhala MN, Bold';text-align:start" font-weight="700" font-size="151.267" font-family="Sinhala MN" letter-spacing="0" word-spacing="0" fill="#252525"/><circle cx="1425.313" cy="1065.801" r="10.8" fill="#6b85dd" stroke="#4266d5" stroke-width="3"/><g clip-path="url(#a)" transform="matrix(0 -1.27323 -1.27323 0 2234.293 2011.185)" fill="none"><path d="M640.607 678.451v-18.513" stroke="#4266d5" stroke-width="2" stroke-linejoin="round"/><path d="M632.563 672.982v-11.56" stroke="#c93d39" stroke-width="2" stroke-linecap="round" stroke-linejoin="round"/><path d="M616.563 662.781v9.578" stroke="#3b972e" stroke-width="2" stroke-linecap="square" stroke-linejoin="round"/><path d="M672.563 667.812v11.56" stroke="#c93d39" stroke-width="2" stroke-linecap="round" stroke-linejoin="round"/><path d="M656.563 678.013v-9.578" stroke="#3b972e" stroke-width="2" stroke-linecap="square" stroke-linejoin="round"/><path d="M648.563 680.448V663.26" stroke="#945bb0" stroke-width="2" stroke-linecap="round" stroke-linejoin="round"/><path d="M599.662 680.397c20 0 20-20 40-20M609.662 660.397c20 0 20 20 40 20" stroke="#000" stroke-width="2.573" stroke-linecap="square"/><path d="M639.662 660.397c20 0 20 20 40 20M649.662 680.397c20 0 20-20 40-20" stroke="#252525" stroke-width="2.573" stroke-linecap="square"/><path d="M600.606 662.343v18.514" stroke="#4266d5" stroke-width="2" stroke-linejoin="round"/><path d="M592.563 667.812v11.56" stroke="#c93d39" stroke-width="2" stroke-linecap="round" stroke-linejoin="round"/><path d="M576.562 678.013v-9.578" stroke="#3b972e" stroke-width="2" stroke-linecap="square" stroke-linejoin="round"/><path d="M632.563 672.982v-11.56" stroke="#c93d39" stroke-width="2" stroke-linecap="round" stroke-linejoin="round"/><path d="M616.563 662.78v9.579" stroke="#3b972e" stroke-width="2" stroke-linecap="square" stroke-linejoin="round"/><path d="M608.563 660.346v17.188" stroke="#945bb0" stroke-width="2" stroke-linecap="round" stroke-linejoin="round"/><path d="M559.662 660.397c20 0 20 20 40 20M569.662 680.397c20 0 20-20 40-20M599.662 680.397c20 0 20-20 40-20M609.662 660.397c20 0 20 20 40 20" stroke="#252525" stroke-width="2.573" stroke-linecap="square"/></g></g></svg>