<svg xmlns="http://www.w3.org/2000/svg" width="293.594" height="141.796" viewBox="0 0 275.24482 132.93344"><defs><clipPath id="a"><path fill-opacity=".345" stroke-width="2.573" stroke-linecap="square" stroke-linejoin="round" d="M568.849 658.072h111.776v25H568.849z"/></clipPath></defs><g transform="translate(-1593.955 -528.766)"><circle r="10.8" cy="564.8" cx="1702.6" fill="#6b85dd" stroke="#4266d5" stroke-width="3"/><circle r="10.8" cy="565.9" cx="1809.1" fill="#d66661" stroke="#c93d39" stroke-width="3"/><circle r="10.8" cy="542" cx="1823.1" fill="#6bab5b" stroke="#3b972e" stroke-width="3"/><circle r="10.8" cy="565.7" cx="1837.4" fill="#aa7dc0" stroke="#945bb0" stroke-width="3"/><path d="M1693.9 617.3v-31.2c0-.5.1-.8.7-1 5.2-1.4 10.3-2.8 15.5-4.3.9-.2.9-.2.9.7v50.8c0 3.6.2 7.3-.2 10.9-.4 4.4-1.4 8.6-4.2 12.2-2.5 3.1-5.8 4.8-9.7 5.5-4.3.8-8.7 1-13.1.6-3-.3-5.9-1-8.4-2.9-1.9-1.4-2.9-3.2-2.5-5.7.5-2.5 2.2-3.9 4.5-4.7 1.5-.5 3-.6 4.6-.3 1.2.2 2.2.7 3.1 1.5.9.8 1.7 1.8 2.5 2.7.6.8 1.2 1.5 2 2 1.4.9 2.6.6 3.4-.8.5-1 .7-2 .8-3.1.2-1.5.2-3.1.2-4.6-.1-9.4-.1-18.9-.1-28.3zM1752 633.1c-1.9 1.6-3.8 2.8-5.8 3.9-6.8 3.5-13.5 3-19.9-.8-4.4-2.6-7.2-6.5-8.2-11.6-.2-.8-.2-1.6-.2-2.4v-39c0-.7.2-.9.9-.9h15.4c.6 0 .8.2.8.8v38.2c0 4.2 2.4 7.2 6.4 8.2 1.4.3 2.8.3 4.1-.4 2.8-1.4 4.9-3.6 6.7-6.1.2-.3.1-.7.1-1v-38.7c0-.7.2-.9.9-.9h15.5c.6 0 .7.2.7.7v54.6c0 .6-.2.7-.7.7h-15.6c-.5 0-.7-.1-.7-.7-.4-1.6-.4-3-.4-4.6zM1792.6 596.7v40.7c0 .7-.2.9-.9.9h-15.4c-.6 0-.7-.1-.7-.7v-77.1c0-.5.1-.8.7-.9 5.2-1.4 10.3-2.8 15.5-4.3.7-.2.9-.1.9.6-.1 13.6-.1 27.2-.1 40.8zM1816.3 609.4v27.9c0 .7-.1.9-.9.9h-15.5c-.6 0-.7-.1-.7-.7v-51.6c0-.5.1-.7.6-.9 5.2-1.4 10.5-2.9 15.7-4.3.7-.2.7 0 .7.6.1 9.4.1 18.8.1 28.1zM1852 633.8c-.5.4-.9.7-1.3 1.1-2.9 2.5-6.2 3.9-10 4.2-3.8.3-7.5.2-11.1-1.3-7.9-3.3-10.2-11.3-7.8-18 1.2-3.4 3.6-5.8 6.5-7.8 3.7-2.6 7.9-4.4 12.2-6 3.7-1.3 7.4-2.6 11.1-3.5.3-.1.5-.2.5-.6-.1-2.9.2-5.8-.3-8.7-.8-4.7-4.3-6.6-8.5-6.1-.3 0-.7.1-1 .2-3.2.7-4.8 2.9-4.8 6.7 0 1.1-.2 2.2-.5 3.3-.6 2.1-2 3.5-4.1 4.1-2.2.6-4.5.7-6.7-.2-4.3-1.7-5.8-6.7-3.4-10.9 1.5-2.5 3.7-4.2 6.2-5.5 4.1-2.1 8.5-3.3 13.1-3.6 5-.4 9.9-.2 14.8 1 2.8.7 5.5 1.8 7.7 3.7 2.9 2.5 4.5 5.7 4.5 9.4.1 14.1.1 28.2.1 42.4 0 .5-.2.6-.7.6h-15.9c-.5 0-.6-.1-.6-.6v-3.9zm0-24.4c-3.2 1.4-6.1 2.9-8.7 4.9-1.4 1.1-2.7 2.3-3.8 3.7-2.8 3.4-1.3 8.8 1.1 10.9 1 .9 2.2 1.3 3.6 1 1.1-.2 2.1-.6 3-1.1 1-.6 1.9-1.4 3-1.9 1.5-.8 2-1.9 1.9-3.6-.2-4.7-.1-9.2-.1-13.9z" fill="#252525"/></g><g transform="matrix(0 -.40556 .40556 0 -473.95 456.978)"><path d="M998.815 1274.366v52.049c0 1.306-.186 1.679-1.679 1.679h-28.915c-1.12 0-1.306-.187-1.306-1.306v-96.262c0-.933.186-1.306 1.119-1.679 9.7-2.612 19.588-5.41 29.289-8.022 1.306-.373 1.306 0 1.306 1.12.186 17.536.186 35.072.186 52.421z" fill="#252525"/><circle stroke-miterlimit="10" cx="982.946" cy="1191.551" r="20.135" fill="#4c4c4c" stroke="#3a3a3a" stroke-width="5.593"/><path style="line-height:125%;-inkscape-font-specification:'Sinhala MN, Bold';text-align:start" d="M852.126 1182.505l31.414-8.642v56.928q6.035-3.978 13.169-6.447 7.27-2.47 13.854-2.47 9.603 0 17.833 3.705 8.231 3.703 14.13 10.014 5.898 6.31 9.19 14.677 3.43 8.368 3.43 17.696 0 12.346-4.664 23.457t-12.758 19.48q-8.093 8.23-19.067 13.168-10.837 4.801-23.183 4.801-12.209 0-23.32-3.292t-20.028-10.425v-132.65zm31.414 125.79q3.292 2.744 6.996 5.076 3.703 2.195 8.916 2.195 5.213 0 9.465-3.155 4.39-3.292 7.408-8.78 3.155-5.623 4.801-13.168 1.646-7.682 1.646-16.461 0-6.585-1.783-12.346-1.646-5.761-4.664-10.151-2.88-4.39-6.996-6.859-3.978-2.606-8.505-2.606-4.39 0-9.19 2.606-4.665 2.47-8.094 6.447v57.203z" font-weight="700" font-size="280.937" font-family="Sinhala MN" letter-spacing="0" word-spacing="0" fill="#252525"/><path style="line-height:125%;-inkscape-font-specification:'Sinhala MN, Bold';text-align:start" d="M1067.862 1328.094q-12.393 0-22.996-3.993-10.466-4.132-18.177-11.155-7.574-7.16-11.842-16.661-4.27-9.64-4.27-20.794 0-11.98 4.27-22.032 4.268-10.052 11.842-17.35 7.711-7.299 18.177-11.292 10.465-4.131 22.858-4.131 12.394 0 22.859 3.993 10.465 3.993 18.177 11.016 7.711 7.023 11.98 16.525 4.406 9.363 4.406 20.242 0 11.43-4.406 21.62-4.269 10.052-11.98 17.625-7.574 7.574-18.04 11.98-10.465 4.407-22.858 4.407zm3.58-12.669q4.27 0 7.85-2.754 3.717-2.892 6.334-7.574 2.616-4.681 4.13-10.74 1.516-6.197 1.516-12.944 0-9.915-1.515-18.728-1.515-8.813-4.82-15.285-3.305-6.61-8.675-10.465-5.233-3.856-12.944-3.856-3.718 0-7.16 2.754-3.443 2.754-6.06 7.436-2.616 4.544-4.268 10.603-1.515 6.059-1.515 12.669 0 10.052 1.79 19.003 1.928 8.813 5.37 15.56 3.58 6.61 8.538 10.465 5.095 3.856 11.43 3.856z" font-weight="700" font-size="282.015" font-family="Sinhala MN" letter-spacing="0" word-spacing="0" fill="#252525"/></g><g transform="matrix(0 -1.03042 -1.03042 0 771.373 701.33)" clip-path="url(#a)" fill="none"><path d="M640.607 678.451v-18.513" stroke="#4266d5" stroke-width="2" stroke-linejoin="round"/><path d="M632.563 672.982v-11.56" stroke="#c93d39" stroke-width="2" stroke-linecap="round" stroke-linejoin="round"/><path d="M616.563 662.781v9.578" stroke="#3b972e" stroke-width="2" stroke-linecap="square" stroke-linejoin="round"/><path d="M672.563 667.812v11.56" stroke="#c93d39" stroke-width="2" stroke-linecap="round" stroke-linejoin="round"/><path d="M656.563 678.013v-9.578" stroke="#3b972e" stroke-width="2" stroke-linecap="square" stroke-linejoin="round"/><path d="M648.563 680.448V663.26" stroke="#945bb0" stroke-width="2" stroke-linecap="round" stroke-linejoin="round"/><path d="M599.662 680.397c20 0 20-20 40-20M609.662 660.397c20 0 20 20 40 20" stroke="#000" stroke-width="2.573" stroke-linecap="square"/><path d="M639.662 660.397c20 0 20 20 40 20M649.662 680.397c20 0 20-20 40-20" stroke="#252525" stroke-width="2.573" stroke-linecap="square"/><path d="M600.606 662.343v18.514" stroke="#4266d5" stroke-width="2" stroke-linejoin="round"/><path d="M592.563 667.812v11.56" stroke="#c93d39" stroke-width="2" stroke-linecap="round" stroke-linejoin="round"/><path d="M576.562 678.013v-9.578" stroke="#3b972e" stroke-width="2" stroke-linecap="square" stroke-linejoin="round"/><path d="M632.563 672.982v-11.56" stroke="#c93d39" stroke-width="2" stroke-linecap="round" stroke-linejoin="round"/><path d="M616.563 662.78v9.579" stroke="#3b972e" stroke-width="2" stroke-linecap="square" stroke-linejoin="round"/><path d="M608.563 660.346v17.188" stroke="#945bb0" stroke-width="2" stroke-linecap="round" stroke-linejoin="round"/><path d="M559.662 660.397c20 0 20 20 40 20M569.662 680.397c20 0 20-20 40-20M599.662 680.397c20 0 20-20 40-20M609.662 660.397c20 0 20 20 40 20" stroke="#252525" stroke-width="2.573" stroke-linecap="square"/></g></svg>