<svg xmlns="http://www.w3.org/2000/svg" width="357.475" height="145.89" viewBox="0 0 335.13302 136.77204"><defs><clipPath id="a"><path fill-opacity=".345" stroke-width="2.573" stroke-linecap="square" stroke-linejoin="round" d="M568.849 658.072h111.776v25H568.849z"/></clipPath><clipPath id="b"><path fill-opacity=".345" stroke="#252525" stroke-width="0" stroke-linecap="square" stroke-linejoin="round" stroke-miterlimit="10" d="M537.015 716.88h84.553v-59.957h-84.553z"/></clipPath></defs><g transform="translate(-109.576 -429.69)"><circle r="10.8" cy="464.89" cx="273.691" fill="#6b85dd" stroke="#4266d5" stroke-width="3"/><circle r="10.8" cy="465.89" cx="380.09" fill="#d66661" stroke="#c93d39" stroke-width="3"/><circle r="10.8" cy="441.99" cx="394.191" fill="#6bab5b" stroke="#3b972e" stroke-width="3"/><circle r="10.8" cy="465.791" cx="408.39" fill="#aa7dc0" stroke="#945bb0" stroke-width="3"/><path d="M264.89 517.29v-31.2c0-.5.1-.8.7-1 5.2-1.4 10.3-2.8 15.5-4.3.9-.2.9-.2.9.7v50.8c0 3.6.2 7.3-.2 10.9-.4 4.4-1.4 8.6-4.2 12.2-2.5 3.1-5.8 4.8-9.7 5.5-4.3.8-8.7 1-13.1.6-3-.3-5.9-1-8.4-2.9-1.9-1.4-2.9-3.2-2.5-5.7.5-2.5 2.2-3.9 4.5-4.7 1.5-.5 3-.6 4.6-.3 1.2.2 2.2.7 3.1 1.5.9.8 1.7 1.8 2.5 2.7.6.8 1.2 1.5 2 2 1.4.9 2.6.6 3.4-.8.5-1 .7-2 .8-3.1.2-1.5.2-3.1.2-4.6-.1-9.4-.1-18.8-.1-28.3zM322.99 533.09c-1.9 1.6-3.8 2.8-5.8 3.9-6.8 3.5-13.5 3-19.9-.8-4.4-2.6-7.2-6.5-8.2-11.6-.2-.8-.2-1.6-.2-2.4v-39c0-.7.2-.9.9-.9h15.4c.6 0 .8.2.8.8v38.2c0 4.2 2.4 7.2 6.4 8.2 1.4.3 2.8.3 4.1-.4 2.8-1.4 4.9-3.6 6.7-6.1.2-.3.1-.7.1-1v-38.7c0-.7.2-.9.9-.9h15.5c.6 0 .7.2.7.7v54.6c0 .6-.2.7-.7.7h-15.6c-.5 0-.7-.1-.7-.7-.4-1.5-.4-2.9-.4-4.6zM363.69 496.69v40.7c0 .7-.2.9-.9.9h-15.4c-.6 0-.7-.1-.7-.7v-77.1c0-.5.1-.8.7-.9 5.2-1.4 10.3-2.8 15.5-4.3.7-.2.9-.1.9.6-.1 13.6-.1 27.2-.1 40.8zM387.39 509.49v27.9c0 .7-.1.9-.9.9h-15.5c-.6 0-.7-.1-.7-.7v-51.6c0-.5.1-.7.6-.9 5.2-1.4 10.5-2.9 15.7-4.3.7-.2.7 0 .7.6.1 9.4.1 18.7.1 28.1zM422.99 533.89c-.5.4-.9.7-1.3 1.1-2.9 2.5-6.2 3.9-10 4.2-3.8.3-7.5.2-11.1-1.3-7.9-3.3-10.2-11.3-7.8-18 1.2-3.4 3.6-5.8 6.5-7.8 3.7-2.6 7.9-4.4 12.2-6 3.7-1.3 7.4-2.6 11.1-3.5.3-.1.5-.2.5-.6-.1-2.9.2-5.8-.3-8.7-.8-4.7-4.3-6.6-8.5-6.1-.3 0-.7.1-1 .2-3.2.7-4.8 2.9-4.8 6.7 0 1.1-.2 2.2-.5 3.3-.6 2.1-2 3.5-4.1 4.1-2.2.6-4.5.7-6.7-.2-4.3-1.7-5.8-6.7-3.4-10.9 1.5-2.5 3.7-4.2 6.2-5.5 4.1-2.1 8.5-3.3 13.1-3.6 5-.4 9.9-.2 14.8 1 2.8.7 5.5 1.8 7.7 3.7 2.9 2.5 4.5 5.7 4.5 9.4.1 14.1.1 28.2.1 42.4 0 .5-.2.6-.7.6h-15.9c-.5 0-.6-.1-.6-.6.1-1.3 0-2.5 0-3.9zm0-24.5c-3.2 1.4-6.1 2.9-8.7 4.9-1.4 1.1-2.7 2.3-3.8 3.7-2.8 3.4-1.3 8.8 1.1 10.9 1 .9 2.2 1.3 3.6 1 1.1-.2 2.1-.6 3-1.1 1-.6 1.9-1.4 3-1.9 1.5-.8 2-1.9 1.9-3.6-.2-4.6-.1-9.2-.1-13.9zM190.42 509.69v27.9c0 .7-.1.9-.9.9h-15.5c-.6 0-.7-.1-.7-.7v-51.6c0-.5.1-.7.6-.9 5.2-1.4 10.5-2.9 15.7-4.3.7-.2.7 0 .7.6.1 9.4.1 18.8.1 28.1z" fill="#252525"/><circle stroke-miterlimit="10" cx="181.921" cy="465.291" r="10.8" fill="#4c4c4c" stroke="#3a3a3a" stroke-width="3"/><path d="M111.789 460.45l16.838-4.633v30.516q3.236-2.133 7.06-3.456 3.897-1.324 7.426-1.324 5.147 0 9.56 1.985 4.411 1.986 7.573 5.368 3.162 3.383 4.927 7.868 1.838 4.486 1.838 9.486 0 6.618-2.5 12.574-2.5 5.956-6.839 10.441-4.338 4.412-10.22 7.06-5.81 2.573-12.427 2.573-6.545 0-12.5-1.765-5.957-1.765-10.736-5.588v-71.106zm16.838 67.428q1.765 1.47 3.75 2.72 1.986 1.177 4.78 1.177 2.794 0 5.074-1.691 2.353-1.765 3.97-4.706 1.692-3.015 2.574-7.06.882-4.117.882-8.823 0-3.53-.955-6.618-.883-3.088-2.5-5.441-1.545-2.353-3.75-3.677-2.133-1.397-4.56-1.397-2.353 0-4.926 1.397-2.5 1.324-4.339 3.456v30.663z" style="line-height:125%;-inkscape-font-specification:'Sinhala MN, Bold';text-align:start" font-weight="700" font-size="150.593" font-family="Sinhala MN" letter-spacing="0" word-spacing="0"/><path d="M227.431 538.49q-6.643 0-12.327-2.14-5.61-2.214-9.743-5.979-4.06-3.838-6.348-8.932-2.288-5.166-2.288-11.145 0-6.422 2.288-11.81 2.288-5.39 6.348-9.301 4.133-3.912 9.743-6.053 5.61-2.214 12.253-2.214 6.644 0 12.254 2.14 5.61 2.14 9.743 5.905 4.134 3.765 6.422 8.858 2.362 5.02 2.362 10.85 0 6.127-2.362 11.59-2.288 5.388-6.422 9.448-4.06 4.06-9.67 6.421-5.61 2.363-12.253 2.363zm1.92-6.79q2.288 0 4.207-1.477 1.993-1.55 3.395-4.06 1.403-2.51 2.215-5.757.812-3.322.812-6.938 0-5.315-.812-10.04-.812-4.723-2.584-8.193-1.771-3.543-4.65-5.61-2.805-2.066-6.939-2.066-1.993 0-3.838 1.476t-3.248 3.986q-1.402 2.436-2.288 5.684-.812 3.248-.812 6.79 0 5.39.96 10.187 1.033 4.724 2.878 8.341 1.92 3.543 4.577 5.61 2.731 2.067 6.126 2.067z" style="line-height:125%;-inkscape-font-specification:'Sinhala MN, Bold';text-align:start" font-weight="700" font-size="151.171" font-family="Sinhala MN" letter-spacing="0" word-spacing="0"/><g transform="matrix(1.20695 0 0 -1.20695 -576.994 1361.869)" clip-path="url(#a)" fill="none"><path d="M640.607 678.451v-18.513" stroke="#4266d5" stroke-width="2" stroke-linejoin="round"/><path d="M632.563 672.982v-11.56" stroke="#c93d39" stroke-width="2" stroke-linecap="round" stroke-linejoin="round"/><path d="M616.563 662.781v9.578" stroke="#3b972e" stroke-width="2" stroke-linecap="square" stroke-linejoin="round"/><path d="M672.563 667.812v11.56" stroke="#c93d39" stroke-width="2" stroke-linecap="round" stroke-linejoin="round"/><path d="M656.563 678.013v-9.578" stroke="#3b972e" stroke-width="2" stroke-linecap="square" stroke-linejoin="round"/><path d="M648.563 680.448V663.26" stroke="#945bb0" stroke-width="2" stroke-linecap="round" stroke-linejoin="round"/><path d="M599.662 680.397c20 0 20-20 40-20M609.662 660.397c20 0 20 20 40 20" stroke="#000" stroke-width="2.573" stroke-linecap="square"/><path d="M639.662 660.397c20 0 20 20 40 20M649.662 680.397c20 0 20-20 40-20" stroke="#252525" stroke-width="2.573" stroke-linecap="square"/><path d="M600.606 662.343v18.514" stroke="#4266d5" stroke-width="2" stroke-linejoin="round"/><path d="M592.563 667.812v11.56" stroke="#c93d39" stroke-width="2" stroke-linecap="round" stroke-linejoin="round"/><path d="M576.562 678.013v-9.578" stroke="#3b972e" stroke-width="2" stroke-linecap="square" stroke-linejoin="round"/><path d="M632.563 672.982v-11.56" stroke="#c93d39" stroke-width="2" stroke-linecap="round" stroke-linejoin="round"/><path d="M616.563 662.78v9.579" stroke="#3b972e" stroke-width="2" stroke-linecap="square" stroke-linejoin="round"/><path d="M608.563 660.346v17.188" stroke="#945bb0" stroke-width="2" stroke-linecap="round" stroke-linejoin="round"/><path d="M559.662 660.397c20 0 20 20 40 20M569.662 680.397c20 0 20-20 40-20M599.662 680.397c20 0 20-20 40-20M609.662 660.397c20 0 20 20 40 20" stroke="#252525" stroke-width="2.573" stroke-linecap="square"/></g><g clip-path="url(#a)" transform="matrix(1.20695 0 0 -1.20695 -402.023 1361.975)" fill="none"><path d="M640.607 678.451v-18.513" stroke="#4266d5" stroke-width="2" stroke-linejoin="round"/><path d="M632.563 672.982v-11.56" stroke="#c93d39" stroke-width="2" stroke-linecap="round" stroke-linejoin="round"/><path d="M616.563 662.781v9.578" stroke="#3b972e" stroke-width="2" stroke-linecap="square" stroke-linejoin="round"/><path d="M672.563 667.812v11.56" stroke="#c93d39" stroke-width="2" stroke-linecap="round" stroke-linejoin="round"/><path d="M656.563 678.013v-9.578" stroke="#3b972e" stroke-width="2" stroke-linecap="square" stroke-linejoin="round"/><path d="M648.563 680.448V663.26" stroke="#945bb0" stroke-width="2" stroke-linecap="round" stroke-linejoin="round"/><path d="M599.662 680.397c20 0 20-20 40-20M609.662 660.397c20 0 20 20 40 20" stroke="#000" stroke-width="2.573" stroke-linecap="square"/><path d="M639.662 660.397c20 0 20 20 40 20M649.662 680.397c20 0 20-20 40-20" stroke="#252525" stroke-width="2.573" stroke-linecap="square"/><path d="M600.606 662.343v18.514" stroke="#4266d5" stroke-width="2" stroke-linejoin="round"/><path d="M592.563 667.812v11.56" stroke="#c93d39" stroke-width="2" stroke-linecap="round" stroke-linejoin="round"/><path d="M576.562 678.013v-9.578" stroke="#3b972e" stroke-width="2" stroke-linecap="square" stroke-linejoin="round"/><path d="M632.563 672.982v-11.56" stroke="#c93d39" stroke-width="2" stroke-linecap="round" stroke-linejoin="round"/><path d="M616.563 662.78v9.579" stroke="#3b972e" stroke-width="2" stroke-linecap="square" stroke-linejoin="round"/><path d="M608.563 660.346v17.188" stroke="#945bb0" stroke-width="2" stroke-linecap="round" stroke-linejoin="round"/><path d="M559.662 660.397c20 0 20 20 40 20M569.662 680.397c20 0 20-20 40-20M599.662 680.397c20 0 20-20 40-20M609.662 660.397c20 0 20 20 40 20" stroke="#252525" stroke-width="2.573" stroke-linecap="square"/></g><g transform="matrix(1.20695 0 0 -1.20695 -305.49 1361.975)" clip-path="url(#b)" fill="none"><path d="M640.607 678.451v-18.513" stroke="#4266d5" stroke-width="2" stroke-linejoin="round"/><path d="M632.563 672.982v-11.56" stroke="#c93d39" stroke-width="2" stroke-linecap="round" stroke-linejoin="round"/><path d="M616.563 662.781v9.578" stroke="#3b972e" stroke-width="2" stroke-linecap="square" stroke-linejoin="round"/><path d="M672.563 667.812v11.56" stroke="#c93d39" stroke-width="2" stroke-linecap="round" stroke-linejoin="round"/><path d="M656.563 678.013v-9.578" stroke="#3b972e" stroke-width="2" stroke-linecap="square" stroke-linejoin="round"/><path d="M648.563 680.448V663.26" stroke="#945bb0" stroke-width="2" stroke-linecap="round" stroke-linejoin="round"/><path d="M599.662 680.397c20 0 20-20 40-20M609.662 660.397c20 0 20 20 40 20" stroke="#000" stroke-width="2.573" stroke-linecap="square"/><path d="M639.662 660.397c20 0 20 20 40 20M649.662 680.397c20 0 20-20 40-20" stroke="#252525" stroke-width="2.573" stroke-linecap="square"/><path d="M600.606 662.343v18.514" stroke="#4266d5" stroke-width="2" stroke-linejoin="round"/><path d="M592.563 667.812v11.56" stroke="#c93d39" stroke-width="2" stroke-linecap="round" stroke-linejoin="round"/><path d="M576.562 678.013v-9.578" stroke="#3b972e" stroke-width="2" stroke-linecap="square" stroke-linejoin="round"/><path d="M632.563 672.982v-11.56" stroke="#c93d39" stroke-width="2" stroke-linecap="round" stroke-linejoin="round"/><path d="M616.563 662.78v9.579" stroke="#3b972e" stroke-width="2" stroke-linecap="square" stroke-linejoin="round"/><path d="M608.563 660.346v17.188" stroke="#945bb0" stroke-width="2" stroke-linecap="round" stroke-linejoin="round"/><path d="M559.662 660.397c20 0 20 20 40 20M569.662 680.397c20 0 20-20 40-20M599.662 680.397c20 0 20-20 40-20M609.662 660.397c20 0 20 20 40 20" stroke="#252525" stroke-width="2.573" stroke-linecap="square"/></g></g></svg>