<svg xmlns="http://www.w3.org/2000/svg" width="358.827" height="141.44" viewBox="0 0 336.39993 132.59998"><defs><clipPath id="a"><path fill-opacity=".345" stroke-width="2.573" stroke-linecap="square" stroke-linejoin="round" d="M568.849 658.072h111.776v25H568.849z"/></clipPath></defs><g transform="translate(-885.839 -1455.664)"><circle r="10.8" cy="1491.363" cx="1051.639" fill="#6b85dd" stroke="#4266d5" stroke-width="3"/><path d="M1042.939 1543.864v-31.2c0-.5.1-.8.7-1 5.2-1.4 10.3-2.8 15.5-4.3.9-.2.9-.2.9.7v50.8c0 3.6.2 7.3-.2 10.9-.4 4.4-1.4 8.6-4.2 12.2-2.5 3.1-5.8 4.8-9.7 5.5-4.3.8-8.7 1-13.1.6-3-.3-5.9-1-8.4-2.9-1.9-1.4-2.9-3.2-2.5-5.7.5-2.5 2.2-3.9 4.5-4.7 1.5-.5 3-.6 4.6-.3 1.2.2 2.2.7 3.1 1.5.9.8 1.7 1.8 2.5 2.7.6.8 1.2 1.5 2 2 1.4.9 2.6.6 3.4-.8.5-1 .7-2 .8-3.1.2-1.5.2-3.1.2-4.6-.1-9.5-.1-18.9-.1-28.3zM1101.039 1559.664c-1.9 1.6-3.8 2.8-5.8 3.9-6.8 3.5-13.5 3-19.9-.8-4.4-2.6-7.2-6.5-8.2-11.6-.2-.8-.2-1.6-.2-2.4v-39c0-.7.2-.9.9-.9h15.4c.6 0 .8.2.8.8v38.2c0 4.2 2.4 7.2 6.4 8.2 1.4.3 2.8.3 4.1-.4 2.8-1.4 4.9-3.6 6.7-6.1.2-.3.1-.7.1-1v-38.7c0-.7.2-.9.9-.9h15.5c.6 0 .7.2.7.7v54.6c0 .6-.2.7-.7.7h-15.6c-.5 0-.7-.1-.7-.7-.4-1.6-.4-3-.4-4.6zM1205.039 1560.364c-.5.4-.9.7-1.3 1.1-2.9 2.5-6.2 3.9-10 4.2-3.8.3-7.5.2-11.1-1.3-7.9-3.3-10.2-11.3-7.8-18 1.2-3.4 3.6-5.8 6.5-7.8 3.7-2.6 7.9-4.4 12.2-6 3.7-1.3 7.4-2.6 11.1-3.5.3-.1.5-.2.5-.6-.1-2.9.2-5.8-.3-8.7-.8-4.7-4.3-6.6-8.5-6.1-.3 0-.7.1-1 .2-3.2.7-4.8 2.9-4.8 6.7 0 1.1-.2 2.2-.5 3.3-.6 2.1-2 3.5-4.1 4.1-2.2.6-4.5.7-6.7-.2-4.3-1.7-5.8-6.7-3.4-10.9 1.5-2.5 3.7-4.2 6.2-5.5 4.1-2.1 8.5-3.3 13.1-3.6 5-.4 9.9-.2 14.8 1 2.8.7 5.5 1.8 7.7 3.7 2.9 2.5 4.5 5.7 4.5 9.4.1 14.1.1 28.2.1 42.4 0 .5-.2.6-.7.6h-15.9c-.5 0-.6-.1-.6-.6v-3.9zm0-24.5c-3.2 1.4-6.1 2.9-8.7 4.9-1.4 1.1-2.7 2.3-3.8 3.7-2.8 3.4-1.3 8.8 1.1 10.9 1 .9 2.2 1.3 3.6 1 1.1-.2 2.1-.6 3-1.1 1-.6 1.9-1.4 3-1.9 1.5-.8 2-1.9 1.9-3.6-.2-4.6-.1-9.2-.1-13.9z" fill="#252525"/><circle r="10.8" cy="1491.863" cx="1163.139" fill="#d66661" stroke="#c93d39" stroke-width="3"/><circle r="10.8" cy="1467.964" cx="1177.139" fill="#6bab5b" stroke="#3b972e" stroke-width="3"/><circle r="10.8" cy="1491.664" cx="1191.339" fill="#aa7dc0" stroke="#945bb0" stroke-width="3"/><path d="M1169.339 1536.464v27.9c0 .7-.1.9-.9.9h-15.5c-.6 0-.7-.1-.7-.7v-51.6c0-.5.1-.7.6-.9 5.2-1.4 10.5-2.9 15.7-4.3.7-.2.7 0 .7.6.1 9.4.1 18.8.1 28.1zM965.475 1537.173v28.256c0 .71-.101.912-.911.912h-15.699c-.607 0-.708-.101-.708-.709v-52.26c0-.506.1-.709.607-.911 5.267-1.418 10.634-2.937 15.9-4.355.71-.203.71 0 .71.608.101 9.52.101 19.04.101 28.459z" fill="#252525"/><circle stroke-miterlimit="10" cx="956.86" cy="1492.213" r="10.931" fill="#4c4c4c" stroke="#3a3a3a" stroke-width="3.036"/><path d="M885.839 1487.302l17.054-4.692v30.906q3.277-2.16 7.15-3.5 3.946-1.34 7.521-1.34 5.213 0 9.681 2.01 4.469 2.011 7.67 5.437 3.203 3.425 4.99 7.968 1.862 4.543 1.862 9.607 0 6.702-2.532 12.735-2.532 6.032-6.926 10.575-4.393 4.468-10.351 7.149-5.883 2.607-12.586 2.607-6.628 0-12.66-1.788-6.032-1.787-10.873-5.66v-72.014zm17.054 68.29q1.787 1.49 3.798 2.756 2.01 1.192 4.84 1.192t5.14-1.713q2.382-1.787 4.02-4.766 1.714-3.054 2.607-7.15.894-4.17.894-8.936 0-3.575-.968-6.703-.894-3.127-2.532-5.51-1.564-2.384-3.798-3.724-2.16-1.415-4.618-1.415-2.383 0-4.99 1.415-2.531 1.34-4.393 3.5v31.055z" style="line-height:125%;-inkscape-font-specification:'Sinhala MN, Bold';text-align:start" font-weight="700" font-size="152.518" font-family="Sinhala MN" letter-spacing="0" word-spacing="0" fill="#252525"/><path d="M1002.96 1566.34q-6.728 0-12.485-2.167-5.681-2.243-9.868-6.055-4.111-3.888-6.429-9.046-2.317-5.233-2.317-11.288 0-6.504 2.317-11.962 2.318-5.457 6.43-9.42 4.186-3.961 9.867-6.13 5.682-2.242 12.41-2.242t12.41 2.168q5.682 2.168 9.868 5.98 4.186 3.813 6.504 8.971 2.392 5.084 2.392 10.99 0 6.205-2.392 11.737-2.318 5.457-6.504 9.569-4.112 4.111-9.793 6.504-5.682 2.392-12.41 2.392zm1.944-6.877q2.317 0 4.26-1.495 2.02-1.57 3.44-4.112 1.42-2.541 2.242-5.83.823-3.365.823-7.028 0-5.383-.823-10.167-.822-4.785-2.616-8.298-1.794-3.588-4.71-5.682-2.84-2.093-7.027-2.093-2.018 0-3.887 1.495-1.87 1.495-3.29 4.037-1.42 2.467-2.317 5.757-.823 3.289-.823 6.877 0 5.458.972 10.317 1.047 4.784 2.916 8.447 1.944 3.589 4.635 5.682 2.766 2.093 6.205 2.093z" style="line-height:125%;-inkscape-font-specification:'Sinhala MN, Bold';text-align:start" font-weight="700" font-size="153.104" font-family="Sinhala MN" letter-spacing="0" word-spacing="0" fill="#252525"/><g transform="matrix(0 .77082 .77082 0 618.199 1040.496)" clip-path="url(#a)" fill="none"><path d="M640.607 678.451v-18.513" stroke="#4266d5" stroke-width="2" stroke-linejoin="round"/><path d="M632.563 672.982v-11.56" stroke="#c93d39" stroke-width="2" stroke-linecap="round" stroke-linejoin="round"/><path d="M616.563 662.781v9.578" stroke="#3b972e" stroke-width="2" stroke-linecap="square" stroke-linejoin="round"/><path d="M672.563 667.812v11.56" stroke="#c93d39" stroke-width="2" stroke-linecap="round" stroke-linejoin="round"/><path d="M656.563 678.013v-9.578" stroke="#3b972e" stroke-width="2" stroke-linecap="square" stroke-linejoin="round"/><path d="M648.563 680.448V663.26" stroke="#945bb0" stroke-width="2" stroke-linecap="round" stroke-linejoin="round"/><path d="M599.662 680.397c20 0 20-20 40-20M609.662 660.397c20 0 20 20 40 20" stroke="#000" stroke-width="2.573" stroke-linecap="square"/><path d="M639.662 660.397c20 0 20 20 40 20M649.662 680.397c20 0 20-20 40-20" stroke="#252525" stroke-width="2.573" stroke-linecap="square"/><path d="M600.606 662.343v18.514" stroke="#4266d5" stroke-width="2" stroke-linejoin="round"/><path d="M592.563 667.812v11.56" stroke="#c93d39" stroke-width="2" stroke-linecap="round" stroke-linejoin="round"/><path d="M576.562 678.013v-9.578" stroke="#3b972e" stroke-width="2" stroke-linecap="square" stroke-linejoin="round"/><path d="M632.563 672.982v-11.56" stroke="#c93d39" stroke-width="2" stroke-linecap="round" stroke-linejoin="round"/><path d="M616.563 662.78v9.579" stroke="#3b972e" stroke-width="2" stroke-linecap="square" stroke-linejoin="round"/><path d="M608.563 660.346v17.188" stroke="#945bb0" stroke-width="2" stroke-linecap="round" stroke-linejoin="round"/><path d="M559.662 660.397c20 0 20 20 40 20M569.662 680.397c20 0 20-20 40-20M599.662 680.397c20 0 20-20 40-20M609.662 660.397c20 0 20 20 40 20" stroke="#252525" stroke-width="2.573" stroke-linecap="square"/></g></g></svg>