<?xml version="1.0" encoding="UTF-8" standalone="no"?>
<!-- Created with Inkscape (http://www.inkscape.org/) -->

<svg
   xmlns:dc="http://purl.org/dc/elements/1.1/"
   xmlns:cc="http://creativecommons.org/ns#"
   xmlns:rdf="http://www.w3.org/1999/02/22-rdf-syntax-ns#"
   xmlns:svg="http://www.w3.org/2000/svg"
   xmlns="http://www.w3.org/2000/svg"
   xmlns:sodipodi="http://sodipodi.sourceforge.net/DTD/sodipodi-0.dtd"
   xmlns:inkscape="http://www.inkscape.org/namespaces/inkscape"
   width="91.185211mm"
   height="37.25333mm"
   viewBox="0 0 323.0972 131.99999"
   id="svg6114"
   version="1.1"
   inkscape:version="0.91 r13725"
   sodipodi:docname="BioJulia_Design_1.svg">
  <defs
     id="defs6116">
    <clipPath
       clipPathUnits="userSpaceOnUse"
       id="clipPath6648">
      <rect
         style="fill:#000000;fill-opacity:0.34517768;stroke:none;stroke-width:2.57299995;stroke-linecap:square;stroke-linejoin:round;stroke-miterlimit:4;stroke-dasharray:none;stroke-opacity:1"
         id="rect6650"
         width="111.77595"
         height="25"
         x="568.84857"
         y="658.07166" />
    </clipPath>
  </defs>
  <sodipodi:namedview
     id="base"
     pagecolor="#ffffff"
     bordercolor="#666666"
     borderopacity="1.0"
     inkscape:pageopacity="0.0"
     inkscape:pageshadow="2"
     inkscape:zoom="1.979899"
     inkscape:cx="145.61066"
     inkscape:cy="47.406875"
     inkscape:document-units="px"
     inkscape:current-layer="layer1"
     showgrid="false"
     fit-margin-top="0"
     fit-margin-left="0"
     fit-margin-right="0"
     fit-margin-bottom="0"
     inkscape:window-width="1440"
     inkscape:window-height="776"
     inkscape:window-x="0"
     inkscape:window-y="1"
     inkscape:window-maximized="1" />
  <metadata
     id="metadata6119">
    <rdf:RDF>
      <cc:Work
         rdf:about="">
        <dc:format>image/svg+xml</dc:format>
        <dc:type
           rdf:resource="http://purl.org/dc/dcmitype/StillImage" />
        <dc:title></dc:title>
      </cc:Work>
    </rdf:RDF>
  </metadata>
  <g
     inkscape:label="Layer 1"
     inkscape:groupmode="layer"
     id="layer1"
     transform="translate(-18.451414,-23.505015)">
    <g
       id="BioJulia_Text_Logo">
      <circle
         style="fill:#6b85dd;stroke:#4266d5;stroke-width:3"
         id="circle6877"
         r="10.8"
         cy="58.70504"
         cx="174.94859" />
      <path
         style="fill:#252525"
         inkscape:connector-curvature="0"
         id="path6879"
         d="m 166.24862,111.10501 c 0,-10.4 0,-20.8 0,-31.2 0,-0.5 0.1,-0.8 0.7,-1 5.2,-1.4 10.3,-2.8 15.5,-4.3 0.9,-0.2 0.9,-0.2 0.9,0.7 0,16.9 0,33.9 0,50.8 0,3.6 0.2,7.3 -0.2,10.9 -0.4,4.4 -1.4,8.6 -4.2,12.2 -2.5,3.1 -5.8,4.8 -9.7,5.5 -4.3,0.8 -8.7,1 -13.1,0.6 -3,-0.3 -5.9,-1 -8.4,-2.9 -1.9,-1.4 -2.9,-3.2 -2.5,-5.7 0.5,-2.5 2.2,-3.9 4.5,-4.7 1.5,-0.5 3,-0.6 4.6,-0.3 1.2,0.2 2.2,0.7 3.1,1.5 0.9,0.8 1.7,1.8 2.5,2.7 0.6,0.8 1.2,1.5 2,2 1.4,0.9 2.6,0.6 3.4,-0.8 0.5,-1 0.7,-2 0.8,-3.1 0.2,-1.5 0.2,-3.1 0.2,-4.6 -0.1,-9.4 -0.1,-18.8 -0.1,-28.3 z" />
      <path
         style="fill:#252525"
         inkscape:connector-curvature="0"
         id="path6881"
         d="m 224.24862,126.90501 c -1.9,1.6 -3.8,2.8 -5.8,3.9 -6.8,3.5 -13.5,3 -19.9,-0.8 -4.4,-2.6 -7.2,-6.5 -8.2,-11.6 -0.2,-0.8 -0.2,-1.6 -0.2,-2.4 0,-13 0,-26 0,-39 0,-0.7 0.2,-0.9 0.9,-0.9 5.1,0 10.3,0 15.4,0 0.6,0 0.8,0.2 0.8,0.8 0,12.7 0,25.5 0,38.2 0,4.2 2.4,7.2 6.4,8.2 1.4,0.3 2.8,0.3 4.1,-0.4 2.8,-1.4 4.9,-3.6 6.7,-6.1 0.2,-0.3 0.1,-0.7 0.1,-1 0,-12.9 0,-25.8 0,-38.7 0,-0.7 0.2,-0.9 0.9,-0.9 5.2,0 10.3,0 15.5,0 0.6,0 0.7,0.2 0.7,0.7 0,18.2 0,36.4 0,54.6 0,0.6 -0.2,0.7 -0.7,0.7 -5.2,0 -10.4,0 -15.6,0 -0.5,0 -0.7,-0.1 -0.7,-0.7 -0.3,-1.5 -0.4,-3 -0.4,-4.6 z" />
      <path
         style="fill:#252525"
         inkscape:connector-curvature="0"
         id="path6883"
         d="m 264.94862,90.50501 c 0,13.6 0,27.1 0,40.7 0,0.7 -0.2,0.9 -0.9,0.9 -5.1,0 -10.3,0 -15.4,0 -0.6,0 -0.7,-0.1 -0.7,-0.7 0,-25.7 0,-51.4 0,-77.1 0,-0.5 0.1,-0.8 0.7,-0.9 5.2,-1.4 10.3,-2.8 15.5,-4.3 0.7,-0.2 0.9,-0.1 0.9,0.6 -0.1,13.6 -0.1,27.2 -0.1,40.8 z" />
      <circle
         style="fill:#6bab5b;stroke:#3b972e;stroke-width:3"
         id="circle6888"
         r="10.8"
         cy="35.805016"
         cx="295.44861" />
      <circle
         style="fill:#aa7dc0;stroke:#945bb0;stroke-width:3"
         id="circle6890"
         r="10.8"
         cy="59.605064"
         cx="309.74866" />
      <circle
         style="fill:#d66661;stroke:#c93d39;stroke-width:3"
         id="circle6894"
         r="10.8"
         cy="59.70504"
         cx="281.44861" />
      <path
         style="fill:#252525"
         inkscape:connector-curvature="0"
         id="path6896"
         d="m 288.64861,103.30501 c 0,9.3 0,18.6 0,27.9 0,0.7 -0.1,0.9 -0.9,0.9 -5.2,0 -10.29999,0 -15.49999,0 -0.6,0 -0.7,-0.1 -0.7,-0.7 0,-17.2 0,-34.4 0,-51.6 0,-0.5 0.1,-0.7 0.6,-0.9 5.2,-1.4 10.49999,-2.9 15.69999,-4.3 0.7,-0.2 0.7,0 0.7,0.6 0.1,9.4 0.1,18.7 0.1,28.1 z" />
      <path
         style="fill:#252525"
         inkscape:connector-curvature="0"
         id="path6898"
         d="m 324.34861,127.70501 c -0.5,0.4 -0.9,0.7 -1.3,1.1 -2.9,2.5 -6.2,3.9 -10,4.2 -3.8,0.3 -7.5,0.2 -11.1,-1.3 -7.9,-3.3 -10.2,-11.3 -7.8,-18 1.2,-3.4 3.6,-5.8 6.5,-7.8 3.7,-2.6 7.9,-4.4 12.2,-6 3.7,-1.3 7.4,-2.6 11.1,-3.5 0.3,-0.1 0.5,-0.2 0.5,-0.6 -0.1,-2.9 0.2,-5.8 -0.3,-8.7 -0.8,-4.7 -4.3,-6.6 -8.5,-6.1 -0.3,0 -0.7,0.1 -1,0.2 -3.2,0.7 -4.8,2.9 -4.8,6.7 0,1.1 -0.2,2.2 -0.5,3.3 -0.6,2.1 -2,3.5 -4.1,4.1 -2.2,0.6 -4.5,0.7 -6.7,-0.2 -4.3,-1.7 -5.8,-6.7 -3.4,-10.9 1.5,-2.5 3.7,-4.2 6.2,-5.5 4.1,-2.1 8.5,-3.3 13.1,-3.6 5,-0.4 9.9,-0.2 14.8,1 2.8,0.7 5.5,1.8 7.7,3.7 2.9,2.5 4.5,5.7 4.5,9.4 0.1,14.1 0.1,28.2 0.1,42.4 0,0.5 -0.2,0.6 -0.7,0.6 -5.3,0 -10.6,0 -15.9,0 -0.5,0 -0.6,-0.1 -0.6,-0.6 0,-1.3 0,-2.5 0,-3.9 z m 0,-24.5 c -3.2,1.4 -6.1,2.9 -8.7,4.9 -1.4,1.1 -2.7,2.3 -3.8,3.7 -2.8,3.4 -1.3,8.8 1.1,10.9 1,0.9 2.2,1.3 3.6,1 1.1,-0.2 2.1,-0.6 3,-1.1 1,-0.6 1.9,-1.4 3,-1.9 1.5,-0.8 2,-1.9 1.9,-3.6 -0.2,-4.6 -0.1,-9.2 -0.1,-13.9 z" />
      <path
         d="m 95.666153,88.83456 c 0,8.003886 0,16.00777 0,24.01166 0,0.6024 -0.08606,0.77457 -0.774567,0.77457 -4.475289,0 -8.864511,0 -13.339799,0 -0.516378,0 -0.60244,-0.0861 -0.60244,-0.60245 0,-14.802864 0,-29.605773 0,-44.408636 0,-0.430285 0.08606,-0.602454 0.516378,-0.774577 4.475289,-1.204862 9.036639,-2.495808 13.511922,-3.700716 0.602445,-0.172123 0.602445,0 0.602445,0.516415 0.08606,8.089924 0.08606,16.179848 0.08606,24.183734 z"
         id="path6904"
         inkscape:connector-curvature="0"
         style="fill:#252525" />
      <circle
         stroke-miterlimit="10"
         cx="88.345001"
         cy="50.629139"
         r="9.2889729"
         id="circle6906"
         style="fill:#4c4c4c;stroke:#3a3a3a;stroke-width:2.58027005;stroke-miterlimit:10" />
      <path
         inkscape:connector-curvature="0"
         id="path7043"
         style="font-style:normal;font-variant:normal;font-weight:bold;font-stretch:normal;font-size:129.60539246px;line-height:125%;font-family:'Sinhala MN';-inkscape-font-specification:'Sinhala MN, Bold';text-align:start;letter-spacing:0px;word-spacing:0px;writing-mode:lr-tb;text-anchor:start;fill:#252525;fill-opacity:1;stroke:none;stroke-width:1px;stroke-linecap:butt;stroke-linejoin:miter;stroke-opacity:1"
         d="m 27.993785,46.456073 14.492009,-3.986885 0,26.262812 q 2.784491,-1.835233 6.075253,-2.974343 3.354045,-1.13911 6.391672,-1.13911 4.429872,0 8.226904,1.708665 3.797033,1.708665 6.51824,4.619724 2.721207,2.911058 4.240021,6.771375 1.582097,3.860317 1.582097,8.163621 0,5.69555 -2.151652,10.821544 -2.151652,5.125994 -5.885401,8.986314 -3.73375,3.79703 -8.79646,6.07525 -4.999427,2.21494 -10.694976,2.21494 -5.632266,0 -10.758261,-1.51882 -5.125994,-1.51881 -9.239446,-4.80957 l 0,-61.195517 z m 14.492009,58.031317 q 1.518813,1.26568 3.227478,2.34151 1.708665,1.01254 4.113452,1.01254 2.404788,0 4.366588,-1.45553 2.025084,-1.51881 3.41733,-4.05017 1.455529,-2.594638 2.214936,-6.075251 0.759406,-3.543898 0.759406,-7.594066 0,-3.037626 -0.82269,-5.69555 -0.759407,-2.657923 -2.151652,-4.683007 -1.328962,-2.025084 -3.227478,-3.164194 -1.835233,-1.202394 -3.923601,-1.202394 -2.025084,0 -4.24002,1.202394 -2.151652,1.13911 -3.733749,2.974342 l 0,26.389376 z" />
      <path
         inkscape:connector-curvature="0"
         id="path7047"
         style="font-style:normal;font-variant:normal;font-weight:bold;font-stretch:normal;font-size:130.1028595px;line-height:125%;font-family:'Sinhala MN';-inkscape-font-specification:'Sinhala MN, Bold';text-align:start;letter-spacing:0px;word-spacing:0px;writing-mode:lr-tb;text-anchor:start;fill:#252525;fill-opacity:1;stroke:none;stroke-width:1px;stroke-linecap:butt;stroke-linejoin:miter;stroke-opacity:1"
         d="m 127.51964,113.62083 q -5.71741,0 -10.60897,-1.84228 -4.82803,-1.9058 -8.38553,-5.14567 -3.49398,-3.30339 -5.46331,-7.68674 -1.96933,-4.446875 -1.96933,-9.592545 0,-5.52683 1.96933,-10.164286 1.96933,-4.637455 5.46331,-8.004375 3.5575,-3.366919 8.38553,-5.209196 4.82804,-1.905804 10.54545,-1.905804 5.71741,0 10.54544,1.842277 4.82804,1.842277 8.38554,5.082143 3.5575,3.239866 5.52683,7.623214 2.03286,4.319822 2.03286,9.338438 0,5.272723 -2.03286,9.973706 -1.96933,4.637458 -5.52683,8.131428 -3.49397,3.49397 -8.32201,5.52683 -4.82803,2.03286 -10.54545,2.03286 z m 1.6517,-5.84447 q 1.96933,0 3.62103,-1.27053 1.71522,-1.33406 2.92223,-3.49398 1.20701,-2.15991 1.9058,-4.955085 0.6988,-2.858705 0.6988,-5.971518 0,-4.573928 -0.6988,-8.639643 -0.69879,-4.065714 -2.22343,-7.051473 -1.52465,-3.049286 -4.00219,-4.828036 -2.41402,-1.77875 -5.97152,-1.77875 -1.71522,0 -3.30339,1.270536 -1.58817,1.270535 -2.79518,3.430446 -1.20701,2.096384 -1.96933,4.891563 -0.6988,2.795178 -0.6988,5.844464 0,4.637456 0.82585,8.766697 0.88938,4.065714 2.47755,7.178529 1.65169,3.04928 3.93866,4.82803 2.35049,1.77875 5.27272,1.77875 z" />
      <g
         clip-path="url(#clipPath6648)"
         id="g6916"
         transform="matrix(1.3041038,0,0,-1.3041038,-723.38617,1004.3945)">
        <path
           style="fill:none;fill-rule:evenodd;stroke:#4266d5;stroke-width:2;stroke-linecap:butt;stroke-linejoin:round;stroke-miterlimit:4;stroke-dasharray:none;stroke-opacity:1"
           d="m 640.60683,678.45148 0,-18.51397"
           id="path6918"
           inkscape:connector-curvature="0" />
        <path
           style="fill:none;fill-rule:evenodd;stroke:#c93d39;stroke-width:2;stroke-linecap:round;stroke-linejoin:round;stroke-miterlimit:4;stroke-dasharray:none;stroke-opacity:1"
           d="m 632.56293,672.98232 0,-11.56044"
           id="path6920"
           inkscape:connector-curvature="0" />
        <path
           inkscape:connector-curvature="0"
           id="path6922"
           d="m 616.56283,662.78096 0,9.57804"
           style="fill:none;fill-rule:evenodd;stroke:#3b972e;stroke-width:2;stroke-linecap:square;stroke-linejoin:round;stroke-miterlimit:4;stroke-dasharray:none;stroke-opacity:1" />
        <path
           inkscape:connector-curvature="0"
           id="path6924"
           d="m 672.56299,667.8121 0,11.56044"
           style="fill:none;fill-rule:evenodd;stroke:#c93d39;stroke-width:2;stroke-linecap:round;stroke-linejoin:round;stroke-miterlimit:4;stroke-dasharray:none;stroke-opacity:1" />
        <path
           style="fill:none;fill-rule:evenodd;stroke:#3b972e;stroke-width:2;stroke-linecap:square;stroke-linejoin:round;stroke-miterlimit:4;stroke-dasharray:none;stroke-opacity:1"
           d="m 656.56289,678.01346 0,-9.57804"
           id="path6926"
           inkscape:connector-curvature="0" />
        <path
           style="fill:none;fill-rule:evenodd;stroke:#945bb0;stroke-width:2;stroke-linecap:round;stroke-linejoin:round;stroke-miterlimit:4;stroke-dasharray:none;stroke-opacity:1"
           d="m 648.56299,680.4483 0,-17.1879"
           id="path6928"
           inkscape:connector-curvature="0" />
        <path
           inkscape:connector-curvature="0"
           id="path6930"
           d="m 599.66189,680.39719 c 20,0 20,-20 40,-20"
           style="fill:none;fill-rule:evenodd;stroke:#000000;stroke-width:2.57299995;stroke-linecap:square;stroke-linejoin:miter;stroke-miterlimit:4;stroke-dasharray:none;stroke-opacity:1" />
        <path
           style="fill:none;fill-rule:evenodd;stroke:#000000;stroke-width:2.57299995;stroke-linecap:square;stroke-linejoin:miter;stroke-miterlimit:4;stroke-dasharray:none;stroke-opacity:1"
           d="m 609.66189,660.39719 c 20,0 20,20 40,20"
           id="path6932"
           inkscape:connector-curvature="0" />
        <path
           style="fill:none;fill-rule:evenodd;stroke:#252525;stroke-width:2.57299995;stroke-linecap:square;stroke-linejoin:miter;stroke-miterlimit:4;stroke-dasharray:none;stroke-opacity:1"
           d="m 639.66195,660.39722 c 20,0 20,20 40,20"
           id="path6934"
           inkscape:connector-curvature="0" />
        <path
           inkscape:connector-curvature="0"
           id="path6936"
           d="m 649.66195,680.39722 c 20,0 20,-20 40,-20"
           style="fill:none;fill-rule:evenodd;stroke:#252525;stroke-width:2.57299995;stroke-linecap:square;stroke-linejoin:miter;stroke-miterlimit:4;stroke-dasharray:none;stroke-opacity:1" />
        <path
           inkscape:connector-curvature="0"
           id="path6938"
           d="m 600.60644,662.34292 0,18.51397"
           style="fill:none;fill-rule:evenodd;stroke:#4266d5;stroke-width:2;stroke-linecap:butt;stroke-linejoin:round;stroke-miterlimit:4;stroke-dasharray:none;stroke-opacity:1" />
        <path
           inkscape:connector-curvature="0"
           id="path6940"
           d="m 592.56254,667.81208 0,11.56044"
           style="fill:none;fill-rule:evenodd;stroke:#c93d39;stroke-width:2;stroke-linecap:round;stroke-linejoin:round;stroke-miterlimit:4;stroke-dasharray:none;stroke-opacity:1" />
        <path
           style="fill:none;fill-rule:evenodd;stroke:#3b972e;stroke-width:2;stroke-linecap:square;stroke-linejoin:round;stroke-miterlimit:4;stroke-dasharray:none;stroke-opacity:1"
           d="m 576.56244,678.01344 0,-9.57804"
           id="path6942"
           inkscape:connector-curvature="0" />
        <path
           style="fill:none;fill-rule:evenodd;stroke:#c93d39;stroke-width:2;stroke-linecap:round;stroke-linejoin:round;stroke-miterlimit:4;stroke-dasharray:none;stroke-opacity:1"
           d="m 632.5626,672.9823 0,-11.56044"
           id="path6944"
           inkscape:connector-curvature="0" />
        <path
           inkscape:connector-curvature="0"
           id="path6946"
           d="m 616.5625,662.78094 0,9.57804"
           style="fill:none;fill-rule:evenodd;stroke:#3b972e;stroke-width:2;stroke-linecap:square;stroke-linejoin:round;stroke-miterlimit:4;stroke-dasharray:none;stroke-opacity:1" />
        <path
           inkscape:connector-curvature="0"
           id="path6948"
           d="m 608.5626,660.3461 0,17.1879"
           style="fill:none;fill-rule:evenodd;stroke:#945bb0;stroke-width:2;stroke-linecap:round;stroke-linejoin:round;stroke-miterlimit:4;stroke-dasharray:none;stroke-opacity:1" />
        <path
           style="fill:none;fill-rule:evenodd;stroke:#252525;stroke-width:2.57299995;stroke-linecap:square;stroke-linejoin:miter;stroke-miterlimit:4;stroke-dasharray:none;stroke-opacity:1"
           d="m 559.6615,660.39721 c 20,0 20,20 40,20"
           id="path6950"
           inkscape:connector-curvature="0" />
        <path
           inkscape:connector-curvature="0"
           id="path6952"
           d="m 569.6615,680.39721 c 20,0 20,-20 40,-20"
           style="fill:none;fill-rule:evenodd;stroke:#252525;stroke-width:2.57299995;stroke-linecap:square;stroke-linejoin:miter;stroke-miterlimit:4;stroke-dasharray:none;stroke-opacity:1" />
        <path
           inkscape:connector-curvature="0"
           id="path6954"
           d="m 599.66156,680.39718 c 20,0 20,-20 40,-20"
           style="fill:none;fill-rule:evenodd;stroke:#252525;stroke-width:2.57299995;stroke-linecap:square;stroke-linejoin:miter;stroke-miterlimit:4;stroke-dasharray:none;stroke-opacity:1" />
        <path
           style="fill:none;fill-rule:evenodd;stroke:#252525;stroke-width:2.57299995;stroke-linecap:square;stroke-linejoin:miter;stroke-miterlimit:4;stroke-dasharray:none;stroke-opacity:1"
           d="m 609.66156,660.39718 c 20,0 20,20 40,20"
           id="path6956"
           inkscape:connector-curvature="0" />
      </g>
    </g>
  </g>
</svg>
