<?xml version="1.0" encoding="UTF-8" standalone="no"?>
<!-- Created with Inkscape (http://www.inkscape.org/) -->

<svg
   xmlns:dc="http://purl.org/dc/elements/1.1/"
   xmlns:cc="http://creativecommons.org/ns#"
   xmlns:rdf="http://www.w3.org/1999/02/22-rdf-syntax-ns#"
   xmlns:svg="http://www.w3.org/2000/svg"
   xmlns="http://www.w3.org/2000/svg"
   xmlns:sodipodi="http://sodipodi.sourceforge.net/DTD/sodipodi-0.dtd"
   xmlns:inkscape="http://www.inkscape.org/namespaces/inkscape"
   width="101.38226mm"
   height="37.253334mm"
   viewBox="0 0 359.22846 132"
   id="svg9006"
   version="1.1"
   inkscape:version="0.91 r13725"
   sodipodi:docname="BioJulia_Design_4.svg">
  <defs
     id="defs9008">
    <clipPath
       clipPathUnits="userSpaceOnUse"
       id="clipPath6648-9">
      <rect
         style="fill:#252525;fill-opacity:0.34517768;stroke:none;stroke-width:2.57299995;stroke-linecap:square;stroke-linejoin:round;stroke-miterlimit:4;stroke-dasharray:none;stroke-opacity:1"
         id="rect6650-1"
         width="111.77595"
         height="25"
         x="568.84857"
         y="658.07166" />
    </clipPath>
  </defs>
  <sodipodi:namedview
     id="base"
     pagecolor="#ffffff"
     bordercolor="#666666"
     borderopacity="1.0"
     inkscape:pageopacity="0.0"
     inkscape:pageshadow="2"
     inkscape:zoom="1.979899"
     inkscape:cx="151.24227"
     inkscape:cy="62.740983"
     inkscape:document-units="px"
     inkscape:current-layer="layer1"
     showgrid="false"
     fit-margin-top="0"
     fit-margin-left="0"
     fit-margin-right="0"
     fit-margin-bottom="0"
     inkscape:window-width="1440"
     inkscape:window-height="776"
     inkscape:window-x="0"
     inkscape:window-y="1"
     inkscape:window-maximized="1" />
  <metadata
     id="metadata9011">
    <rdf:RDF>
      <cc:Work
         rdf:about="">
        <dc:format>image/svg+xml</dc:format>
        <dc:type
           rdf:resource="http://purl.org/dc/dcmitype/StillImage" />
        <dc:title></dc:title>
      </cc:Work>
    </rdf:RDF>
  </metadata>
  <g
     inkscape:label="Layer 1"
     inkscape:groupmode="layer"
     id="layer1"
     transform="translate(-93.126936,-79.245219)">
    <g
       id="BioJulia_Text_Logo">
      <circle
         cx="285.75537"
         cy="114.34521"
         r="10.8"
         id="circle563-7"
         style="fill:#6b85dd;stroke:#4266d5;stroke-width:3" />
      <circle
         cx="392.25537"
         cy="115.44524"
         r="10.8"
         id="circle565-9"
         style="fill:#d66661;stroke:#c93d39;stroke-width:3" />
      <circle
         cx="406.25537"
         cy="91.545219"
         r="10.8"
         id="circle567-9"
         style="fill:#6bab5b;stroke:#3b972e;stroke-width:3" />
      <circle
         cx="420.55542"
         cy="115.24523"
         r="10.8"
         id="circle569-5"
         style="fill:#aa7dc0;stroke:#945bb0;stroke-width:3" />
      <path
         d="m 277.0554,166.84522 c 0,-10.4 0,-20.8 0,-31.2 0,-0.5 0.1,-0.8 0.7,-1 5.2,-1.4 10.3,-2.8 15.5,-4.3 0.9,-0.2 0.9,-0.2 0.9,0.7 0,16.9 0,33.9 0,50.8 0,3.6 0.2,7.3 -0.2,10.9 -0.4,4.4 -1.4,8.6 -4.2,12.2 -2.5,3.1 -5.8,4.8 -9.7,5.5 -4.3,0.8 -8.7,1 -13.1,0.6 -3,-0.3 -5.9,-1 -8.4,-2.9 -1.9,-1.4 -2.9,-3.2 -2.5,-5.7 0.5,-2.5 2.2,-3.9 4.5,-4.7 1.5,-0.5 3,-0.6 4.6,-0.3 1.2,0.2 2.2,0.7 3.1,1.5 0.9,0.8 1.7,1.8 2.5,2.7 0.6,0.8 1.2,1.5 2,2 1.4,0.9 2.6,0.6 3.4,-0.8 0.5,-1 0.7,-2 0.8,-3.1 0.2,-1.5 0.2,-3.1 0.2,-4.6 -0.1,-9.4 -0.1,-18.9 -0.1,-28.3 z"
         id="path571-4"
         inkscape:connector-curvature="0"
         style="fill:#252525" />
      <path
         d="m 335.1554,182.64522 c -1.9,1.6 -3.8,2.8 -5.8,3.9 -6.8,3.5 -13.5,3 -19.9,-0.8 -4.4,-2.6 -7.2,-6.5 -8.2,-11.6 -0.2,-0.8 -0.2,-1.6 -0.2,-2.4 0,-13 0,-26 0,-39 0,-0.7 0.2,-0.9 0.9,-0.9 5.1,0 10.3,0 15.4,0 0.6,0 0.8,0.2 0.8,0.8 0,12.7 0,25.5 0,38.2 0,4.2 2.4,7.2 6.4,8.2 1.4,0.3 2.8,0.3 4.1,-0.4 2.8,-1.4 4.9,-3.6 6.7,-6.1 0.2,-0.3 0.1,-0.7 0.1,-1 0,-12.9 0,-25.8 0,-38.7 0,-0.7 0.2,-0.9 0.9,-0.9 5.2,0 10.3,0 15.5,0 0.6,0 0.7,0.2 0.7,0.7 0,18.2 0,36.4 0,54.6 0,0.6 -0.2,0.7 -0.7,0.7 -5.2,0 -10.4,0 -15.6,0 -0.5,0 -0.7,-0.1 -0.7,-0.7 -0.4,-1.6 -0.4,-3 -0.4,-4.6 z"
         id="path573-5"
         inkscape:connector-curvature="0"
         style="fill:#252525" />
      <path
         d="m 375.7554,146.24522 c 0,13.6 0,27.1 0,40.7 0,0.7 -0.2,0.9 -0.9,0.9 -5.1,0 -10.3,0 -15.4,0 -0.6,0 -0.7,-0.1 -0.7,-0.7 0,-25.7 0,-51.4 0,-77.1 0,-0.5 0.1,-0.8 0.7,-0.9 5.2,-1.4 10.3,-2.8 15.5,-4.3 0.7,-0.2 0.9,-0.1 0.9,0.6 -0.1,13.6 -0.1,27.2 -0.1,40.8 z"
         id="path575-0"
         inkscape:connector-curvature="0"
         style="fill:#252525" />
      <path
         d="m 399.4554,158.94522 c 0,9.3 0,18.6 0,27.9 0,0.7 -0.1,0.9 -0.9,0.9 -5.2,0 -10.3,0 -15.5,0 -0.6,0 -0.7,-0.1 -0.7,-0.7 0,-17.2 0,-34.4 0,-51.6 0,-0.5 0.1,-0.7 0.6,-0.9 5.2,-1.4 10.5,-2.9 15.7,-4.3 0.7,-0.2 0.7,0 0.7,0.6 0.1,9.4 0.1,18.8 0.1,28.1 z"
         id="path577-6"
         inkscape:connector-curvature="0"
         style="fill:#252525" />
      <path
         d="m 435.1554,183.34522 c -0.5,0.4 -0.9,0.7 -1.3,1.1 -2.9,2.5 -6.2,3.9 -10,4.2 -3.8,0.3 -7.5,0.2 -11.1,-1.3 -7.9,-3.3 -10.2,-11.3 -7.8,-18 1.2,-3.4 3.6,-5.8 6.5,-7.8 3.7,-2.6 7.9,-4.4 12.2,-6 3.7,-1.3 7.4,-2.6 11.1,-3.5 0.3,-0.1 0.5,-0.2 0.5,-0.6 -0.1,-2.9 0.2,-5.8 -0.3,-8.7 -0.8,-4.7 -4.3,-6.6 -8.5,-6.1 -0.3,0 -0.7,0.1 -1,0.2 -3.2,0.7 -4.8,2.9 -4.8,6.7 0,1.1 -0.2,2.2 -0.5,3.3 -0.6,2.1 -2,3.5 -4.1,4.1 -2.2,0.6 -4.5,0.7 -6.7,-0.2 -4.3,-1.7 -5.8,-6.7 -3.4,-10.9 1.5,-2.5 3.7,-4.2 6.2,-5.5 4.1,-2.1 8.5,-3.3 13.1,-3.6 5,-0.4 9.9,-0.2 14.8,1 2.8,0.7 5.5,1.8 7.7,3.7 2.9,2.5 4.5,5.7 4.5,9.4 0.1,14.1 0.1,28.2 0.1,42.4 0,0.5 -0.2,0.6 -0.7,0.6 -5.3,0 -10.6,0 -15.9,0 -0.5,0 -0.6,-0.1 -0.6,-0.6 0,-1.3 0,-2.5 0,-3.9 z m 0,-24.4 c -3.2,1.4 -6.1,2.9 -8.7,4.9 -1.4,1.1 -2.7,2.3 -3.8,3.7 -2.8,3.4 -1.3,8.8 1.1,10.9 1,0.9 2.2,1.3 3.6,1 1.1,-0.2 2.1,-0.6 3,-1.1 1,-0.6 1.9,-1.4 3,-1.9 1.5,-0.8 2,-1.9 1.9,-3.6 -0.2,-4.7 -0.1,-9.2 -0.1,-13.9 z"
         id="path579-8"
         inkscape:connector-curvature="0"
         style="fill:#252525" />
      <path
         style="fill:#252525"
         inkscape:connector-curvature="0"
         id="path6437-2"
         d="m 171.3827,160.45317 c 0,9.25562 0,18.51125 0,27.76687 0,0.69662 -0.0995,0.89572 -0.8957,0.89572 -5.17519,0 -10.25085,0 -15.42603,0 -0.59714,0 -0.69666,-0.0995 -0.69666,-0.69667 0,-17.11791 0,-34.23587 0,-51.35378 0,-0.49758 0.0995,-0.69667 0.59713,-0.89571 5.17519,-1.3933 10.4499,-2.88614 15.62508,-4.27948 0.69666,-0.19904 0.69666,0 0.69666,0.59718 0.0995,9.35512 0.0995,18.71024 0.0995,27.96587 z" />
      <circle
         style="fill:#4c4c4c;stroke:#3a3a3a;stroke-width:2.9838028;stroke-miterlimit:10"
         id="circle6439-6"
         r="10.741691"
         cy="116.27274"
         cx="162.91658"
         stroke-miterlimit="10" />
      <path
         d="m 93.126936,111.44703 16.758434,-4.61039 0,30.37009 q 3.21997,-2.12225 7.02537,-3.4395 3.8786,-1.31726 7.39128,-1.31726 5.12267,0 9.51352,1.97588 4.39086,1.97589 7.53764,5.34221 3.14678,3.36633 4.90313,7.83036 1.82952,4.46404 1.82952,9.44035 0,6.58628 -2.48815,12.51394 -2.48815,5.92766 -6.80583,10.3917 -4.31768,4.39085 -10.17215,7.02537 -5.7813,2.56133 -12.36758,2.56133 -6.51311,0 -12.44077,-1.75634 -5.927653,-1.75635 -10.684414,-5.56176 l 0,-70.76598 z m 16.758434,67.10694 q 1.75635,1.46362 3.73223,2.70769 1.97589,1.1709 4.75676,1.1709 2.78088,0 5.04949,-1.68316 2.34179,-1.75635 3.95177,-4.68359 1.68316,-3.00041 2.56133,-7.02537 0.87818,-4.09813 0.87818,-8.78171 0,-3.51269 -0.95136,-6.58629 -0.87817,-3.0736 -2.48815,-5.41539 -1.5368,-2.34179 -3.73223,-3.65904 -2.12225,-1.39044 -4.53722,-1.39044 -2.34179,0 -4.90312,1.39044 -2.48815,1.31725 -4.31768,3.4395 l 0,30.51646 z"
         style="font-style:normal;font-variant:normal;font-weight:bold;font-stretch:normal;font-size:149.87458801px;line-height:125%;font-family:'Sinhala MN';-inkscape-font-specification:'Sinhala MN, Bold';text-align:start;letter-spacing:0px;word-spacing:0px;writing-mode:lr-tb;text-anchor:start;fill:#252525;fill-opacity:1;stroke:none;stroke-width:1px;stroke-linecap:butt;stroke-linejoin:miter;stroke-opacity:1"
         id="path9654"
         inkscape:connector-curvature="0" />
      <path
         d="m 208.21781,189.11579 q -6.61157,0 -12.26813,-2.13039 -5.5831,-2.20386 -9.69697,-5.95041 -4.0404,-3.82002 -6.31772,-8.88888 -2.27731,-5.14233 -2.27731,-11.09274 0,-6.39118 2.27731,-11.7539 2.27732,-5.36271 6.31772,-9.25619 4.11387,-3.89348 9.69697,-6.02387 5.5831,-2.20386 12.19466,-2.20386 6.61157,0 12.19467,2.1304 5.5831,2.13039 9.69696,5.87694 4.11387,3.74656 6.39118,8.81543 2.35078,4.9954 2.35078,10.79889 0,6.09733 -2.35078,11.53351 -2.27731,5.36271 -6.39118,9.40311 -4.0404,4.0404 -9.6235,6.39118 -5.5831,2.35078 -12.19466,2.35078 z m 1.91,-6.75849 q 2.27732,0 4.18733,-1.46923 1.98347,-1.5427 3.37924,-4.04041 1.39578,-2.4977 2.20386,-5.73002 0.80808,-3.30578 0.80808,-6.90541 0,-5.28926 -0.80808,-9.99081 -0.80808,-4.70156 -2.57117,-8.15427 -1.76308,-3.52617 -4.62809,-5.5831 -2.79155,-2.05693 -6.90542,-2.05693 -1.98347,0 -3.82001,1.46924 -1.83655,1.46923 -3.23232,3.96694 -1.39578,2.42424 -2.27732,5.65656 -0.80808,3.23232 -0.80808,6.75849 0,5.36271 0.955,10.13773 1.02847,4.70156 2.86502,8.30119 1.91,3.52617 4.55463,5.5831 2.71809,2.05693 6.09733,2.05693 z"
         style="font-style:normal;font-variant:normal;font-weight:bold;font-stretch:normal;font-size:150.44985962px;line-height:125%;font-family:'Sinhala MN';-inkscape-font-specification:'Sinhala MN, Bold';text-align:start;letter-spacing:0px;word-spacing:0px;writing-mode:lr-tb;text-anchor:start;fill:#252525;fill-opacity:1;stroke:none;stroke-width:1px;stroke-linecap:butt;stroke-linejoin:miter;stroke-opacity:1"
         id="path9658"
         inkscape:connector-curvature="0" />
      <g
         transform="matrix(0,0.98038395,0.98038395,0,-399.48746,-476.77989)"
         id="g8090"
         clip-path="url(#clipPath6648-9)">
        <path
           inkscape:connector-curvature="0"
           id="path8092"
           d="m 640.60683,678.45148 0,-18.51397"
           style="fill:none;fill-rule:evenodd;stroke:#4266d5;stroke-width:2;stroke-linecap:butt;stroke-linejoin:round;stroke-miterlimit:4;stroke-dasharray:none;stroke-opacity:1" />
        <path
           inkscape:connector-curvature="0"
           id="path8094"
           d="m 632.56293,672.98232 0,-11.56044"
           style="fill:none;fill-rule:evenodd;stroke:#c93d39;stroke-width:2;stroke-linecap:round;stroke-linejoin:round;stroke-miterlimit:4;stroke-dasharray:none;stroke-opacity:1" />
        <path
           style="fill:none;fill-rule:evenodd;stroke:#3b972e;stroke-width:2;stroke-linecap:square;stroke-linejoin:round;stroke-miterlimit:4;stroke-dasharray:none;stroke-opacity:1"
           d="m 616.56283,662.78096 0,9.57804"
           id="path8096"
           inkscape:connector-curvature="0" />
        <path
           style="fill:none;fill-rule:evenodd;stroke:#c93d39;stroke-width:2;stroke-linecap:round;stroke-linejoin:round;stroke-miterlimit:4;stroke-dasharray:none;stroke-opacity:1"
           d="m 672.56299,667.8121 0,11.56044"
           id="path8098"
           inkscape:connector-curvature="0" />
        <path
           inkscape:connector-curvature="0"
           id="path8100"
           d="m 656.56289,678.01346 0,-9.57804"
           style="fill:none;fill-rule:evenodd;stroke:#3b972e;stroke-width:2;stroke-linecap:square;stroke-linejoin:round;stroke-miterlimit:4;stroke-dasharray:none;stroke-opacity:1" />
        <path
           inkscape:connector-curvature="0"
           id="path8102"
           d="m 648.56299,680.4483 0,-17.1879"
           style="fill:none;fill-rule:evenodd;stroke:#945bb0;stroke-width:2;stroke-linecap:round;stroke-linejoin:round;stroke-miterlimit:4;stroke-dasharray:none;stroke-opacity:1" />
        <path
           style="fill:none;fill-rule:evenodd;stroke:#252525;stroke-width:2.57299995;stroke-linecap:square;stroke-linejoin:miter;stroke-miterlimit:4;stroke-dasharray:none;stroke-opacity:1"
           d="m 599.66189,680.39719 c 20,0 20,-20 40,-20"
           id="path8104"
           inkscape:connector-curvature="0" />
        <path
           inkscape:connector-curvature="0"
           id="path8106"
           d="m 609.66189,660.39719 c 20,0 20,20 40,20"
           style="fill:none;fill-rule:evenodd;stroke:#252525;stroke-width:2.57299995;stroke-linecap:square;stroke-linejoin:miter;stroke-miterlimit:4;stroke-dasharray:none;stroke-opacity:1" />
        <path
           inkscape:connector-curvature="0"
           id="path8108"
           d="m 639.66195,660.39722 c 20,0 20,20 40,20"
           style="fill:none;fill-rule:evenodd;stroke:#252525;stroke-width:2.57299995;stroke-linecap:square;stroke-linejoin:miter;stroke-miterlimit:4;stroke-dasharray:none;stroke-opacity:1" />
        <path
           style="fill:none;fill-rule:evenodd;stroke:#252525;stroke-width:2.57299995;stroke-linecap:square;stroke-linejoin:miter;stroke-miterlimit:4;stroke-dasharray:none;stroke-opacity:1"
           d="m 649.66195,680.39722 c 20,0 20,-20 40,-20"
           id="path8110"
           inkscape:connector-curvature="0" />
        <path
           style="fill:none;fill-rule:evenodd;stroke:#4266d5;stroke-width:2;stroke-linecap:butt;stroke-linejoin:round;stroke-miterlimit:4;stroke-dasharray:none;stroke-opacity:1"
           d="m 600.60644,662.34292 0,18.51397"
           id="path8112"
           inkscape:connector-curvature="0" />
        <path
           style="fill:none;fill-rule:evenodd;stroke:#c93d39;stroke-width:2;stroke-linecap:round;stroke-linejoin:round;stroke-miterlimit:4;stroke-dasharray:none;stroke-opacity:1"
           d="m 592.56254,667.81208 0,11.56044"
           id="path8114"
           inkscape:connector-curvature="0" />
        <path
           inkscape:connector-curvature="0"
           id="path8116"
           d="m 576.56244,678.01344 0,-9.57804"
           style="fill:none;fill-rule:evenodd;stroke:#3b972e;stroke-width:2;stroke-linecap:square;stroke-linejoin:round;stroke-miterlimit:4;stroke-dasharray:none;stroke-opacity:1" />
        <path
           inkscape:connector-curvature="0"
           id="path8118"
           d="m 632.5626,672.9823 0,-11.56044"
           style="fill:none;fill-rule:evenodd;stroke:#c93d39;stroke-width:2;stroke-linecap:round;stroke-linejoin:round;stroke-miterlimit:4;stroke-dasharray:none;stroke-opacity:1" />
        <path
           style="fill:none;fill-rule:evenodd;stroke:#3b972e;stroke-width:2;stroke-linecap:square;stroke-linejoin:round;stroke-miterlimit:4;stroke-dasharray:none;stroke-opacity:1"
           d="m 616.5625,662.78094 0,9.57804"
           id="path8120"
           inkscape:connector-curvature="0" />
        <path
           style="fill:none;fill-rule:evenodd;stroke:#945bb0;stroke-width:2;stroke-linecap:round;stroke-linejoin:round;stroke-miterlimit:4;stroke-dasharray:none;stroke-opacity:1"
           d="m 608.5626,660.3461 0,17.1879"
           id="path8122"
           inkscape:connector-curvature="0" />
        <path
           inkscape:connector-curvature="0"
           id="path8124"
           d="m 559.6615,660.39721 c 20,0 20,20 40,20"
           style="fill:none;fill-rule:evenodd;stroke:#252525;stroke-width:2.57299995;stroke-linecap:square;stroke-linejoin:miter;stroke-miterlimit:4;stroke-dasharray:none;stroke-opacity:1" />
        <path
           style="fill:none;fill-rule:evenodd;stroke:#252525;stroke-width:2.57299995;stroke-linecap:square;stroke-linejoin:miter;stroke-miterlimit:4;stroke-dasharray:none;stroke-opacity:1"
           d="m 569.6615,680.39721 c 20,0 20,-20 40,-20"
           id="path8126"
           inkscape:connector-curvature="0" />
        <path
           style="fill:none;fill-rule:evenodd;stroke:#252525;stroke-width:2.57299995;stroke-linecap:square;stroke-linejoin:miter;stroke-miterlimit:4;stroke-dasharray:none;stroke-opacity:1"
           d="m 599.66156,680.39718 c 20,0 20,-20 40,-20"
           id="path8128"
           inkscape:connector-curvature="0" />
        <path
           inkscape:connector-curvature="0"
           id="path8130"
           d="m 609.66156,660.39718 c 20,0 20,20 40,20"
           style="fill:none;fill-rule:evenodd;stroke:#252525;stroke-width:2.57299995;stroke-linecap:square;stroke-linejoin:miter;stroke-miterlimit:4;stroke-dasharray:none;stroke-opacity:1" />
      </g>
    </g>
  </g>
</svg>
